G75*
G70*
%OFA0B0*%
%FSLAX24Y24*%
%IPPOS*%
%LPD*%
%AMOC8*
5,1,8,0,0,1.08239X$1,22.5*
%
%ADD10C,0.0630*%
%ADD11C,0.0551*%
%ADD12C,0.0236*%
%ADD13C,0.0079*%
%ADD14C,0.0118*%
%ADD15C,0.0531*%
%ADD16C,0.0315*%
D10*
X001969Y005512D03*
X001969Y009843D03*
X001969Y014173D03*
X001969Y018504D03*
X001969Y023228D03*
X011417Y029823D03*
X016732Y029823D03*
X029921Y019193D03*
X029921Y006988D03*
X008661Y001181D03*
D11*
X006512Y002362D03*
X005512Y002362D03*
X004512Y002362D03*
D12*
X004724Y000787D03*
X003150Y000787D03*
X006299Y000787D03*
X007874Y000787D03*
X009449Y000787D03*
X010236Y001575D03*
X011024Y000787D03*
X011811Y001575D03*
X012598Y002362D03*
X013386Y001575D03*
X014173Y002362D03*
X013780Y002756D03*
X014961Y003150D03*
X015748Y003937D03*
X016535Y003150D03*
X015748Y002362D03*
X014961Y001575D03*
X015748Y000787D03*
X016535Y001575D03*
X017323Y002362D03*
X018110Y001575D03*
X017323Y000787D03*
X018898Y000787D03*
X019685Y001575D03*
X018898Y002362D03*
X019685Y003150D03*
X018898Y003937D03*
X018110Y003150D03*
X017323Y003937D03*
X018110Y004724D03*
X017323Y005512D03*
X016535Y004724D03*
X015748Y005512D03*
X014961Y004724D03*
X014173Y005512D03*
X013386Y004724D03*
X012943Y005463D03*
X012943Y005758D03*
X012943Y006053D03*
X012648Y006053D03*
X012648Y005758D03*
X012648Y005463D03*
X012352Y005463D03*
X012352Y005758D03*
X012352Y006053D03*
X011417Y005807D03*
X011122Y005807D03*
X010728Y006890D03*
X009350Y007677D03*
X009055Y007677D03*
X008760Y007677D03*
X008760Y007972D03*
X009055Y007972D03*
X009350Y007972D03*
X009547Y009055D03*
X010138Y009055D03*
X010138Y009646D03*
X009547Y009646D03*
X009252Y010728D03*
X009252Y011024D03*
X009941Y011122D03*
X009941Y011417D03*
X010433Y011417D03*
X010433Y011122D03*
X011073Y010728D03*
X011368Y010728D03*
X012254Y010138D03*
X012549Y009843D03*
X012844Y010138D03*
X013140Y009843D03*
X012844Y009547D03*
X012549Y009252D03*
X012254Y009547D03*
X011909Y008711D03*
X013140Y009252D03*
X013780Y008563D03*
X014567Y009350D03*
X015354Y008563D03*
X014567Y007776D03*
X015354Y006988D03*
X016142Y007776D03*
X016929Y008563D03*
X016142Y009350D03*
X016929Y010138D03*
X016142Y010925D03*
X016929Y011713D03*
X017717Y010925D03*
X018504Y010138D03*
X019291Y010925D03*
X018504Y011713D03*
X018553Y012697D03*
X018258Y012992D03*
X017963Y012697D03*
X017667Y012992D03*
X017372Y012697D03*
X017077Y012992D03*
X016781Y012697D03*
X016486Y012992D03*
X016191Y012697D03*
X015896Y012992D03*
X015600Y012697D03*
X015305Y012992D03*
X015010Y012697D03*
X014715Y012992D03*
X014419Y012697D03*
X014124Y012992D03*
X012844Y012894D03*
X012549Y012894D03*
X012549Y013189D03*
X012254Y013189D03*
X012254Y012894D03*
X012844Y013189D03*
X012549Y012156D03*
X012943Y010630D03*
X013238Y010630D03*
X013780Y010138D03*
X015354Y010138D03*
X017717Y009350D03*
X018504Y008563D03*
X019291Y009350D03*
X020079Y008563D03*
X020866Y009350D03*
X021654Y008563D03*
X020866Y007776D03*
X020079Y006988D03*
X019291Y007776D03*
X018504Y006988D03*
X017717Y007776D03*
X016929Y006988D03*
X018898Y005512D03*
X019685Y004724D03*
X020472Y005512D03*
X021260Y004724D03*
X020472Y003937D03*
X021260Y003150D03*
X022047Y002362D03*
X021260Y001575D03*
X020472Y002362D03*
X020472Y000787D03*
X022047Y000787D03*
X022835Y001575D03*
X023622Y002362D03*
X024409Y001575D03*
X023622Y000787D03*
X025197Y000787D03*
X025984Y001575D03*
X025197Y002362D03*
X025984Y003150D03*
X025197Y003937D03*
X024409Y003150D03*
X023622Y003937D03*
X022835Y003150D03*
X022835Y004724D03*
X023622Y005512D03*
X024409Y004724D03*
X025197Y005512D03*
X025984Y004724D03*
X026772Y005512D03*
X027559Y004724D03*
X028346Y005512D03*
X029134Y004724D03*
X029921Y005512D03*
X030709Y004724D03*
X029921Y003937D03*
X029134Y003150D03*
X028346Y003937D03*
X027559Y003150D03*
X026772Y003937D03*
X026772Y002362D03*
X027559Y001575D03*
X028346Y002362D03*
X028346Y000787D03*
X026772Y000787D03*
X030709Y003150D03*
X027953Y006988D03*
X028740Y007776D03*
X027953Y008563D03*
X028740Y009350D03*
X029528Y008563D03*
X030315Y009350D03*
X029528Y010138D03*
X030315Y010925D03*
X029528Y011713D03*
X030315Y012500D03*
X029528Y013287D03*
X028740Y012500D03*
X027953Y011713D03*
X027165Y012500D03*
X026378Y011713D03*
X025591Y012500D03*
X026378Y013287D03*
X027165Y014075D03*
X026378Y014862D03*
X025591Y014075D03*
X024803Y014862D03*
X024016Y014075D03*
X023228Y014862D03*
X021506Y014911D03*
X021211Y014616D03*
X021506Y014321D03*
X021211Y014026D03*
X020915Y014321D03*
X020620Y014616D03*
X020325Y014321D03*
X020620Y014026D03*
X020325Y013730D03*
X020030Y014026D03*
X020030Y014616D03*
X020325Y014911D03*
X020620Y015207D03*
X020915Y014911D03*
X021211Y015207D03*
X020030Y015207D03*
X018898Y014469D03*
X018898Y014173D03*
X018848Y012992D03*
X019144Y012697D03*
X019439Y012992D03*
X019734Y012697D03*
X020030Y012992D03*
X020325Y012697D03*
X020620Y012992D03*
X020915Y012697D03*
X021211Y012992D03*
X021506Y012697D03*
X021654Y011713D03*
X020866Y010925D03*
X020079Y010138D03*
X021654Y010138D03*
X023228Y010138D03*
X024016Y010925D03*
X024803Y010138D03*
X025591Y010925D03*
X026378Y010138D03*
X027165Y010925D03*
X027953Y010138D03*
X028740Y010925D03*
X027165Y009350D03*
X026378Y008563D03*
X027165Y007776D03*
X026378Y006988D03*
X025591Y007776D03*
X024803Y008563D03*
X024016Y009350D03*
X023228Y008563D03*
X024016Y007776D03*
X024803Y006988D03*
X023228Y006988D03*
X021654Y006988D03*
X025591Y009350D03*
X024803Y011713D03*
X024016Y012500D03*
X024803Y013287D03*
X023228Y013287D03*
X023228Y011713D03*
X021506Y013730D03*
X020915Y013730D03*
X020079Y011713D03*
X015846Y014173D03*
X015846Y014469D03*
X015896Y015945D03*
X016289Y016339D03*
X015896Y016732D03*
X016289Y017126D03*
X015896Y017520D03*
X016289Y017913D03*
X016683Y017520D03*
X017077Y017913D03*
X017470Y017520D03*
X017077Y017126D03*
X017470Y016732D03*
X017077Y016339D03*
X016683Y016732D03*
X016683Y015945D03*
X017470Y015945D03*
X017864Y016339D03*
X018258Y016732D03*
X018652Y016339D03*
X018258Y015945D03*
X018652Y017126D03*
X018258Y017520D03*
X018652Y017913D03*
X018258Y018307D03*
X018652Y018701D03*
X018504Y019193D03*
X017864Y018701D03*
X017470Y018307D03*
X017077Y018701D03*
X016929Y019193D03*
X016289Y018701D03*
X015896Y018307D03*
X016683Y018307D03*
X017864Y017913D03*
X017864Y017126D03*
X015354Y017618D03*
X014173Y018258D03*
X013878Y018258D03*
X015354Y019193D03*
X016142Y019980D03*
X016929Y020768D03*
X016142Y021555D03*
X016929Y022343D03*
X016142Y023130D03*
X016929Y023917D03*
X017717Y023130D03*
X018504Y023917D03*
X019291Y023130D03*
X018504Y022343D03*
X017717Y021555D03*
X018504Y020768D03*
X017717Y019980D03*
X015354Y020768D03*
X014173Y021211D03*
X013878Y021211D03*
X013780Y022343D03*
X014567Y023130D03*
X015354Y023917D03*
X014567Y024705D03*
X015354Y025492D03*
X014567Y026280D03*
X015354Y027067D03*
X016142Y026280D03*
X016929Y025492D03*
X016142Y024705D03*
X017717Y024705D03*
X018504Y025492D03*
X019291Y024705D03*
X019291Y026280D03*
X018504Y027067D03*
X017717Y026280D03*
X017717Y027854D03*
X018504Y028642D03*
X019291Y029429D03*
X018504Y030217D03*
X017717Y029429D03*
X016929Y028642D03*
X016142Y029429D03*
X015354Y028642D03*
X014567Y029429D03*
X013780Y028642D03*
X014567Y027854D03*
X013780Y027067D03*
X013780Y025492D03*
X013780Y023917D03*
X012205Y023917D03*
X011417Y023130D03*
X010630Y023917D03*
X009843Y023130D03*
X010630Y022343D03*
X011417Y021555D03*
X011220Y021063D03*
X010827Y020669D03*
X011220Y020276D03*
X010827Y019882D03*
X011220Y019488D03*
X010827Y019094D03*
X011220Y018701D03*
X010827Y018307D03*
X010433Y018701D03*
X010039Y019094D03*
X009646Y018701D03*
X010039Y018307D03*
X009055Y017618D03*
X008268Y016831D03*
X007480Y017618D03*
X006693Y016831D03*
X005906Y017618D03*
X006693Y018406D03*
X007480Y019193D03*
X006693Y019980D03*
X005906Y019193D03*
X005118Y019980D03*
X004331Y019193D03*
X005118Y018406D03*
X004331Y017618D03*
X005118Y016831D03*
X003543Y016831D03*
X002756Y017618D03*
X003543Y018406D03*
X002756Y019193D03*
X003543Y019980D03*
X002756Y020768D03*
X003543Y021555D03*
X002756Y022343D03*
X003543Y023130D03*
X002756Y023917D03*
X003543Y024705D03*
X002756Y025492D03*
X003543Y026280D03*
X002756Y027067D03*
X004331Y025492D03*
X005118Y024705D03*
X005906Y025492D03*
X006693Y024705D03*
X007480Y025492D03*
X006693Y026280D03*
X008268Y026280D03*
X009055Y025492D03*
X008268Y024705D03*
X009055Y023917D03*
X008268Y023130D03*
X009055Y022343D03*
X008268Y021555D03*
X009055Y020768D03*
X009646Y021063D03*
X010039Y020669D03*
X009646Y020276D03*
X010039Y019882D03*
X009646Y019488D03*
X009055Y019193D03*
X008268Y019980D03*
X007480Y020768D03*
X006693Y021555D03*
X005906Y020768D03*
X005118Y021555D03*
X004331Y020768D03*
X004331Y022343D03*
X005118Y023130D03*
X004331Y023917D03*
X005906Y023917D03*
X006693Y023130D03*
X007480Y023917D03*
X007480Y022343D03*
X005906Y022343D03*
X009843Y021555D03*
X010433Y021063D03*
X010433Y020276D03*
X010433Y019488D03*
X011614Y019094D03*
X012008Y018701D03*
X012402Y019094D03*
X012008Y019488D03*
X012402Y019882D03*
X012008Y020276D03*
X012402Y020669D03*
X012008Y021063D03*
X011614Y020669D03*
X011614Y019882D03*
X011929Y017421D03*
X011929Y016791D03*
X009843Y016831D03*
X008268Y018406D03*
X007677Y014469D03*
X007382Y014469D03*
X007382Y014173D03*
X007382Y013878D03*
X007677Y013878D03*
X007677Y014173D03*
X007677Y013583D03*
X007382Y013583D03*
X007382Y013287D03*
X007382Y012992D03*
X007382Y012697D03*
X007677Y012697D03*
X007677Y012992D03*
X007677Y013287D03*
X007972Y013287D03*
X007972Y012992D03*
X007972Y012697D03*
X008268Y012697D03*
X008563Y012697D03*
X008563Y012992D03*
X008268Y012992D03*
X008268Y013287D03*
X008563Y013287D03*
X009843Y012106D03*
X010138Y012106D03*
X006988Y009154D03*
X006693Y009154D03*
X006693Y008858D03*
X006988Y008858D03*
X007776Y008071D03*
X007579Y007185D03*
X007874Y006102D03*
X007874Y004724D03*
X007874Y004429D03*
X007874Y004134D03*
X007874Y003839D03*
X007874Y003543D03*
X007874Y003248D03*
X007874Y002953D03*
X008169Y004429D03*
X008169Y004724D03*
X008465Y004724D03*
X008465Y004429D03*
X009449Y004429D03*
X009744Y004429D03*
X009744Y004724D03*
X009449Y004724D03*
X009449Y005020D03*
X009744Y005020D03*
X012943Y007283D03*
X013238Y007283D03*
X014173Y003937D03*
X014173Y000787D03*
X012598Y000787D03*
X005413Y005217D03*
X004429Y005315D03*
X004429Y005020D03*
X002362Y007087D03*
X003150Y007874D03*
X002362Y008661D03*
X003150Y009449D03*
X004626Y009400D03*
X004921Y009400D03*
X004921Y009104D03*
X004626Y009104D03*
X004626Y008563D03*
X004921Y008563D03*
X004921Y008268D03*
X004626Y008268D03*
X004823Y010039D03*
X004921Y010728D03*
X004921Y011024D03*
X005413Y012008D03*
X003150Y012598D03*
X002362Y011811D03*
X003150Y011024D03*
X002362Y013386D03*
X012205Y022343D03*
X011417Y024705D03*
X010630Y025492D03*
X009843Y024705D03*
X009843Y026280D03*
X010630Y027067D03*
X011417Y026280D03*
X012205Y027067D03*
X011417Y027854D03*
X012205Y028642D03*
X012205Y030217D03*
X013780Y030217D03*
X015354Y030217D03*
X016142Y027854D03*
X019291Y027854D03*
X020079Y028642D03*
X020866Y029429D03*
X020079Y030217D03*
X021654Y030217D03*
X022441Y029429D03*
X023228Y028642D03*
X022441Y027854D03*
X021654Y028642D03*
X020866Y027854D03*
X020079Y027067D03*
X020866Y026280D03*
X021654Y027067D03*
X022441Y026280D03*
X023228Y027067D03*
X024016Y026280D03*
X024803Y027067D03*
X025591Y026280D03*
X026378Y027067D03*
X027165Y026280D03*
X027953Y027067D03*
X028740Y026280D03*
X029528Y027067D03*
X030315Y026280D03*
X029528Y025492D03*
X030315Y024705D03*
X029528Y023917D03*
X030315Y023130D03*
X028740Y023130D03*
X027953Y023917D03*
X027165Y023130D03*
X027165Y024705D03*
X027953Y025492D03*
X028740Y024705D03*
X028740Y027854D03*
X027953Y028642D03*
X027165Y029429D03*
X026378Y028642D03*
X025591Y029429D03*
X026378Y030217D03*
X027953Y030217D03*
X027165Y027854D03*
X025591Y027854D03*
X024803Y028642D03*
X024016Y029429D03*
X024803Y030217D03*
X023228Y030217D03*
X024016Y027854D03*
X030315Y027854D03*
X022539Y018504D03*
X022244Y018504D03*
X022244Y018209D03*
X022539Y018209D03*
X022539Y017913D03*
X022244Y017913D03*
X026378Y016437D03*
X027953Y014862D03*
X028740Y014075D03*
X029528Y014862D03*
X030315Y014075D03*
X030315Y015650D03*
X027953Y013287D03*
X015354Y016043D03*
X015354Y022343D03*
X012205Y025492D03*
X010630Y030217D03*
X009055Y030217D03*
X007480Y030217D03*
X005906Y030217D03*
X004331Y030217D03*
X005118Y026280D03*
D13*
X000394Y016355D02*
X000394Y000394D01*
X031102Y000394D01*
X031102Y022359D01*
X031102Y022359D01*
X030987Y022244D01*
X019127Y022244D01*
X019045Y022163D01*
X019045Y015027D01*
X018652Y014633D01*
X018536Y014518D01*
X016122Y014518D01*
X016122Y014414D01*
X016084Y014321D01*
X016122Y014228D01*
X016122Y014118D01*
X016080Y014017D01*
X016003Y013940D01*
X015901Y013898D01*
X015792Y013898D01*
X015690Y013940D01*
X015613Y014017D01*
X015571Y014118D01*
X015571Y014228D01*
X015609Y014321D01*
X015571Y014414D01*
X015571Y014518D01*
X013649Y014518D01*
X013514Y014653D01*
X013514Y014447D01*
X013843Y014118D01*
X013907Y013962D01*
X013907Y012170D01*
X013843Y012014D01*
X012859Y011030D01*
X012740Y010911D01*
X012584Y010846D01*
X011617Y010846D01*
X011644Y010783D01*
X011644Y010674D01*
X011602Y010572D01*
X011524Y010495D01*
X011423Y010453D01*
X011313Y010453D01*
X011220Y010491D01*
X011128Y010453D01*
X011018Y010453D01*
X010917Y010495D01*
X010839Y010572D01*
X010797Y010674D01*
X010797Y010783D01*
X010823Y010846D01*
X010349Y010846D01*
X010193Y010911D01*
X010156Y010948D01*
X010097Y010888D01*
X009996Y010846D01*
X009886Y010846D01*
X009785Y010888D01*
X009707Y010966D01*
X009665Y011067D01*
X009665Y011177D01*
X009704Y011270D01*
X009665Y011363D01*
X009665Y011472D01*
X009707Y011573D01*
X009785Y011651D01*
X009886Y011693D01*
X009996Y011693D01*
X010097Y011651D01*
X010156Y011592D01*
X010193Y011628D01*
X010349Y011693D01*
X012325Y011693D01*
X012512Y011880D01*
X012494Y011880D01*
X012393Y011922D01*
X012316Y011999D01*
X012274Y012101D01*
X012274Y012125D01*
X012213Y012185D01*
X010403Y012185D01*
X010413Y012161D01*
X010413Y012051D01*
X010371Y011950D01*
X010294Y011873D01*
X010193Y011831D01*
X010083Y011831D01*
X009990Y011869D01*
X009897Y011831D01*
X009788Y011831D01*
X009686Y011873D01*
X009609Y011950D01*
X009567Y012051D01*
X009567Y012161D01*
X009577Y012185D01*
X007068Y012185D01*
X006800Y012453D01*
X006673Y012580D01*
X006673Y014674D01*
X005914Y015433D01*
X002765Y015433D01*
X001958Y016240D01*
X001389Y016240D01*
X002452Y015177D01*
X005798Y015177D01*
X006487Y014488D01*
X006614Y014361D01*
X006614Y010621D01*
X006979Y010256D01*
X010670Y010256D01*
X010797Y010129D01*
X011940Y008986D01*
X011964Y008986D01*
X012066Y008944D01*
X012143Y008867D01*
X012185Y008765D01*
X012185Y008656D01*
X012143Y008555D01*
X012066Y008477D01*
X011964Y008435D01*
X011855Y008435D01*
X011753Y008477D01*
X011676Y008555D01*
X011634Y008656D01*
X011634Y008680D01*
X010491Y009823D01*
X006800Y009823D01*
X006181Y010442D01*
X006181Y014182D01*
X005619Y014744D01*
X002273Y014744D01*
X000993Y016024D01*
X000866Y016150D01*
X000866Y016240D01*
X000672Y016240D01*
X000509Y016240D01*
X000394Y016355D01*
X000394Y016298D02*
X000451Y016298D01*
X000394Y016220D02*
X000866Y016220D01*
X000873Y016143D02*
X000394Y016143D01*
X000394Y016066D02*
X000951Y016066D01*
X001028Y015989D02*
X000394Y015989D01*
X000394Y015912D02*
X001105Y015912D01*
X001182Y015834D02*
X000394Y015834D01*
X000394Y015757D02*
X001260Y015757D01*
X001337Y015680D02*
X000394Y015680D01*
X000394Y015603D02*
X001414Y015603D01*
X001491Y015525D02*
X000394Y015525D01*
X000394Y015448D02*
X001569Y015448D01*
X001646Y015371D02*
X000394Y015371D01*
X000394Y015294D02*
X001723Y015294D01*
X001800Y015216D02*
X000394Y015216D01*
X000394Y015139D02*
X001877Y015139D01*
X001955Y015062D02*
X000394Y015062D01*
X000394Y014985D02*
X002032Y014985D01*
X002109Y014907D02*
X000394Y014907D01*
X000394Y014830D02*
X002186Y014830D01*
X002264Y014753D02*
X000394Y014753D01*
X000394Y014676D02*
X005687Y014676D01*
X005765Y014598D02*
X002177Y014598D01*
X002236Y014574D02*
X002062Y014646D01*
X001875Y014646D01*
X001701Y014574D01*
X001568Y014441D01*
X001496Y014267D01*
X001496Y014079D01*
X001568Y013906D01*
X001701Y013773D01*
X001875Y013701D01*
X002062Y013701D01*
X002236Y013773D01*
X002369Y013906D01*
X002441Y014079D01*
X002441Y014267D01*
X002369Y014441D01*
X002236Y014574D01*
X002289Y014521D02*
X005842Y014521D01*
X005919Y014444D02*
X002366Y014444D01*
X002400Y014367D02*
X005996Y014367D01*
X006074Y014289D02*
X002432Y014289D01*
X002441Y014212D02*
X006151Y014212D01*
X006181Y014135D02*
X002441Y014135D01*
X002432Y014058D02*
X006181Y014058D01*
X006181Y013981D02*
X002400Y013981D01*
X002367Y013903D02*
X006181Y013903D01*
X006181Y013826D02*
X002289Y013826D01*
X002178Y013749D02*
X006181Y013749D01*
X006181Y013672D02*
X000394Y013672D01*
X000394Y013749D02*
X001759Y013749D01*
X001648Y013826D02*
X000394Y013826D01*
X000394Y013903D02*
X001570Y013903D01*
X001537Y013981D02*
X000394Y013981D01*
X000394Y014058D02*
X001505Y014058D01*
X001496Y014135D02*
X000394Y014135D01*
X000394Y014212D02*
X001496Y014212D01*
X001505Y014289D02*
X000394Y014289D01*
X000394Y014367D02*
X001537Y014367D01*
X001571Y014444D02*
X000394Y014444D01*
X000394Y014521D02*
X001648Y014521D01*
X001761Y014598D02*
X000394Y014598D01*
X000394Y013594D02*
X006181Y013594D01*
X006181Y013517D02*
X000394Y013517D01*
X000394Y013440D02*
X006181Y013440D01*
X006181Y013363D02*
X000394Y013363D01*
X000394Y013285D02*
X006181Y013285D01*
X006181Y013208D02*
X000394Y013208D01*
X000394Y013131D02*
X006181Y013131D01*
X006181Y013054D02*
X000394Y013054D01*
X000394Y012976D02*
X006181Y012976D01*
X006181Y012899D02*
X000394Y012899D01*
X000394Y012822D02*
X006181Y012822D01*
X006181Y012745D02*
X000394Y012745D01*
X000394Y012667D02*
X006181Y012667D01*
X006181Y012590D02*
X000394Y012590D01*
X000394Y012513D02*
X006181Y012513D01*
X006181Y012436D02*
X000394Y012436D01*
X000394Y012358D02*
X006181Y012358D01*
X006181Y012281D02*
X005474Y012281D01*
X005468Y012283D02*
X005359Y012283D01*
X005257Y012242D01*
X005180Y012164D01*
X005138Y012063D01*
X005138Y011953D01*
X005180Y011852D01*
X005257Y011774D01*
X005359Y011732D01*
X005468Y011732D01*
X005569Y011774D01*
X005647Y011852D01*
X005689Y011953D01*
X005689Y012063D01*
X005647Y012164D01*
X005569Y012242D01*
X005468Y012283D01*
X005353Y012281D02*
X000394Y012281D01*
X000394Y012204D02*
X005220Y012204D01*
X005164Y012127D02*
X000394Y012127D01*
X000394Y012050D02*
X005138Y012050D01*
X005138Y011972D02*
X000394Y011972D01*
X000394Y011895D02*
X005162Y011895D01*
X005214Y011818D02*
X000394Y011818D01*
X000394Y011741D02*
X005339Y011741D01*
X005488Y011741D02*
X006181Y011741D01*
X006181Y011818D02*
X005613Y011818D01*
X005665Y011895D02*
X006181Y011895D01*
X006181Y011972D02*
X005689Y011972D01*
X005689Y012050D02*
X006181Y012050D01*
X006181Y012127D02*
X005662Y012127D01*
X005607Y012204D02*
X006181Y012204D01*
X006614Y012204D02*
X007049Y012204D01*
X006972Y012281D02*
X006614Y012281D01*
X006614Y012358D02*
X006894Y012358D01*
X006817Y012436D02*
X006614Y012436D01*
X006614Y012513D02*
X006740Y012513D01*
X006673Y012590D02*
X006614Y012590D01*
X006614Y012667D02*
X006673Y012667D01*
X006673Y012745D02*
X006614Y012745D01*
X006614Y012822D02*
X006673Y012822D01*
X006673Y012899D02*
X006614Y012899D01*
X006614Y012976D02*
X006673Y012976D01*
X006673Y013054D02*
X006614Y013054D01*
X006614Y013131D02*
X006673Y013131D01*
X006673Y013208D02*
X006614Y013208D01*
X006614Y013285D02*
X006673Y013285D01*
X006673Y013363D02*
X006614Y013363D01*
X006614Y013440D02*
X006673Y013440D01*
X006673Y013517D02*
X006614Y013517D01*
X006614Y013594D02*
X006673Y013594D01*
X006673Y013672D02*
X006614Y013672D01*
X006614Y013749D02*
X006673Y013749D01*
X006673Y013826D02*
X006614Y013826D01*
X006614Y013903D02*
X006673Y013903D01*
X006673Y013981D02*
X006614Y013981D01*
X006614Y014058D02*
X006673Y014058D01*
X006673Y014135D02*
X006614Y014135D01*
X006614Y014212D02*
X006673Y014212D01*
X006673Y014289D02*
X006614Y014289D01*
X006609Y014367D02*
X006673Y014367D01*
X006673Y014444D02*
X006532Y014444D01*
X006454Y014521D02*
X006673Y014521D01*
X006673Y014598D02*
X006377Y014598D01*
X006300Y014676D02*
X006672Y014676D01*
X006594Y014753D02*
X006223Y014753D01*
X006145Y014830D02*
X006517Y014830D01*
X006440Y014907D02*
X006068Y014907D01*
X005991Y014985D02*
X006363Y014985D01*
X006285Y015062D02*
X005914Y015062D01*
X005836Y015139D02*
X006208Y015139D01*
X006131Y015216D02*
X002413Y015216D01*
X002335Y015294D02*
X006054Y015294D01*
X005976Y015371D02*
X002258Y015371D01*
X002181Y015448D02*
X002750Y015448D01*
X002672Y015525D02*
X002104Y015525D01*
X002026Y015603D02*
X002595Y015603D01*
X002518Y015680D02*
X001949Y015680D01*
X001872Y015757D02*
X002441Y015757D01*
X002363Y015834D02*
X001795Y015834D01*
X001718Y015912D02*
X002286Y015912D01*
X002209Y015989D02*
X001640Y015989D01*
X001563Y016066D02*
X002132Y016066D01*
X002054Y016143D02*
X001486Y016143D01*
X001409Y016220D02*
X001977Y016220D01*
X001761Y016437D02*
X001299Y016437D01*
X001299Y022253D01*
X001823Y022777D01*
X001875Y022756D01*
X002062Y022756D01*
X002236Y022828D01*
X002369Y022961D01*
X002441Y023134D01*
X002441Y023322D01*
X002369Y023496D01*
X002236Y023629D01*
X002062Y023701D01*
X001875Y023701D01*
X001701Y023629D01*
X001568Y023496D01*
X001496Y023322D01*
X001496Y023134D01*
X001517Y023083D01*
X000866Y022432D01*
X000866Y016437D01*
X000591Y016437D01*
X000394Y016634D01*
X000394Y030906D01*
X000591Y031102D01*
X012451Y031102D01*
X012648Y030906D01*
X012648Y029683D01*
X012268Y030063D01*
X012149Y030182D01*
X011994Y030246D01*
X011630Y030246D01*
X011511Y030295D01*
X011323Y030295D01*
X011150Y030223D01*
X011017Y030090D01*
X010945Y029917D01*
X010945Y029729D01*
X011017Y029555D01*
X011150Y029422D01*
X011323Y029350D01*
X011511Y029350D01*
X011630Y029400D01*
X011734Y029400D01*
X012648Y028486D01*
X012648Y018012D01*
X011905Y018012D01*
X011905Y017667D01*
X011857Y017662D01*
X011811Y017647D01*
X011769Y017623D01*
X011732Y017592D01*
X011702Y017554D01*
X011680Y017511D01*
X011667Y017464D01*
X011663Y017416D01*
X011663Y017413D01*
X011668Y017363D01*
X011683Y017315D01*
X011707Y017270D01*
X011739Y017231D01*
X011778Y017199D01*
X011823Y017175D01*
X011871Y017160D01*
X011921Y017156D01*
X011971Y017160D01*
X012018Y017175D01*
X012062Y017198D01*
X012101Y017230D01*
X012132Y017268D01*
X012156Y017312D01*
X012170Y017360D01*
X012175Y017409D01*
X012175Y017411D01*
X012171Y017460D01*
X012158Y017508D01*
X012136Y017552D01*
X012105Y017590D01*
X012068Y017622D01*
X012025Y017646D01*
X011978Y017662D01*
X011929Y017667D01*
X011929Y017987D01*
X012648Y017987D01*
X012648Y016634D01*
X012451Y016437D01*
X002373Y016437D01*
X002185Y016625D01*
X002185Y018082D01*
X002236Y018103D01*
X002369Y018236D01*
X002441Y018410D01*
X002441Y018598D01*
X002369Y018772D01*
X002236Y018904D01*
X002062Y018976D01*
X001875Y018976D01*
X001701Y018904D01*
X001568Y018772D01*
X001496Y018598D01*
X001496Y018410D01*
X001568Y018236D01*
X001701Y018103D01*
X001752Y018082D01*
X001752Y016446D01*
X001761Y016437D01*
X001752Y016452D02*
X001299Y016452D01*
X001299Y016529D02*
X001752Y016529D01*
X001752Y016607D02*
X001299Y016607D01*
X001299Y016684D02*
X001752Y016684D01*
X001752Y016761D02*
X001299Y016761D01*
X001299Y016838D02*
X001752Y016838D01*
X001752Y016916D02*
X001299Y016916D01*
X001299Y016993D02*
X001752Y016993D01*
X001752Y017070D02*
X001299Y017070D01*
X001299Y017147D02*
X001752Y017147D01*
X001752Y017225D02*
X001299Y017225D01*
X001299Y017302D02*
X001752Y017302D01*
X001752Y017379D02*
X001299Y017379D01*
X001299Y017456D02*
X001752Y017456D01*
X001752Y017534D02*
X001299Y017534D01*
X001299Y017611D02*
X001752Y017611D01*
X001752Y017688D02*
X001299Y017688D01*
X001299Y017765D02*
X001752Y017765D01*
X001752Y017843D02*
X001299Y017843D01*
X001299Y017920D02*
X001752Y017920D01*
X001752Y017997D02*
X001299Y017997D01*
X001299Y018074D02*
X001752Y018074D01*
X001653Y018151D02*
X001299Y018151D01*
X001299Y018229D02*
X001576Y018229D01*
X001539Y018306D02*
X001299Y018306D01*
X001299Y018383D02*
X001507Y018383D01*
X001496Y018460D02*
X001299Y018460D01*
X001299Y018538D02*
X001496Y018538D01*
X001503Y018615D02*
X001299Y018615D01*
X001299Y018692D02*
X001535Y018692D01*
X001567Y018769D02*
X001299Y018769D01*
X001299Y018847D02*
X001643Y018847D01*
X001748Y018924D02*
X001299Y018924D01*
X001299Y019001D02*
X012648Y019001D01*
X012648Y018924D02*
X002189Y018924D01*
X002294Y018847D02*
X012648Y018847D01*
X012648Y018769D02*
X002370Y018769D01*
X002402Y018692D02*
X012648Y018692D01*
X012648Y018615D02*
X002434Y018615D01*
X002441Y018538D02*
X012648Y018538D01*
X012648Y018460D02*
X002441Y018460D01*
X002430Y018383D02*
X012648Y018383D01*
X012648Y018306D02*
X002398Y018306D01*
X002361Y018229D02*
X012648Y018229D01*
X012648Y018151D02*
X002284Y018151D01*
X002185Y018074D02*
X012648Y018074D01*
X012648Y017920D02*
X011929Y017920D01*
X011905Y017920D02*
X002185Y017920D01*
X002185Y017997D02*
X011905Y017997D01*
X011905Y017843D02*
X002185Y017843D01*
X002185Y017765D02*
X011905Y017765D01*
X011929Y017765D02*
X012648Y017765D01*
X012648Y017688D02*
X011929Y017688D01*
X011905Y017688D02*
X002185Y017688D01*
X002185Y017611D02*
X011754Y017611D01*
X011692Y017534D02*
X002185Y017534D01*
X002185Y017456D02*
X011667Y017456D01*
X011667Y017379D02*
X002185Y017379D01*
X002185Y017302D02*
X011690Y017302D01*
X011747Y017225D02*
X002185Y017225D01*
X002185Y017147D02*
X012648Y017147D01*
X012648Y017070D02*
X002185Y017070D01*
X002185Y016993D02*
X011741Y016993D01*
X011773Y017025D02*
X011695Y016947D01*
X011654Y016846D01*
X011654Y016737D01*
X011695Y016635D01*
X011773Y016558D01*
X011874Y016516D01*
X011984Y016516D01*
X012085Y016558D01*
X012163Y016635D01*
X012205Y016737D01*
X012205Y016846D01*
X012163Y016947D01*
X012085Y017025D01*
X011984Y017067D01*
X011874Y017067D01*
X011773Y017025D01*
X011682Y016916D02*
X002185Y016916D01*
X002185Y016838D02*
X011654Y016838D01*
X011654Y016761D02*
X002185Y016761D01*
X002185Y016684D02*
X011675Y016684D01*
X011724Y016607D02*
X002203Y016607D01*
X002281Y016529D02*
X011841Y016529D01*
X012017Y016529D02*
X012543Y016529D01*
X012466Y016452D02*
X002358Y016452D01*
X002570Y016240D02*
X012532Y016240D01*
X012648Y016355D01*
X012667Y016375D01*
X012667Y016375D01*
X012667Y014187D01*
X012732Y014032D01*
X012851Y013913D01*
X013061Y013703D01*
X013061Y012429D01*
X012825Y012193D01*
X012825Y012210D01*
X012783Y012312D01*
X012705Y012389D01*
X012604Y012431D01*
X012580Y012431D01*
X012393Y012618D01*
X007247Y012618D01*
X007106Y012759D01*
X007106Y014853D01*
X006979Y014980D01*
X006220Y015739D01*
X006220Y015739D01*
X006094Y015866D01*
X002944Y015866D01*
X002570Y016240D01*
X002590Y016220D02*
X012667Y016220D01*
X012667Y016143D02*
X002667Y016143D01*
X002744Y016066D02*
X012667Y016066D01*
X012667Y015989D02*
X002821Y015989D01*
X002899Y015912D02*
X012667Y015912D01*
X012667Y015834D02*
X006125Y015834D01*
X006203Y015757D02*
X012667Y015757D01*
X012667Y015680D02*
X006280Y015680D01*
X006357Y015603D02*
X012667Y015603D01*
X012667Y015525D02*
X006434Y015525D01*
X006512Y015448D02*
X012667Y015448D01*
X012667Y015371D02*
X006589Y015371D01*
X006666Y015294D02*
X012667Y015294D01*
X012667Y015216D02*
X006743Y015216D01*
X006821Y015139D02*
X012667Y015139D01*
X012667Y015062D02*
X006898Y015062D01*
X006975Y014985D02*
X012667Y014985D01*
X012667Y014907D02*
X007052Y014907D01*
X007106Y014830D02*
X012667Y014830D01*
X012667Y014753D02*
X007106Y014753D01*
X007106Y014676D02*
X012667Y014676D01*
X012667Y014598D02*
X007106Y014598D01*
X007106Y014521D02*
X012667Y014521D01*
X012667Y014444D02*
X007106Y014444D01*
X007106Y014367D02*
X012667Y014367D01*
X012667Y014289D02*
X007106Y014289D01*
X007106Y014212D02*
X012667Y014212D01*
X012689Y014135D02*
X007106Y014135D01*
X007106Y014058D02*
X012721Y014058D01*
X012783Y013981D02*
X007106Y013981D01*
X007106Y013903D02*
X012860Y013903D01*
X012938Y013826D02*
X007106Y013826D01*
X007106Y013749D02*
X013015Y013749D01*
X013061Y013672D02*
X007106Y013672D01*
X007106Y013594D02*
X013061Y013594D01*
X013061Y013517D02*
X007106Y013517D01*
X007106Y013440D02*
X013061Y013440D01*
X013061Y013363D02*
X007106Y013363D01*
X007106Y013285D02*
X013061Y013285D01*
X013061Y013208D02*
X007106Y013208D01*
X007106Y013131D02*
X013061Y013131D01*
X013061Y013054D02*
X007106Y013054D01*
X007106Y012976D02*
X013061Y012976D01*
X013061Y012899D02*
X007106Y012899D01*
X007106Y012822D02*
X013061Y012822D01*
X013061Y012745D02*
X007121Y012745D01*
X007198Y012667D02*
X013061Y012667D01*
X013061Y012590D02*
X012421Y012590D01*
X012498Y012513D02*
X013061Y012513D01*
X013061Y012436D02*
X012575Y012436D01*
X012736Y012358D02*
X012990Y012358D01*
X012913Y012281D02*
X012795Y012281D01*
X012825Y012204D02*
X012836Y012204D01*
X012458Y011895D02*
X010316Y011895D01*
X010381Y011972D02*
X012343Y011972D01*
X012295Y012050D02*
X010413Y012050D01*
X010413Y012127D02*
X012272Y012127D01*
X012450Y011818D02*
X006614Y011818D01*
X006614Y011895D02*
X009664Y011895D01*
X009600Y011972D02*
X006614Y011972D01*
X006614Y012050D02*
X009568Y012050D01*
X009567Y012127D02*
X006614Y012127D01*
X006614Y011741D02*
X012372Y011741D01*
X012951Y011123D02*
X022077Y011123D01*
X022077Y011200D02*
X013029Y011200D01*
X013106Y011277D02*
X022077Y011277D01*
X022077Y011354D02*
X013183Y011354D01*
X013260Y011432D02*
X022077Y011432D01*
X022077Y011509D02*
X013338Y011509D01*
X013415Y011586D02*
X022077Y011586D01*
X022077Y011663D02*
X013492Y011663D01*
X013569Y011741D02*
X022077Y011741D01*
X022077Y011818D02*
X013647Y011818D01*
X013724Y011895D02*
X022077Y011895D01*
X022077Y011972D02*
X013801Y011972D01*
X013858Y012050D02*
X022077Y012050D01*
X022077Y012127D02*
X013890Y012127D01*
X013907Y012204D02*
X022077Y012204D01*
X022077Y012281D02*
X013907Y012281D01*
X013907Y012358D02*
X022077Y012358D01*
X022077Y012436D02*
X013907Y012436D01*
X013907Y012513D02*
X022077Y012513D01*
X022077Y012590D02*
X013907Y012590D01*
X013907Y012667D02*
X022077Y012667D01*
X022077Y012745D02*
X013907Y012745D01*
X013907Y012822D02*
X022077Y012822D01*
X022077Y012899D02*
X013907Y012899D01*
X013907Y012976D02*
X022077Y012976D01*
X022077Y013054D02*
X013907Y013054D01*
X013907Y013131D02*
X022077Y013131D01*
X022077Y013208D02*
X013907Y013208D01*
X013907Y013285D02*
X022077Y013285D01*
X022077Y013363D02*
X013907Y013363D01*
X013907Y013440D02*
X022077Y013440D01*
X022077Y013517D02*
X013907Y013517D01*
X013907Y013594D02*
X022077Y013594D01*
X022077Y013672D02*
X013907Y013672D01*
X013907Y013749D02*
X022077Y013749D01*
X022077Y013826D02*
X013907Y013826D01*
X013907Y013903D02*
X015778Y013903D01*
X015915Y013903D02*
X018829Y013903D01*
X018843Y013898D02*
X018952Y013898D01*
X019054Y013940D01*
X019131Y014017D01*
X019173Y014118D01*
X019173Y014228D01*
X019135Y014321D01*
X019173Y014414D01*
X019173Y014523D01*
X019131Y014625D01*
X019054Y014702D01*
X018952Y014744D01*
X018843Y014744D01*
X018742Y014702D01*
X018664Y014625D01*
X018622Y014523D01*
X018622Y014414D01*
X018660Y014321D01*
X018622Y014228D01*
X018622Y014118D01*
X018664Y014017D01*
X018742Y013940D01*
X018843Y013898D01*
X018966Y013903D02*
X022077Y013903D01*
X022077Y013981D02*
X019095Y013981D01*
X019148Y014058D02*
X022077Y014058D01*
X022077Y014135D02*
X019173Y014135D01*
X019173Y014212D02*
X022077Y014212D01*
X022077Y014289D02*
X019148Y014289D01*
X019154Y014367D02*
X022077Y014367D01*
X022077Y014444D02*
X019173Y014444D01*
X019173Y014521D02*
X022077Y014521D01*
X022077Y014598D02*
X019142Y014598D01*
X019080Y014676D02*
X022077Y014676D01*
X022077Y014753D02*
X018771Y014753D01*
X018715Y014676D02*
X018694Y014676D01*
X018653Y014598D02*
X018617Y014598D01*
X018622Y014521D02*
X018540Y014521D01*
X018622Y014444D02*
X016122Y014444D01*
X016103Y014367D02*
X018642Y014367D01*
X018647Y014289D02*
X016097Y014289D01*
X016122Y014212D02*
X018622Y014212D01*
X018622Y014135D02*
X016122Y014135D01*
X016097Y014058D02*
X018647Y014058D01*
X018701Y013981D02*
X016043Y013981D01*
X015649Y013981D02*
X013900Y013981D01*
X013868Y014058D02*
X015596Y014058D01*
X015571Y014135D02*
X013826Y014135D01*
X013749Y014212D02*
X015571Y014212D01*
X015596Y014289D02*
X013671Y014289D01*
X013594Y014367D02*
X015590Y014367D01*
X015571Y014444D02*
X013517Y014444D01*
X013514Y014521D02*
X013645Y014521D01*
X013568Y014598D02*
X013514Y014598D01*
X013692Y014753D02*
X018493Y014753D01*
X018455Y014715D02*
X015973Y014715D01*
X015901Y014744D01*
X015792Y014744D01*
X015720Y014715D01*
X013730Y014715D01*
X013533Y014911D01*
X013533Y030906D01*
X013730Y031102D01*
X030906Y031102D01*
X031102Y030906D01*
X031102Y022638D01*
X030906Y022441D01*
X019045Y022441D01*
X018848Y022244D01*
X018848Y015108D01*
X018455Y014715D01*
X018570Y014830D02*
X013615Y014830D01*
X013537Y014907D02*
X018648Y014907D01*
X018725Y014985D02*
X013533Y014985D01*
X013533Y015062D02*
X018802Y015062D01*
X018848Y015139D02*
X013533Y015139D01*
X013533Y015216D02*
X018848Y015216D01*
X018848Y015294D02*
X013533Y015294D01*
X013533Y015371D02*
X018848Y015371D01*
X018848Y015448D02*
X013533Y015448D01*
X013533Y015525D02*
X018848Y015525D01*
X018848Y015603D02*
X013533Y015603D01*
X013533Y015680D02*
X018848Y015680D01*
X018848Y015757D02*
X013533Y015757D01*
X013533Y015834D02*
X018848Y015834D01*
X018848Y015912D02*
X013533Y015912D01*
X013533Y015989D02*
X018848Y015989D01*
X018848Y016066D02*
X013533Y016066D01*
X013533Y016143D02*
X018848Y016143D01*
X018848Y016220D02*
X013533Y016220D01*
X013533Y016298D02*
X018848Y016298D01*
X018848Y016375D02*
X013533Y016375D01*
X013533Y016452D02*
X018848Y016452D01*
X018848Y016529D02*
X013533Y016529D01*
X013533Y016607D02*
X018848Y016607D01*
X018848Y016684D02*
X013533Y016684D01*
X013533Y016761D02*
X018848Y016761D01*
X018848Y016838D02*
X013533Y016838D01*
X013533Y016916D02*
X018848Y016916D01*
X018848Y016993D02*
X013533Y016993D01*
X013533Y017070D02*
X018848Y017070D01*
X018848Y017147D02*
X013533Y017147D01*
X013533Y017225D02*
X018848Y017225D01*
X018848Y017302D02*
X013533Y017302D01*
X013533Y017379D02*
X018848Y017379D01*
X018848Y017456D02*
X013533Y017456D01*
X013533Y017534D02*
X018848Y017534D01*
X018848Y017611D02*
X013533Y017611D01*
X013533Y017688D02*
X018848Y017688D01*
X018848Y017765D02*
X013533Y017765D01*
X013533Y017843D02*
X018848Y017843D01*
X018848Y017920D02*
X013533Y017920D01*
X013533Y017997D02*
X013788Y017997D01*
X013823Y017982D02*
X013933Y017982D01*
X014026Y018021D01*
X014118Y017982D01*
X014228Y017982D01*
X014329Y018024D01*
X014407Y018102D01*
X014449Y018203D01*
X014449Y018313D01*
X014407Y018414D01*
X014329Y018492D01*
X014228Y018533D01*
X014118Y018533D01*
X014026Y018495D01*
X013933Y018533D01*
X013823Y018533D01*
X013722Y018492D01*
X013644Y018414D01*
X013602Y018313D01*
X013602Y018203D01*
X013644Y018102D01*
X013722Y018024D01*
X013823Y017982D01*
X013968Y017997D02*
X014083Y017997D01*
X014264Y017997D02*
X018848Y017997D01*
X018848Y018074D02*
X014379Y018074D01*
X014427Y018151D02*
X018848Y018151D01*
X018848Y018229D02*
X014449Y018229D01*
X014449Y018306D02*
X018848Y018306D01*
X018848Y018383D02*
X014420Y018383D01*
X014360Y018460D02*
X018848Y018460D01*
X018848Y018538D02*
X013533Y018538D01*
X013533Y018615D02*
X018848Y018615D01*
X018848Y018692D02*
X013533Y018692D01*
X013533Y018769D02*
X018848Y018769D01*
X018848Y018847D02*
X013533Y018847D01*
X013533Y018924D02*
X018848Y018924D01*
X018848Y019001D02*
X013533Y019001D01*
X013533Y019078D02*
X018848Y019078D01*
X018848Y019156D02*
X013533Y019156D01*
X013533Y019233D02*
X018848Y019233D01*
X018848Y019310D02*
X013533Y019310D01*
X013533Y019387D02*
X018848Y019387D01*
X018848Y019465D02*
X013533Y019465D01*
X013533Y019542D02*
X018848Y019542D01*
X018848Y019619D02*
X013533Y019619D01*
X013533Y019696D02*
X018848Y019696D01*
X018848Y019774D02*
X013533Y019774D01*
X013533Y019851D02*
X018848Y019851D01*
X018848Y019928D02*
X013533Y019928D01*
X013533Y020005D02*
X018848Y020005D01*
X018848Y020083D02*
X013533Y020083D01*
X013533Y020160D02*
X018848Y020160D01*
X018848Y020237D02*
X013533Y020237D01*
X013533Y020314D02*
X018848Y020314D01*
X018848Y020391D02*
X013533Y020391D01*
X013533Y020469D02*
X018848Y020469D01*
X018848Y020546D02*
X013533Y020546D01*
X013533Y020623D02*
X018848Y020623D01*
X018848Y020700D02*
X013533Y020700D01*
X013533Y020778D02*
X018848Y020778D01*
X018848Y020855D02*
X013533Y020855D01*
X013533Y020932D02*
X018848Y020932D01*
X018848Y021009D02*
X014362Y021009D01*
X014329Y020977D02*
X014407Y021055D01*
X014449Y021156D01*
X014449Y021265D01*
X014407Y021367D01*
X014329Y021444D01*
X014228Y021486D01*
X014118Y021486D01*
X014026Y021448D01*
X013933Y021486D01*
X013823Y021486D01*
X013722Y021444D01*
X013644Y021367D01*
X013602Y021265D01*
X013602Y021156D01*
X013644Y021055D01*
X013722Y020977D01*
X013823Y020935D01*
X013933Y020935D01*
X014026Y020973D01*
X014118Y020935D01*
X014228Y020935D01*
X014329Y020977D01*
X014420Y021087D02*
X018848Y021087D01*
X018848Y021164D02*
X014449Y021164D01*
X014449Y021241D02*
X018848Y021241D01*
X018848Y021318D02*
X014427Y021318D01*
X014378Y021396D02*
X018848Y021396D01*
X018848Y021473D02*
X014260Y021473D01*
X014086Y021473D02*
X013965Y021473D01*
X013791Y021473D02*
X013533Y021473D01*
X013533Y021550D02*
X018848Y021550D01*
X018848Y021627D02*
X013533Y021627D01*
X013533Y021705D02*
X018848Y021705D01*
X018848Y021782D02*
X013533Y021782D01*
X013533Y021859D02*
X018848Y021859D01*
X018848Y021936D02*
X013533Y021936D01*
X013533Y022014D02*
X018848Y022014D01*
X018848Y022091D02*
X013533Y022091D01*
X013533Y022168D02*
X018848Y022168D01*
X018850Y022245D02*
X013533Y022245D01*
X013533Y022322D02*
X018927Y022322D01*
X019004Y022400D02*
X013533Y022400D01*
X013533Y022477D02*
X030942Y022477D01*
X031019Y022554D02*
X013533Y022554D01*
X013533Y022631D02*
X031096Y022631D01*
X031102Y022709D02*
X013533Y022709D01*
X013533Y022786D02*
X031102Y022786D01*
X031102Y022863D02*
X013533Y022863D01*
X013533Y022940D02*
X031102Y022940D01*
X031102Y023018D02*
X013533Y023018D01*
X013533Y023095D02*
X031102Y023095D01*
X031102Y023172D02*
X013533Y023172D01*
X013533Y023249D02*
X031102Y023249D01*
X031102Y023327D02*
X013533Y023327D01*
X013533Y023404D02*
X031102Y023404D01*
X031102Y023481D02*
X013533Y023481D01*
X013533Y023558D02*
X031102Y023558D01*
X031102Y023636D02*
X013533Y023636D01*
X013533Y023713D02*
X031102Y023713D01*
X031102Y023790D02*
X013533Y023790D01*
X013533Y023867D02*
X031102Y023867D01*
X031102Y023945D02*
X013533Y023945D01*
X013533Y024022D02*
X031102Y024022D01*
X031102Y024099D02*
X013533Y024099D01*
X013533Y024176D02*
X031102Y024176D01*
X031102Y024253D02*
X013533Y024253D01*
X013533Y024331D02*
X031102Y024331D01*
X031102Y024408D02*
X013533Y024408D01*
X013533Y024485D02*
X031102Y024485D01*
X031102Y024562D02*
X013533Y024562D01*
X013533Y024640D02*
X031102Y024640D01*
X031102Y024717D02*
X013533Y024717D01*
X013533Y024794D02*
X031102Y024794D01*
X031102Y024871D02*
X013533Y024871D01*
X013533Y024949D02*
X031102Y024949D01*
X031102Y025026D02*
X013533Y025026D01*
X013533Y025103D02*
X031102Y025103D01*
X031102Y025180D02*
X013533Y025180D01*
X013533Y025258D02*
X031102Y025258D01*
X031102Y025335D02*
X013533Y025335D01*
X013533Y025412D02*
X031102Y025412D01*
X031102Y025489D02*
X013533Y025489D01*
X013533Y025567D02*
X031102Y025567D01*
X031102Y025644D02*
X013533Y025644D01*
X013533Y025721D02*
X031102Y025721D01*
X031102Y025798D02*
X013533Y025798D01*
X013533Y025876D02*
X031102Y025876D01*
X031102Y025953D02*
X013533Y025953D01*
X013533Y026030D02*
X031102Y026030D01*
X031102Y026107D02*
X013533Y026107D01*
X013533Y026184D02*
X031102Y026184D01*
X031102Y026262D02*
X013533Y026262D01*
X013533Y026339D02*
X031102Y026339D01*
X031102Y026416D02*
X013533Y026416D01*
X013533Y026493D02*
X031102Y026493D01*
X031102Y026571D02*
X013533Y026571D01*
X013533Y026648D02*
X031102Y026648D01*
X031102Y026725D02*
X013533Y026725D01*
X013533Y026802D02*
X031102Y026802D01*
X031102Y026880D02*
X013533Y026880D01*
X013533Y026957D02*
X031102Y026957D01*
X031102Y027034D02*
X013533Y027034D01*
X013533Y027111D02*
X031102Y027111D01*
X031102Y027189D02*
X013533Y027189D01*
X013533Y027266D02*
X031102Y027266D01*
X031102Y027343D02*
X013533Y027343D01*
X013533Y027420D02*
X031102Y027420D01*
X031102Y027498D02*
X013533Y027498D01*
X013533Y027575D02*
X031102Y027575D01*
X031102Y027652D02*
X013533Y027652D01*
X013533Y027729D02*
X031102Y027729D01*
X031102Y027807D02*
X013533Y027807D01*
X013533Y027884D02*
X031102Y027884D01*
X031102Y027961D02*
X013533Y027961D01*
X013533Y028038D02*
X031102Y028038D01*
X031102Y028116D02*
X013533Y028116D01*
X013533Y028193D02*
X031102Y028193D01*
X031102Y028270D02*
X013533Y028270D01*
X013533Y028347D02*
X031102Y028347D01*
X031102Y028424D02*
X013533Y028424D01*
X013533Y028502D02*
X031102Y028502D01*
X031102Y028579D02*
X013533Y028579D01*
X013533Y028656D02*
X031102Y028656D01*
X031102Y028733D02*
X013533Y028733D01*
X013533Y028811D02*
X031102Y028811D01*
X031102Y028888D02*
X013533Y028888D01*
X013533Y028965D02*
X031102Y028965D01*
X031102Y029042D02*
X013533Y029042D01*
X013533Y029120D02*
X029593Y029120D01*
X029749Y029055D02*
X030094Y029055D01*
X030412Y029187D01*
X030656Y029431D01*
X030787Y029749D01*
X030787Y030094D01*
X030656Y030412D01*
X030412Y030656D01*
X030094Y030787D01*
X029749Y030787D01*
X029431Y030656D01*
X029187Y030412D01*
X029055Y030094D01*
X029055Y029749D01*
X029187Y029431D01*
X029431Y029187D01*
X029749Y029055D01*
X029421Y029197D02*
X013533Y029197D01*
X013533Y029274D02*
X029343Y029274D01*
X029266Y029351D02*
X013533Y029351D01*
X013533Y029429D02*
X029189Y029429D01*
X029156Y029506D02*
X013533Y029506D01*
X013533Y029583D02*
X029124Y029583D01*
X029092Y029660D02*
X013533Y029660D01*
X013533Y029738D02*
X029060Y029738D01*
X029055Y029815D02*
X013533Y029815D01*
X013533Y029892D02*
X029055Y029892D01*
X029055Y029969D02*
X013533Y029969D01*
X013533Y030047D02*
X029055Y030047D01*
X029068Y030124D02*
X013533Y030124D01*
X013533Y030201D02*
X029100Y030201D01*
X029132Y030278D02*
X013533Y030278D01*
X013533Y030355D02*
X029164Y030355D01*
X029208Y030433D02*
X013533Y030433D01*
X013533Y030510D02*
X029285Y030510D01*
X029362Y030587D02*
X013533Y030587D01*
X013533Y030664D02*
X029452Y030664D01*
X029639Y030742D02*
X013533Y030742D01*
X013533Y030819D02*
X031102Y030819D01*
X031102Y030896D02*
X013533Y030896D01*
X013601Y030973D02*
X031034Y030973D01*
X030957Y031051D02*
X013679Y031051D01*
X012648Y030896D02*
X000394Y030896D01*
X000394Y030819D02*
X012648Y030819D01*
X012648Y030742D02*
X001857Y030742D01*
X001747Y030787D02*
X001403Y030787D01*
X001084Y030656D01*
X000841Y030412D01*
X000709Y030094D01*
X000709Y029749D01*
X000841Y029431D01*
X001084Y029187D01*
X001403Y029055D01*
X001747Y029055D01*
X002065Y029187D01*
X002309Y029431D01*
X002441Y029749D01*
X002441Y030094D01*
X002309Y030412D01*
X002065Y030656D01*
X001747Y030787D01*
X002044Y030664D02*
X012648Y030664D01*
X012648Y030587D02*
X002134Y030587D01*
X002211Y030510D02*
X012648Y030510D01*
X012648Y030433D02*
X002288Y030433D01*
X002332Y030355D02*
X012648Y030355D01*
X012648Y030278D02*
X011552Y030278D01*
X011282Y030278D02*
X002364Y030278D01*
X002396Y030201D02*
X011127Y030201D01*
X011050Y030124D02*
X002428Y030124D01*
X002441Y030047D02*
X010999Y030047D01*
X010967Y029969D02*
X002441Y029969D01*
X002441Y029892D02*
X010945Y029892D01*
X010945Y029815D02*
X002441Y029815D01*
X002436Y029738D02*
X010945Y029738D01*
X010973Y029660D02*
X002404Y029660D01*
X002372Y029583D02*
X011005Y029583D01*
X011066Y029506D02*
X002340Y029506D01*
X002307Y029429D02*
X011143Y029429D01*
X011321Y029351D02*
X002230Y029351D01*
X002153Y029274D02*
X011860Y029274D01*
X011937Y029197D02*
X002075Y029197D01*
X001903Y029120D02*
X012014Y029120D01*
X012091Y029042D02*
X000394Y029042D01*
X000394Y028965D02*
X012169Y028965D01*
X012246Y028888D02*
X000394Y028888D01*
X000394Y028811D02*
X012323Y028811D01*
X012400Y028733D02*
X000394Y028733D01*
X000394Y028656D02*
X012478Y028656D01*
X012555Y028579D02*
X000394Y028579D01*
X000394Y028502D02*
X012632Y028502D01*
X012648Y028424D02*
X000394Y028424D01*
X000394Y028347D02*
X012648Y028347D01*
X012648Y028270D02*
X000394Y028270D01*
X000394Y028193D02*
X012648Y028193D01*
X012648Y028116D02*
X000394Y028116D01*
X000394Y028038D02*
X012648Y028038D01*
X012648Y027961D02*
X000394Y027961D01*
X000394Y027884D02*
X012648Y027884D01*
X012648Y027807D02*
X000394Y027807D01*
X000394Y027729D02*
X012648Y027729D01*
X012648Y027652D02*
X000394Y027652D01*
X000394Y027575D02*
X012648Y027575D01*
X012648Y027498D02*
X000394Y027498D01*
X000394Y027420D02*
X012648Y027420D01*
X012648Y027343D02*
X000394Y027343D01*
X000394Y027266D02*
X012648Y027266D01*
X012648Y027189D02*
X000394Y027189D01*
X000394Y027111D02*
X012648Y027111D01*
X012648Y027034D02*
X000394Y027034D01*
X000394Y026957D02*
X012648Y026957D01*
X012648Y026880D02*
X000394Y026880D01*
X000394Y026802D02*
X012648Y026802D01*
X012648Y026725D02*
X000394Y026725D01*
X000394Y026648D02*
X012648Y026648D01*
X012648Y026571D02*
X000394Y026571D01*
X000394Y026493D02*
X012648Y026493D01*
X012648Y026416D02*
X000394Y026416D01*
X000394Y026339D02*
X012648Y026339D01*
X012648Y026262D02*
X000394Y026262D01*
X000394Y026184D02*
X012648Y026184D01*
X012648Y026107D02*
X000394Y026107D01*
X000394Y026030D02*
X012648Y026030D01*
X012648Y025953D02*
X000394Y025953D01*
X000394Y025876D02*
X012648Y025876D01*
X012648Y025798D02*
X000394Y025798D01*
X000394Y025721D02*
X012648Y025721D01*
X012648Y025644D02*
X000394Y025644D01*
X000394Y025567D02*
X012648Y025567D01*
X012648Y025489D02*
X000394Y025489D01*
X000394Y025412D02*
X012648Y025412D01*
X012648Y025335D02*
X000394Y025335D01*
X000394Y025258D02*
X012648Y025258D01*
X012648Y025180D02*
X000394Y025180D01*
X000394Y025103D02*
X012648Y025103D01*
X012648Y025026D02*
X000394Y025026D01*
X000394Y024949D02*
X012648Y024949D01*
X012648Y024871D02*
X000394Y024871D01*
X000394Y024794D02*
X012648Y024794D01*
X012648Y024717D02*
X000394Y024717D01*
X000394Y024640D02*
X012648Y024640D01*
X012648Y024562D02*
X000394Y024562D01*
X000394Y024485D02*
X012648Y024485D01*
X012648Y024408D02*
X000394Y024408D01*
X000394Y024331D02*
X012648Y024331D01*
X012648Y024253D02*
X000394Y024253D01*
X000394Y024176D02*
X012648Y024176D01*
X012648Y024099D02*
X000394Y024099D01*
X000394Y024022D02*
X012648Y024022D01*
X012648Y023945D02*
X000394Y023945D01*
X000394Y023867D02*
X012648Y023867D01*
X012648Y023790D02*
X000394Y023790D01*
X000394Y023713D02*
X012648Y023713D01*
X012648Y023636D02*
X002220Y023636D01*
X002307Y023558D02*
X012648Y023558D01*
X012648Y023481D02*
X002375Y023481D01*
X002407Y023404D02*
X012648Y023404D01*
X012648Y023327D02*
X002439Y023327D01*
X002441Y023249D02*
X012648Y023249D01*
X012648Y023172D02*
X002441Y023172D01*
X002425Y023095D02*
X012648Y023095D01*
X012648Y023018D02*
X002393Y023018D01*
X002349Y022940D02*
X012648Y022940D01*
X012648Y022863D02*
X002271Y022863D01*
X002135Y022786D02*
X012648Y022786D01*
X012648Y022709D02*
X001755Y022709D01*
X001678Y022631D02*
X012648Y022631D01*
X012648Y022554D02*
X001601Y022554D01*
X001523Y022477D02*
X012648Y022477D01*
X012648Y022400D02*
X001446Y022400D01*
X001369Y022322D02*
X012648Y022322D01*
X012648Y022245D02*
X001299Y022245D01*
X001299Y022168D02*
X012648Y022168D01*
X012648Y022091D02*
X001299Y022091D01*
X001299Y022014D02*
X012648Y022014D01*
X012648Y021936D02*
X001299Y021936D01*
X001299Y021859D02*
X012648Y021859D01*
X012648Y021782D02*
X001299Y021782D01*
X001299Y021705D02*
X012648Y021705D01*
X012648Y021627D02*
X001299Y021627D01*
X001299Y021550D02*
X012648Y021550D01*
X012648Y021473D02*
X001299Y021473D01*
X001299Y021396D02*
X012648Y021396D01*
X012648Y021318D02*
X001299Y021318D01*
X001299Y021241D02*
X012648Y021241D01*
X012648Y021164D02*
X001299Y021164D01*
X001299Y021087D02*
X012648Y021087D01*
X012648Y021009D02*
X001299Y021009D01*
X001299Y020932D02*
X012648Y020932D01*
X012648Y020855D02*
X001299Y020855D01*
X001299Y020778D02*
X012648Y020778D01*
X012648Y020700D02*
X001299Y020700D01*
X001299Y020623D02*
X012648Y020623D01*
X012648Y020546D02*
X001299Y020546D01*
X001299Y020469D02*
X012648Y020469D01*
X012648Y020391D02*
X001299Y020391D01*
X001299Y020314D02*
X012648Y020314D01*
X012648Y020237D02*
X001299Y020237D01*
X001299Y020160D02*
X012648Y020160D01*
X012648Y020083D02*
X001299Y020083D01*
X001299Y020005D02*
X012648Y020005D01*
X012648Y019928D02*
X001299Y019928D01*
X001299Y019851D02*
X012648Y019851D01*
X012648Y019774D02*
X001299Y019774D01*
X001299Y019696D02*
X012648Y019696D01*
X012648Y019619D02*
X001299Y019619D01*
X001299Y019542D02*
X012648Y019542D01*
X012648Y019465D02*
X001299Y019465D01*
X001299Y019387D02*
X012648Y019387D01*
X012648Y019310D02*
X001299Y019310D01*
X001299Y019233D02*
X012648Y019233D01*
X012648Y019156D02*
X001299Y019156D01*
X001299Y019078D02*
X012648Y019078D01*
X013533Y018460D02*
X013691Y018460D01*
X013632Y018383D02*
X013533Y018383D01*
X013533Y018306D02*
X013602Y018306D01*
X013602Y018229D02*
X013533Y018229D01*
X013533Y018151D02*
X013624Y018151D01*
X013672Y018074D02*
X013533Y018074D01*
X012648Y017843D02*
X011929Y017843D01*
X012081Y017611D02*
X012648Y017611D01*
X012648Y017534D02*
X012145Y017534D01*
X012172Y017456D02*
X012648Y017456D01*
X012648Y017379D02*
X012172Y017379D01*
X012150Y017302D02*
X012648Y017302D01*
X012648Y017225D02*
X012094Y017225D01*
X012117Y016993D02*
X012648Y016993D01*
X012648Y016916D02*
X012176Y016916D01*
X012205Y016838D02*
X012648Y016838D01*
X012648Y016761D02*
X012205Y016761D01*
X012183Y016684D02*
X012648Y016684D01*
X012620Y016607D02*
X012134Y016607D01*
X012590Y016298D02*
X012667Y016298D01*
X013533Y021009D02*
X013689Y021009D01*
X013631Y021087D02*
X013533Y021087D01*
X013533Y021164D02*
X013602Y021164D01*
X013602Y021241D02*
X013533Y021241D01*
X013533Y021318D02*
X013624Y021318D01*
X013673Y021396D02*
X013533Y021396D01*
X019045Y021396D02*
X031102Y021396D01*
X031102Y021473D02*
X019045Y021473D01*
X019045Y021550D02*
X031102Y021550D01*
X031102Y021627D02*
X019045Y021627D01*
X019045Y021705D02*
X031102Y021705D01*
X031102Y021782D02*
X019045Y021782D01*
X019045Y021859D02*
X031102Y021859D01*
X031102Y021936D02*
X019045Y021936D01*
X019045Y022014D02*
X031102Y022014D01*
X031102Y022091D02*
X019045Y022091D01*
X019051Y022168D02*
X031102Y022168D01*
X031102Y022245D02*
X030988Y022245D01*
X031065Y022322D02*
X031102Y022322D01*
X031102Y021318D02*
X019045Y021318D01*
X019045Y021241D02*
X031102Y021241D01*
X031102Y021164D02*
X019045Y021164D01*
X019045Y021087D02*
X031102Y021087D01*
X031102Y021009D02*
X019045Y021009D01*
X019045Y020932D02*
X031102Y020932D01*
X031102Y020855D02*
X019045Y020855D01*
X019045Y020778D02*
X031102Y020778D01*
X031102Y020700D02*
X019045Y020700D01*
X019045Y020623D02*
X031102Y020623D01*
X031102Y020546D02*
X019045Y020546D01*
X019045Y020469D02*
X031102Y020469D01*
X031102Y020391D02*
X019045Y020391D01*
X019045Y020314D02*
X031102Y020314D01*
X031102Y020237D02*
X019045Y020237D01*
X019045Y020160D02*
X031102Y020160D01*
X031102Y020083D02*
X019045Y020083D01*
X019045Y020005D02*
X031102Y020005D01*
X031102Y019928D02*
X019045Y019928D01*
X019045Y019851D02*
X031102Y019851D01*
X031102Y019774D02*
X019045Y019774D01*
X019045Y019696D02*
X031102Y019696D01*
X031102Y019619D02*
X030127Y019619D01*
X030189Y019593D02*
X030015Y019665D01*
X029827Y019665D01*
X029654Y019593D01*
X029521Y019461D01*
X029449Y019287D01*
X029449Y019099D01*
X029521Y018925D01*
X029654Y018792D01*
X029827Y018720D01*
X030015Y018720D01*
X030189Y018792D01*
X030322Y018925D01*
X030394Y019099D01*
X030394Y019287D01*
X030322Y019461D01*
X030189Y019593D01*
X030240Y019542D02*
X031102Y019542D01*
X031102Y019465D02*
X030318Y019465D01*
X030352Y019387D02*
X031102Y019387D01*
X031102Y019310D02*
X030384Y019310D01*
X030394Y019233D02*
X031102Y019233D01*
X031102Y019156D02*
X030394Y019156D01*
X030385Y019078D02*
X031102Y019078D01*
X031102Y019001D02*
X030353Y019001D01*
X030320Y018924D02*
X031102Y018924D01*
X031102Y018847D02*
X030243Y018847D01*
X030133Y018769D02*
X031102Y018769D01*
X031102Y018692D02*
X022826Y018692D01*
X022835Y018684D02*
X022719Y018799D01*
X022064Y018799D01*
X021949Y018684D01*
X021949Y017635D01*
X022064Y017520D01*
X022077Y017507D01*
X022077Y003280D01*
X021868Y003071D01*
X013717Y003071D01*
X013601Y003023D01*
X013513Y002934D01*
X013465Y002819D01*
X013465Y002693D01*
X013513Y002577D01*
X013601Y002489D01*
X013717Y002441D01*
X022061Y002441D01*
X022176Y002489D01*
X022570Y002883D01*
X022659Y002971D01*
X022707Y003087D01*
X022707Y017507D01*
X022835Y017635D01*
X022835Y018684D01*
X022835Y018615D02*
X031102Y018615D01*
X031102Y018538D02*
X022835Y018538D01*
X022835Y018460D02*
X031102Y018460D01*
X031102Y018383D02*
X022835Y018383D01*
X022835Y018306D02*
X031102Y018306D01*
X031102Y018229D02*
X022835Y018229D01*
X022835Y018151D02*
X031102Y018151D01*
X031102Y018074D02*
X022835Y018074D01*
X022835Y017997D02*
X031102Y017997D01*
X031102Y017920D02*
X022835Y017920D01*
X022835Y017843D02*
X031102Y017843D01*
X031102Y017765D02*
X022835Y017765D01*
X022835Y017688D02*
X031102Y017688D01*
X031102Y017611D02*
X022810Y017611D01*
X022733Y017534D02*
X031102Y017534D01*
X031102Y017456D02*
X022707Y017456D01*
X022707Y017379D02*
X031102Y017379D01*
X031102Y017302D02*
X022707Y017302D01*
X022707Y017225D02*
X031102Y017225D01*
X031102Y017147D02*
X022707Y017147D01*
X022707Y017070D02*
X031102Y017070D01*
X031102Y016993D02*
X022707Y016993D01*
X022707Y016916D02*
X031102Y016916D01*
X031102Y016838D02*
X022707Y016838D01*
X022707Y016761D02*
X031102Y016761D01*
X031102Y016684D02*
X022707Y016684D01*
X022707Y016607D02*
X031102Y016607D01*
X031102Y016529D02*
X022707Y016529D01*
X022707Y016452D02*
X031102Y016452D01*
X031102Y016375D02*
X022707Y016375D01*
X022707Y016298D02*
X031102Y016298D01*
X031102Y016220D02*
X022707Y016220D01*
X022707Y016143D02*
X031102Y016143D01*
X031102Y016066D02*
X022707Y016066D01*
X022707Y015989D02*
X031102Y015989D01*
X031102Y015912D02*
X022707Y015912D01*
X022707Y015834D02*
X031102Y015834D01*
X031102Y015757D02*
X022707Y015757D01*
X022707Y015680D02*
X031102Y015680D01*
X031102Y015603D02*
X022707Y015603D01*
X022707Y015525D02*
X031102Y015525D01*
X031102Y015448D02*
X022707Y015448D01*
X022707Y015371D02*
X031102Y015371D01*
X031102Y015294D02*
X022707Y015294D01*
X022707Y015216D02*
X031102Y015216D01*
X031102Y015139D02*
X022707Y015139D01*
X022707Y015062D02*
X031102Y015062D01*
X031102Y014985D02*
X022707Y014985D01*
X022707Y014907D02*
X031102Y014907D01*
X031102Y014830D02*
X022707Y014830D01*
X022707Y014753D02*
X031102Y014753D01*
X031102Y014676D02*
X022707Y014676D01*
X022707Y014598D02*
X031102Y014598D01*
X031102Y014521D02*
X022707Y014521D01*
X022707Y014444D02*
X031102Y014444D01*
X031102Y014367D02*
X022707Y014367D01*
X022707Y014289D02*
X031102Y014289D01*
X031102Y014212D02*
X022707Y014212D01*
X022707Y014135D02*
X031102Y014135D01*
X031102Y014058D02*
X022707Y014058D01*
X022707Y013981D02*
X031102Y013981D01*
X031102Y013903D02*
X022707Y013903D01*
X022707Y013826D02*
X031102Y013826D01*
X031102Y013749D02*
X022707Y013749D01*
X022707Y013672D02*
X031102Y013672D01*
X031102Y013594D02*
X022707Y013594D01*
X022707Y013517D02*
X031102Y013517D01*
X031102Y013440D02*
X022707Y013440D01*
X022707Y013363D02*
X031102Y013363D01*
X031102Y013285D02*
X022707Y013285D01*
X022707Y013208D02*
X031102Y013208D01*
X031102Y013131D02*
X022707Y013131D01*
X022707Y013054D02*
X031102Y013054D01*
X031102Y012976D02*
X022707Y012976D01*
X022707Y012899D02*
X031102Y012899D01*
X031102Y012822D02*
X022707Y012822D01*
X022707Y012745D02*
X031102Y012745D01*
X031102Y012667D02*
X022707Y012667D01*
X022707Y012590D02*
X031102Y012590D01*
X031102Y012513D02*
X022707Y012513D01*
X022707Y012436D02*
X031102Y012436D01*
X031102Y012358D02*
X022707Y012358D01*
X022707Y012281D02*
X031102Y012281D01*
X031102Y012204D02*
X022707Y012204D01*
X022707Y012127D02*
X031102Y012127D01*
X031102Y012050D02*
X022707Y012050D01*
X022707Y011972D02*
X031102Y011972D01*
X031102Y011895D02*
X022707Y011895D01*
X022707Y011818D02*
X031102Y011818D01*
X031102Y011741D02*
X022707Y011741D01*
X022707Y011663D02*
X031102Y011663D01*
X031102Y011586D02*
X022707Y011586D01*
X022707Y011509D02*
X031102Y011509D01*
X031102Y011432D02*
X022707Y011432D01*
X022707Y011354D02*
X031102Y011354D01*
X031102Y011277D02*
X022707Y011277D01*
X022707Y011200D02*
X031102Y011200D01*
X031102Y011123D02*
X022707Y011123D01*
X022707Y011045D02*
X031102Y011045D01*
X031102Y010968D02*
X022707Y010968D01*
X022707Y010891D02*
X031102Y010891D01*
X031102Y010814D02*
X022707Y010814D01*
X022707Y010736D02*
X031102Y010736D01*
X031102Y010659D02*
X022707Y010659D01*
X022707Y010582D02*
X031102Y010582D01*
X031102Y010505D02*
X022707Y010505D01*
X022707Y010427D02*
X031102Y010427D01*
X031102Y010350D02*
X022707Y010350D01*
X022707Y010273D02*
X031102Y010273D01*
X031102Y010196D02*
X022707Y010196D01*
X022707Y010118D02*
X031102Y010118D01*
X031102Y010041D02*
X022707Y010041D01*
X022707Y009964D02*
X031102Y009964D01*
X031102Y009887D02*
X022707Y009887D01*
X022707Y009810D02*
X031102Y009810D01*
X031102Y009732D02*
X022707Y009732D01*
X022707Y009655D02*
X031102Y009655D01*
X031102Y009578D02*
X022707Y009578D01*
X022707Y009501D02*
X031102Y009501D01*
X031102Y009423D02*
X022707Y009423D01*
X022707Y009346D02*
X031102Y009346D01*
X031102Y009269D02*
X022707Y009269D01*
X022707Y009192D02*
X031102Y009192D01*
X031102Y009114D02*
X022707Y009114D01*
X022707Y009037D02*
X031102Y009037D01*
X031102Y008960D02*
X022707Y008960D01*
X022707Y008883D02*
X031102Y008883D01*
X031102Y008805D02*
X022707Y008805D01*
X022707Y008728D02*
X031102Y008728D01*
X031102Y008651D02*
X022707Y008651D01*
X022707Y008574D02*
X031102Y008574D01*
X031102Y008496D02*
X022707Y008496D01*
X022707Y008419D02*
X031102Y008419D01*
X031102Y008342D02*
X022707Y008342D01*
X022707Y008265D02*
X031102Y008265D01*
X031102Y008187D02*
X022707Y008187D01*
X022707Y008110D02*
X031102Y008110D01*
X031102Y008033D02*
X022707Y008033D01*
X022707Y007956D02*
X031102Y007956D01*
X031102Y007879D02*
X022707Y007879D01*
X022707Y007801D02*
X031102Y007801D01*
X031102Y007724D02*
X022707Y007724D01*
X022707Y007647D02*
X031102Y007647D01*
X031102Y007570D02*
X022707Y007570D01*
X022707Y007492D02*
X031102Y007492D01*
X031102Y007415D02*
X030125Y007415D01*
X030189Y007389D02*
X030015Y007461D01*
X029827Y007461D01*
X029654Y007389D01*
X029521Y007256D01*
X029449Y007082D01*
X029449Y006894D01*
X029521Y006721D01*
X029654Y006588D01*
X029827Y006516D01*
X030015Y006516D01*
X030189Y006588D01*
X030322Y006721D01*
X030394Y006894D01*
X030394Y007082D01*
X030322Y007256D01*
X030189Y007389D01*
X030240Y007338D02*
X031102Y007338D01*
X031102Y007261D02*
X030317Y007261D01*
X030352Y007183D02*
X031102Y007183D01*
X031102Y007106D02*
X030384Y007106D01*
X030394Y007029D02*
X031102Y007029D01*
X031102Y006952D02*
X030394Y006952D01*
X030385Y006874D02*
X031102Y006874D01*
X031102Y006797D02*
X030353Y006797D01*
X030321Y006720D02*
X031102Y006720D01*
X031102Y006643D02*
X030244Y006643D01*
X030135Y006565D02*
X031102Y006565D01*
X031102Y006488D02*
X022707Y006488D01*
X022707Y006411D02*
X031102Y006411D01*
X031102Y006334D02*
X022707Y006334D01*
X022707Y006256D02*
X031102Y006256D01*
X031102Y006179D02*
X022707Y006179D01*
X022707Y006102D02*
X031102Y006102D01*
X031102Y006025D02*
X022707Y006025D01*
X022707Y005948D02*
X031102Y005948D01*
X031102Y005870D02*
X022707Y005870D01*
X022707Y005793D02*
X031102Y005793D01*
X031102Y005716D02*
X022707Y005716D01*
X022707Y005639D02*
X031102Y005639D01*
X031102Y005561D02*
X022707Y005561D01*
X022707Y005484D02*
X031102Y005484D01*
X031102Y005407D02*
X022707Y005407D01*
X022707Y005330D02*
X031102Y005330D01*
X031102Y005252D02*
X022707Y005252D01*
X022707Y005175D02*
X031102Y005175D01*
X031102Y005098D02*
X022707Y005098D01*
X022707Y005021D02*
X031102Y005021D01*
X031102Y004943D02*
X022707Y004943D01*
X022707Y004866D02*
X031102Y004866D01*
X031102Y004789D02*
X022707Y004789D01*
X022707Y004712D02*
X031102Y004712D01*
X031102Y004634D02*
X022707Y004634D01*
X022707Y004557D02*
X031102Y004557D01*
X031102Y004480D02*
X022707Y004480D01*
X022707Y004403D02*
X031102Y004403D01*
X031102Y004325D02*
X022707Y004325D01*
X022707Y004248D02*
X031102Y004248D01*
X031102Y004171D02*
X022707Y004171D01*
X022707Y004094D02*
X031102Y004094D01*
X031102Y004017D02*
X022707Y004017D01*
X022707Y003939D02*
X031102Y003939D01*
X031102Y003862D02*
X022707Y003862D01*
X022707Y003785D02*
X031102Y003785D01*
X031102Y003708D02*
X022707Y003708D01*
X022707Y003630D02*
X031102Y003630D01*
X031102Y003553D02*
X022707Y003553D01*
X022707Y003476D02*
X031102Y003476D01*
X031102Y003399D02*
X022707Y003399D01*
X022707Y003321D02*
X031102Y003321D01*
X031102Y003244D02*
X022707Y003244D01*
X022707Y003167D02*
X031102Y003167D01*
X031102Y003090D02*
X022707Y003090D01*
X022676Y003012D02*
X031102Y003012D01*
X031102Y002935D02*
X022623Y002935D01*
X022545Y002858D02*
X031102Y002858D01*
X031102Y002781D02*
X022468Y002781D01*
X022391Y002703D02*
X031102Y002703D01*
X031102Y002626D02*
X022314Y002626D01*
X022236Y002549D02*
X031102Y002549D01*
X031102Y002472D02*
X022135Y002472D01*
X021886Y003090D02*
X008878Y003090D01*
X008878Y003167D02*
X021964Y003167D01*
X022041Y003244D02*
X008878Y003244D01*
X008878Y003321D02*
X022077Y003321D01*
X022077Y003399D02*
X008921Y003399D01*
X008878Y003355D02*
X009046Y003524D01*
X009173Y003650D01*
X009173Y006586D01*
X007992Y007767D01*
X007992Y007898D01*
X008009Y007915D01*
X008051Y008016D01*
X008051Y008126D01*
X008009Y008227D01*
X007932Y008304D01*
X007830Y008346D01*
X007721Y008346D01*
X007619Y008304D01*
X007542Y008227D01*
X007500Y008126D01*
X007500Y008016D01*
X007542Y007915D01*
X007559Y007898D01*
X007559Y007587D01*
X007686Y007461D01*
X007723Y007424D01*
X007634Y007461D01*
X007524Y007461D01*
X007423Y007419D01*
X007345Y007341D01*
X007303Y007240D01*
X007303Y007130D01*
X007345Y007029D01*
X007423Y006951D01*
X007524Y006909D01*
X007634Y006909D01*
X007735Y006951D01*
X007812Y007029D01*
X008118Y007029D01*
X008195Y006952D02*
X007735Y006952D01*
X007812Y007029D02*
X007854Y007130D01*
X007854Y007240D01*
X007817Y007329D01*
X008740Y006406D01*
X008740Y003830D01*
X008445Y003535D01*
X008445Y001603D01*
X008394Y001582D01*
X008261Y001449D01*
X008189Y001275D01*
X008189Y001087D01*
X008261Y000913D01*
X008394Y000781D01*
X008567Y000709D01*
X008755Y000709D01*
X008929Y000781D01*
X009062Y000913D01*
X009134Y001087D01*
X009134Y001275D01*
X009062Y001449D01*
X008929Y001582D01*
X008878Y001603D01*
X008878Y003355D01*
X008999Y003476D02*
X022077Y003476D01*
X022077Y003553D02*
X009076Y003553D01*
X009153Y003630D02*
X022077Y003630D01*
X022077Y003708D02*
X009173Y003708D01*
X009173Y003785D02*
X022077Y003785D01*
X022077Y003862D02*
X009173Y003862D01*
X009173Y003939D02*
X022077Y003939D01*
X022077Y004017D02*
X009173Y004017D01*
X009173Y004094D02*
X022077Y004094D01*
X022077Y004171D02*
X009173Y004171D01*
X009173Y004248D02*
X022077Y004248D01*
X022077Y004325D02*
X009173Y004325D01*
X009173Y004403D02*
X022077Y004403D01*
X022077Y004480D02*
X009173Y004480D01*
X009173Y004557D02*
X022077Y004557D01*
X022077Y004634D02*
X009173Y004634D01*
X009173Y004712D02*
X022077Y004712D01*
X022077Y004789D02*
X009173Y004789D01*
X009173Y004866D02*
X022077Y004866D01*
X022077Y004943D02*
X009173Y004943D01*
X009173Y005021D02*
X022077Y005021D01*
X022077Y005098D02*
X009173Y005098D01*
X009173Y005175D02*
X022077Y005175D01*
X022077Y005252D02*
X009173Y005252D01*
X009173Y005330D02*
X022077Y005330D01*
X022077Y005407D02*
X009173Y005407D01*
X009173Y005484D02*
X022077Y005484D01*
X022077Y005561D02*
X009173Y005561D01*
X009173Y005639D02*
X022077Y005639D01*
X022077Y005716D02*
X009173Y005716D01*
X009173Y005793D02*
X022077Y005793D01*
X022077Y005870D02*
X009173Y005870D01*
X009173Y005948D02*
X022077Y005948D01*
X022077Y006025D02*
X009173Y006025D01*
X009173Y006102D02*
X022077Y006102D01*
X022077Y006179D02*
X009173Y006179D01*
X009173Y006256D02*
X022077Y006256D01*
X022077Y006334D02*
X009173Y006334D01*
X009173Y006411D02*
X022077Y006411D01*
X022077Y006488D02*
X009173Y006488D01*
X009173Y006565D02*
X022077Y006565D01*
X022077Y006643D02*
X010852Y006643D01*
X010884Y006656D02*
X010962Y006734D01*
X011004Y006835D01*
X011004Y006945D01*
X010962Y007046D01*
X010884Y007123D01*
X010783Y007165D01*
X010674Y007165D01*
X010572Y007123D01*
X010495Y007046D01*
X010453Y006945D01*
X010453Y006835D01*
X010495Y006734D01*
X010572Y006656D01*
X010674Y006614D01*
X010783Y006614D01*
X010884Y006656D01*
X010948Y006720D02*
X022077Y006720D01*
X022077Y006797D02*
X010988Y006797D01*
X011004Y006874D02*
X022077Y006874D01*
X022077Y006952D02*
X011001Y006952D01*
X010969Y007029D02*
X022077Y007029D01*
X022077Y007106D02*
X010902Y007106D01*
X010555Y007106D02*
X008653Y007106D01*
X008730Y007029D02*
X010488Y007029D01*
X010456Y006952D02*
X008807Y006952D01*
X008885Y006874D02*
X010453Y006874D01*
X010468Y006797D02*
X008962Y006797D01*
X009039Y006720D02*
X010508Y006720D01*
X010605Y006643D02*
X009116Y006643D01*
X008736Y006411D02*
X005902Y006411D01*
X005979Y006488D02*
X008658Y006488D01*
X008581Y006565D02*
X006056Y006565D01*
X006134Y006643D02*
X008504Y006643D01*
X008427Y006720D02*
X006211Y006720D01*
X006288Y006797D02*
X008349Y006797D01*
X008272Y006874D02*
X006365Y006874D01*
X006443Y006952D02*
X007422Y006952D01*
X007345Y007029D02*
X006520Y007029D01*
X006597Y007106D02*
X007313Y007106D01*
X007303Y007183D02*
X006674Y007183D01*
X006676Y007185D02*
X007168Y007677D01*
X007283Y007792D01*
X007283Y009334D01*
X007168Y009449D01*
X006676Y009449D01*
X006513Y009449D01*
X006398Y009334D01*
X006398Y008251D01*
X006218Y008071D01*
X004151Y006004D01*
X004035Y005889D01*
X004035Y004741D01*
X004151Y004626D01*
X004806Y004626D01*
X004921Y004741D01*
X004921Y005430D01*
X006676Y007185D01*
X006752Y007261D02*
X007312Y007261D01*
X007344Y007338D02*
X006829Y007338D01*
X006906Y007415D02*
X007419Y007415D01*
X007577Y007570D02*
X007061Y007570D01*
X007138Y007647D02*
X007559Y007647D01*
X007559Y007724D02*
X007215Y007724D01*
X007283Y007801D02*
X007559Y007801D01*
X007559Y007879D02*
X007283Y007879D01*
X007283Y007956D02*
X007525Y007956D01*
X007500Y008033D02*
X007283Y008033D01*
X007283Y008110D02*
X007500Y008110D01*
X007526Y008187D02*
X007283Y008187D01*
X007283Y008265D02*
X007580Y008265D01*
X007710Y008342D02*
X007283Y008342D01*
X007283Y008419D02*
X022077Y008419D01*
X022077Y008342D02*
X007841Y008342D01*
X007971Y008265D02*
X022077Y008265D01*
X022077Y008187D02*
X008026Y008187D01*
X008051Y008110D02*
X022077Y008110D01*
X022077Y008033D02*
X008051Y008033D01*
X008026Y007956D02*
X022077Y007956D01*
X022077Y007879D02*
X007992Y007879D01*
X007992Y007801D02*
X022077Y007801D01*
X022077Y007724D02*
X008035Y007724D01*
X008112Y007647D02*
X022077Y007647D01*
X022077Y007570D02*
X008189Y007570D01*
X008267Y007492D02*
X022077Y007492D01*
X022077Y007415D02*
X008344Y007415D01*
X008421Y007338D02*
X022077Y007338D01*
X022077Y007261D02*
X008498Y007261D01*
X008576Y007183D02*
X022077Y007183D01*
X022707Y007183D02*
X029491Y007183D01*
X029459Y007106D02*
X022707Y007106D01*
X022707Y007029D02*
X029449Y007029D01*
X029449Y006952D02*
X022707Y006952D01*
X022707Y006874D02*
X029457Y006874D01*
X029489Y006797D02*
X022707Y006797D01*
X022707Y006720D02*
X029521Y006720D01*
X029599Y006643D02*
X022707Y006643D01*
X022707Y006565D02*
X029707Y006565D01*
X029526Y007261D02*
X022707Y007261D01*
X022707Y007338D02*
X029603Y007338D01*
X029717Y007415D02*
X022707Y007415D01*
X022077Y008496D02*
X012085Y008496D01*
X012151Y008574D02*
X022077Y008574D01*
X022077Y008651D02*
X012183Y008651D01*
X012185Y008728D02*
X022077Y008728D01*
X022077Y008805D02*
X012168Y008805D01*
X012127Y008883D02*
X022077Y008883D01*
X022077Y008960D02*
X012028Y008960D01*
X011889Y009037D02*
X022077Y009037D01*
X022077Y009114D02*
X011812Y009114D01*
X011735Y009192D02*
X022077Y009192D01*
X022077Y009269D02*
X011657Y009269D01*
X011580Y009346D02*
X022077Y009346D01*
X022077Y009423D02*
X011503Y009423D01*
X011426Y009501D02*
X022077Y009501D01*
X022077Y009578D02*
X011348Y009578D01*
X011271Y009655D02*
X022077Y009655D01*
X022077Y009732D02*
X011194Y009732D01*
X011117Y009810D02*
X022077Y009810D01*
X022077Y009887D02*
X011040Y009887D01*
X010962Y009964D02*
X022077Y009964D01*
X022077Y010041D02*
X010885Y010041D01*
X010808Y010118D02*
X022077Y010118D01*
X022077Y010196D02*
X010731Y010196D01*
X010907Y010505D02*
X009418Y010505D01*
X009408Y010495D02*
X009486Y010572D01*
X009528Y010674D01*
X009528Y010783D01*
X009489Y010876D01*
X009528Y010969D01*
X009528Y011078D01*
X009486Y011180D01*
X009408Y011257D01*
X009307Y011299D01*
X009197Y011299D01*
X009096Y011257D01*
X009018Y011180D01*
X008976Y011078D01*
X008976Y010969D01*
X009015Y010876D01*
X008976Y010783D01*
X008976Y010674D01*
X009018Y010572D01*
X009096Y010495D01*
X009197Y010453D01*
X009307Y010453D01*
X009408Y010495D01*
X009490Y010582D02*
X010835Y010582D01*
X010803Y010659D02*
X009522Y010659D01*
X009528Y010736D02*
X010797Y010736D01*
X010810Y010814D02*
X009515Y010814D01*
X009495Y010891D02*
X009782Y010891D01*
X009706Y010968D02*
X009527Y010968D01*
X009528Y011045D02*
X009674Y011045D01*
X009665Y011123D02*
X009509Y011123D01*
X009465Y011200D02*
X009675Y011200D01*
X009701Y011277D02*
X009360Y011277D01*
X009144Y011277D02*
X006614Y011277D01*
X006614Y011200D02*
X009038Y011200D01*
X008995Y011123D02*
X006614Y011123D01*
X006614Y011045D02*
X008976Y011045D01*
X008977Y010968D02*
X006614Y010968D01*
X006614Y010891D02*
X009009Y010891D01*
X008989Y010814D02*
X006614Y010814D01*
X006614Y010736D02*
X008976Y010736D01*
X008982Y010659D02*
X006614Y010659D01*
X006653Y010582D02*
X009014Y010582D01*
X009086Y010505D02*
X006731Y010505D01*
X006808Y010427D02*
X022077Y010427D01*
X022077Y010350D02*
X006885Y010350D01*
X006962Y010273D02*
X022077Y010273D01*
X022077Y010505D02*
X011534Y010505D01*
X011606Y010582D02*
X022077Y010582D01*
X022077Y010659D02*
X011638Y010659D01*
X011644Y010736D02*
X022077Y010736D01*
X022077Y010814D02*
X011631Y010814D01*
X012691Y010891D02*
X022077Y010891D01*
X022077Y010968D02*
X012797Y010968D01*
X012874Y011045D02*
X022077Y011045D01*
X022077Y014830D02*
X018849Y014830D01*
X018926Y014907D02*
X022077Y014907D01*
X022077Y014985D02*
X019003Y014985D01*
X019045Y015062D02*
X022077Y015062D01*
X022077Y015139D02*
X019045Y015139D01*
X019045Y015216D02*
X022077Y015216D01*
X022077Y015294D02*
X019045Y015294D01*
X019045Y015371D02*
X022077Y015371D01*
X022077Y015448D02*
X019045Y015448D01*
X019045Y015525D02*
X022077Y015525D01*
X022077Y015603D02*
X019045Y015603D01*
X019045Y015680D02*
X022077Y015680D01*
X022077Y015757D02*
X019045Y015757D01*
X019045Y015834D02*
X022077Y015834D01*
X022077Y015912D02*
X019045Y015912D01*
X019045Y015989D02*
X022077Y015989D01*
X022077Y016066D02*
X019045Y016066D01*
X019045Y016143D02*
X022077Y016143D01*
X022077Y016220D02*
X019045Y016220D01*
X019045Y016298D02*
X022077Y016298D01*
X022077Y016375D02*
X019045Y016375D01*
X019045Y016452D02*
X022077Y016452D01*
X022077Y016529D02*
X019045Y016529D01*
X019045Y016607D02*
X022077Y016607D01*
X022077Y016684D02*
X019045Y016684D01*
X019045Y016761D02*
X022077Y016761D01*
X022077Y016838D02*
X019045Y016838D01*
X019045Y016916D02*
X022077Y016916D01*
X022077Y016993D02*
X019045Y016993D01*
X019045Y017070D02*
X022077Y017070D01*
X022077Y017147D02*
X019045Y017147D01*
X019045Y017225D02*
X022077Y017225D01*
X022077Y017302D02*
X019045Y017302D01*
X019045Y017379D02*
X022077Y017379D01*
X022077Y017456D02*
X019045Y017456D01*
X019045Y017534D02*
X022050Y017534D01*
X021973Y017611D02*
X019045Y017611D01*
X019045Y017688D02*
X021949Y017688D01*
X021949Y017765D02*
X019045Y017765D01*
X019045Y017843D02*
X021949Y017843D01*
X021949Y017920D02*
X019045Y017920D01*
X019045Y017997D02*
X021949Y017997D01*
X021949Y018074D02*
X019045Y018074D01*
X019045Y018151D02*
X021949Y018151D01*
X021949Y018229D02*
X019045Y018229D01*
X019045Y018306D02*
X021949Y018306D01*
X021949Y018383D02*
X019045Y018383D01*
X019045Y018460D02*
X021949Y018460D01*
X021949Y018538D02*
X019045Y018538D01*
X019045Y018615D02*
X021949Y018615D01*
X021957Y018692D02*
X019045Y018692D01*
X019045Y018769D02*
X022034Y018769D01*
X022146Y018602D02*
X022638Y018602D01*
X022638Y017717D01*
X022392Y017470D01*
X022146Y017717D01*
X022146Y018602D01*
X022146Y018538D02*
X022638Y018538D01*
X022638Y018460D02*
X022146Y018460D01*
X022146Y018383D02*
X022638Y018383D01*
X022638Y018306D02*
X022146Y018306D01*
X022146Y018229D02*
X022638Y018229D01*
X022638Y018151D02*
X022146Y018151D01*
X022146Y018074D02*
X022638Y018074D01*
X022638Y017997D02*
X022146Y017997D01*
X022146Y017920D02*
X022638Y017920D01*
X022638Y017843D02*
X022146Y017843D01*
X022146Y017765D02*
X022638Y017765D01*
X022609Y017688D02*
X022174Y017688D01*
X022251Y017611D02*
X022532Y017611D01*
X022455Y017534D02*
X022329Y017534D01*
X022749Y018769D02*
X029709Y018769D01*
X029599Y018847D02*
X019045Y018847D01*
X019045Y018924D02*
X029522Y018924D01*
X029489Y019001D02*
X019045Y019001D01*
X019045Y019078D02*
X029457Y019078D01*
X029449Y019156D02*
X019045Y019156D01*
X019045Y019233D02*
X029449Y019233D01*
X029458Y019310D02*
X019045Y019310D01*
X019045Y019387D02*
X029490Y019387D01*
X029525Y019465D02*
X019045Y019465D01*
X019045Y019542D02*
X029602Y019542D01*
X029716Y019619D02*
X019045Y019619D01*
X010277Y011663D02*
X010067Y011663D01*
X009815Y011663D02*
X006614Y011663D01*
X006614Y011586D02*
X009720Y011586D01*
X009681Y011509D02*
X006614Y011509D01*
X006614Y011432D02*
X009665Y011432D01*
X009669Y011354D02*
X006614Y011354D01*
X006181Y011354D02*
X000394Y011354D01*
X000394Y011277D02*
X004813Y011277D01*
X004765Y011257D02*
X004866Y011299D01*
X004976Y011299D01*
X005077Y011257D01*
X005155Y011180D01*
X005197Y011078D01*
X005197Y010969D01*
X005158Y010876D01*
X005197Y010783D01*
X005197Y010674D01*
X005155Y010572D01*
X005077Y010495D01*
X004976Y010453D01*
X004866Y010453D01*
X004765Y010495D01*
X004688Y010572D01*
X004646Y010674D01*
X004646Y010783D01*
X004684Y010876D01*
X004646Y010969D01*
X004646Y011078D01*
X004688Y011180D01*
X004765Y011257D01*
X004708Y011200D02*
X000394Y011200D01*
X000394Y011123D02*
X004664Y011123D01*
X004646Y011045D02*
X000394Y011045D01*
X000394Y010968D02*
X004646Y010968D01*
X004678Y010891D02*
X000394Y010891D01*
X000394Y010814D02*
X004658Y010814D01*
X004646Y010736D02*
X000394Y010736D01*
X000394Y010659D02*
X004652Y010659D01*
X004684Y010582D02*
X000394Y010582D01*
X000394Y010505D02*
X004755Y010505D01*
X004768Y010315D02*
X004667Y010273D01*
X004589Y010195D01*
X004547Y010094D01*
X004547Y009985D01*
X004589Y009883D01*
X004667Y009806D01*
X004768Y009764D01*
X004878Y009764D01*
X004979Y009806D01*
X005056Y009883D01*
X005098Y009985D01*
X005098Y010094D01*
X005056Y010195D01*
X004979Y010273D01*
X006350Y010273D01*
X006427Y010196D02*
X005056Y010196D01*
X005088Y010118D02*
X006504Y010118D01*
X006582Y010041D02*
X005098Y010041D01*
X005090Y009964D02*
X006659Y009964D01*
X006736Y009887D02*
X005058Y009887D01*
X004983Y009810D02*
X010504Y009810D01*
X010582Y009732D02*
X000394Y009732D01*
X000394Y009655D02*
X004523Y009655D01*
X004571Y009675D02*
X004470Y009633D01*
X004392Y009556D01*
X004350Y009454D01*
X004350Y009345D01*
X004389Y009252D01*
X004350Y009159D01*
X004350Y009050D01*
X004392Y008948D01*
X004470Y008871D01*
X004571Y008829D01*
X004681Y008829D01*
X004774Y008867D01*
X004866Y008829D01*
X004976Y008829D01*
X005077Y008871D01*
X005155Y008948D01*
X005197Y009050D01*
X005197Y009159D01*
X005158Y009252D01*
X005197Y009345D01*
X005197Y009454D01*
X005155Y009556D01*
X005077Y009633D01*
X004976Y009675D01*
X004866Y009675D01*
X004774Y009637D01*
X004681Y009675D01*
X004571Y009675D01*
X004729Y009655D02*
X004818Y009655D01*
X005025Y009655D02*
X010659Y009655D01*
X010736Y009578D02*
X005133Y009578D01*
X005178Y009501D02*
X010813Y009501D01*
X010891Y009423D02*
X007194Y009423D01*
X007271Y009346D02*
X010968Y009346D01*
X011045Y009269D02*
X007283Y009269D01*
X007283Y009192D02*
X011122Y009192D01*
X011199Y009114D02*
X007283Y009114D01*
X007283Y009037D02*
X011277Y009037D01*
X011354Y008960D02*
X007283Y008960D01*
X007283Y008883D02*
X011431Y008883D01*
X011508Y008805D02*
X007283Y008805D01*
X007283Y008728D02*
X011586Y008728D01*
X011636Y008651D02*
X007283Y008651D01*
X007283Y008574D02*
X011668Y008574D01*
X011734Y008496D02*
X007283Y008496D01*
X007087Y008496D02*
X006594Y008496D01*
X006594Y008419D02*
X007087Y008419D01*
X007087Y008342D02*
X006594Y008342D01*
X006594Y008265D02*
X007087Y008265D01*
X007087Y008187D02*
X006594Y008187D01*
X006594Y008169D02*
X004232Y005807D01*
X004232Y004823D01*
X004724Y004823D01*
X004724Y005512D01*
X007087Y007874D01*
X007087Y009252D01*
X006594Y009252D01*
X006594Y008169D01*
X006535Y008110D02*
X007087Y008110D01*
X007087Y008033D02*
X006458Y008033D01*
X006381Y007956D02*
X007087Y007956D01*
X007087Y007879D02*
X006304Y007879D01*
X006226Y007801D02*
X007014Y007801D01*
X006937Y007724D02*
X006149Y007724D01*
X006072Y007647D02*
X006859Y007647D01*
X006782Y007570D02*
X005995Y007570D01*
X005918Y007492D02*
X006705Y007492D01*
X006628Y007415D02*
X005840Y007415D01*
X005763Y007338D02*
X006550Y007338D01*
X006473Y007261D02*
X005686Y007261D01*
X005609Y007183D02*
X006396Y007183D01*
X006319Y007106D02*
X005531Y007106D01*
X005454Y007029D02*
X006241Y007029D01*
X006164Y006952D02*
X005377Y006952D01*
X005300Y006874D02*
X006087Y006874D01*
X006010Y006797D02*
X005222Y006797D01*
X005145Y006720D02*
X005933Y006720D01*
X005855Y006643D02*
X005068Y006643D01*
X004991Y006565D02*
X005778Y006565D01*
X005701Y006488D02*
X004913Y006488D01*
X004836Y006411D02*
X005624Y006411D01*
X005546Y006334D02*
X004759Y006334D01*
X004682Y006256D02*
X005469Y006256D01*
X005392Y006179D02*
X004604Y006179D01*
X004527Y006102D02*
X005315Y006102D01*
X005237Y006025D02*
X004450Y006025D01*
X004373Y005948D02*
X005160Y005948D01*
X005083Y005870D02*
X004295Y005870D01*
X004232Y005793D02*
X005006Y005793D01*
X004928Y005716D02*
X004232Y005716D01*
X004232Y005639D02*
X004851Y005639D01*
X004774Y005561D02*
X004232Y005561D01*
X004232Y005484D02*
X004724Y005484D01*
X004724Y005407D02*
X004232Y005407D01*
X004232Y005330D02*
X004724Y005330D01*
X004724Y005252D02*
X004232Y005252D01*
X004232Y005175D02*
X004724Y005175D01*
X004724Y005098D02*
X004232Y005098D01*
X004232Y005021D02*
X004724Y005021D01*
X004724Y004943D02*
X004232Y004943D01*
X004232Y004866D02*
X004724Y004866D01*
X004921Y004866D02*
X005295Y004866D01*
X005295Y004789D02*
X004921Y004789D01*
X004892Y004712D02*
X005295Y004712D01*
X005295Y004634D02*
X004814Y004634D01*
X004921Y004943D02*
X005295Y004943D01*
X005295Y004967D02*
X005295Y002741D01*
X005266Y002729D01*
X005145Y002608D01*
X005079Y002448D01*
X005079Y002276D01*
X005145Y002117D01*
X005266Y001995D01*
X005426Y001929D01*
X005598Y001929D01*
X005757Y001995D01*
X005879Y002117D01*
X005945Y002276D01*
X005945Y002448D01*
X005879Y002608D01*
X005757Y002729D01*
X005728Y002741D01*
X005728Y005208D01*
X005689Y005247D01*
X005689Y005271D01*
X005647Y005373D01*
X005569Y005450D01*
X005468Y005492D01*
X005359Y005492D01*
X005257Y005450D01*
X005180Y005373D01*
X005138Y005271D01*
X005138Y005162D01*
X005180Y005060D01*
X005257Y004983D01*
X005295Y004967D01*
X005220Y005021D02*
X004921Y005021D01*
X004921Y005098D02*
X005164Y005098D01*
X005138Y005175D02*
X004921Y005175D01*
X004921Y005252D02*
X005138Y005252D01*
X005162Y005330D02*
X004921Y005330D01*
X004921Y005407D02*
X005214Y005407D01*
X005339Y005484D02*
X004975Y005484D01*
X005052Y005561D02*
X008740Y005561D01*
X008740Y005484D02*
X005488Y005484D01*
X005613Y005407D02*
X008740Y005407D01*
X008740Y005330D02*
X005665Y005330D01*
X005689Y005252D02*
X008740Y005252D01*
X008740Y005175D02*
X005728Y005175D01*
X005728Y005098D02*
X008740Y005098D01*
X008740Y005021D02*
X005728Y005021D01*
X005728Y004943D02*
X008740Y004943D01*
X008740Y004866D02*
X005728Y004866D01*
X005728Y004789D02*
X008740Y004789D01*
X008740Y004712D02*
X005728Y004712D01*
X005728Y004634D02*
X008740Y004634D01*
X008740Y004557D02*
X005728Y004557D01*
X005728Y004480D02*
X008740Y004480D01*
X008740Y004403D02*
X005728Y004403D01*
X005728Y004325D02*
X008740Y004325D01*
X008740Y004248D02*
X005728Y004248D01*
X005728Y004171D02*
X008740Y004171D01*
X008740Y004094D02*
X005728Y004094D01*
X005728Y004017D02*
X008740Y004017D01*
X008740Y003939D02*
X005728Y003939D01*
X005728Y003862D02*
X008740Y003862D01*
X008695Y003785D02*
X005728Y003785D01*
X005728Y003708D02*
X008618Y003708D01*
X008541Y003630D02*
X005728Y003630D01*
X005728Y003553D02*
X008463Y003553D01*
X008445Y003476D02*
X005728Y003476D01*
X005728Y003399D02*
X008445Y003399D01*
X008445Y003321D02*
X005728Y003321D01*
X005728Y003244D02*
X008445Y003244D01*
X008445Y003167D02*
X005728Y003167D01*
X005728Y003090D02*
X008445Y003090D01*
X008445Y003012D02*
X005728Y003012D01*
X005728Y002935D02*
X008445Y002935D01*
X008445Y002858D02*
X005728Y002858D01*
X005728Y002781D02*
X008445Y002781D01*
X008445Y002703D02*
X005783Y002703D01*
X005860Y002626D02*
X008445Y002626D01*
X008445Y002549D02*
X005903Y002549D01*
X005935Y002472D02*
X008445Y002472D01*
X008445Y002394D02*
X005945Y002394D01*
X005945Y002317D02*
X008445Y002317D01*
X008445Y002240D02*
X005930Y002240D01*
X005898Y002163D02*
X008445Y002163D01*
X008445Y002085D02*
X005848Y002085D01*
X005770Y002008D02*
X008445Y002008D01*
X008445Y001931D02*
X005602Y001931D01*
X005421Y001931D02*
X004602Y001931D01*
X004598Y001929D02*
X004757Y001995D01*
X004879Y002117D01*
X004945Y002276D01*
X004945Y002448D01*
X004879Y002608D01*
X004757Y002729D01*
X004598Y002795D01*
X004426Y002795D01*
X004266Y002729D01*
X004145Y002608D01*
X004079Y002448D01*
X004079Y002276D01*
X004145Y002117D01*
X004266Y001995D01*
X004426Y001929D01*
X004598Y001929D01*
X004421Y001931D02*
X002365Y001931D01*
X002397Y001854D02*
X008445Y001854D01*
X008445Y001777D02*
X002429Y001777D01*
X002441Y001747D02*
X002309Y002065D01*
X002065Y002309D01*
X001747Y002441D01*
X001403Y002441D01*
X001084Y002309D01*
X000841Y002065D01*
X000709Y001747D01*
X000709Y001403D01*
X000841Y001084D01*
X001084Y000841D01*
X001403Y000709D01*
X001747Y000709D01*
X002065Y000841D01*
X002309Y001084D01*
X002441Y001403D01*
X002441Y001747D01*
X002441Y001699D02*
X008445Y001699D01*
X008445Y001622D02*
X002441Y001622D01*
X002441Y001545D02*
X008357Y001545D01*
X008280Y001468D02*
X002441Y001468D01*
X002436Y001390D02*
X008237Y001390D01*
X008205Y001313D02*
X002404Y001313D01*
X002372Y001236D02*
X008189Y001236D01*
X008189Y001159D02*
X002340Y001159D01*
X002306Y001081D02*
X008191Y001081D01*
X008223Y001004D02*
X002229Y001004D01*
X002152Y000927D02*
X008255Y000927D01*
X008325Y000850D02*
X002075Y000850D01*
X001901Y000772D02*
X008414Y000772D01*
X008909Y000772D02*
X029595Y000772D01*
X029749Y000709D02*
X030094Y000709D01*
X030412Y000841D01*
X030656Y001084D01*
X030787Y001403D01*
X030787Y001747D01*
X030656Y002065D01*
X030412Y002309D01*
X030094Y002441D01*
X029749Y002441D01*
X029431Y002309D01*
X029187Y002065D01*
X029055Y001747D01*
X029055Y001403D01*
X029187Y001084D01*
X029431Y000841D01*
X029749Y000709D01*
X029422Y000850D02*
X008998Y000850D01*
X009067Y000927D02*
X029344Y000927D01*
X029267Y001004D02*
X009099Y001004D01*
X009131Y001081D02*
X029190Y001081D01*
X029156Y001159D02*
X009134Y001159D01*
X009134Y001236D02*
X029124Y001236D01*
X029092Y001313D02*
X009118Y001313D01*
X009086Y001390D02*
X029060Y001390D01*
X029055Y001468D02*
X009043Y001468D01*
X008966Y001545D02*
X029055Y001545D01*
X029055Y001622D02*
X008878Y001622D01*
X008878Y001699D02*
X029055Y001699D01*
X029067Y001777D02*
X008878Y001777D01*
X008878Y001854D02*
X029099Y001854D01*
X029131Y001931D02*
X008878Y001931D01*
X008878Y002008D02*
X029163Y002008D01*
X029207Y002085D02*
X008878Y002085D01*
X008878Y002163D02*
X029284Y002163D01*
X029362Y002240D02*
X008878Y002240D01*
X008878Y002317D02*
X029450Y002317D01*
X029637Y002394D02*
X008878Y002394D01*
X008878Y002472D02*
X013643Y002472D01*
X013541Y002549D02*
X008878Y002549D01*
X008878Y002626D02*
X013492Y002626D01*
X013465Y002703D02*
X008878Y002703D01*
X008878Y002781D02*
X013465Y002781D01*
X013481Y002858D02*
X008878Y002858D01*
X008878Y002935D02*
X013513Y002935D01*
X013591Y003012D02*
X008878Y003012D01*
X008740Y005639D02*
X005130Y005639D01*
X005207Y005716D02*
X008740Y005716D01*
X008740Y005793D02*
X005284Y005793D01*
X005361Y005870D02*
X007716Y005870D01*
X007718Y005869D02*
X007819Y005827D01*
X007929Y005827D01*
X008030Y005869D01*
X008108Y005946D01*
X008150Y006048D01*
X008150Y006157D01*
X008108Y006258D01*
X008030Y006336D01*
X007929Y006378D01*
X007819Y006378D01*
X007718Y006336D01*
X007640Y006258D01*
X007598Y006157D01*
X007598Y006048D01*
X007640Y005946D01*
X007718Y005869D01*
X007640Y005948D02*
X005438Y005948D01*
X005516Y006025D02*
X007608Y006025D01*
X007598Y006102D02*
X005593Y006102D01*
X005670Y006179D02*
X007608Y006179D01*
X007640Y006256D02*
X005747Y006256D01*
X005825Y006334D02*
X007716Y006334D01*
X008032Y006334D02*
X008740Y006334D01*
X008740Y006256D02*
X008108Y006256D01*
X008140Y006179D02*
X008740Y006179D01*
X008740Y006102D02*
X008150Y006102D01*
X008140Y006025D02*
X008740Y006025D01*
X008740Y005948D02*
X008108Y005948D01*
X008032Y005870D02*
X008740Y005870D01*
X008040Y007106D02*
X007844Y007106D01*
X007854Y007183D02*
X007963Y007183D01*
X007886Y007261D02*
X007846Y007261D01*
X007654Y007492D02*
X006983Y007492D01*
X006334Y008187D02*
X000394Y008187D01*
X000394Y008110D02*
X006257Y008110D01*
X006180Y008033D02*
X000394Y008033D01*
X000394Y007956D02*
X006103Y007956D01*
X006025Y007879D02*
X000394Y007879D01*
X000394Y007801D02*
X005948Y007801D01*
X005871Y007724D02*
X000394Y007724D01*
X000394Y007647D02*
X005794Y007647D01*
X005716Y007570D02*
X000394Y007570D01*
X000394Y007492D02*
X005639Y007492D01*
X005562Y007415D02*
X000394Y007415D01*
X000394Y007338D02*
X005485Y007338D01*
X005407Y007261D02*
X000394Y007261D01*
X000394Y007183D02*
X005330Y007183D01*
X005253Y007106D02*
X000394Y007106D01*
X000394Y007029D02*
X005176Y007029D01*
X005098Y006952D02*
X000394Y006952D01*
X000394Y006874D02*
X005021Y006874D01*
X004944Y006797D02*
X000394Y006797D01*
X000394Y006720D02*
X004867Y006720D01*
X004789Y006643D02*
X000394Y006643D01*
X000394Y006565D02*
X004712Y006565D01*
X004635Y006488D02*
X000394Y006488D01*
X000394Y006411D02*
X004558Y006411D01*
X004481Y006334D02*
X000394Y006334D01*
X000394Y006256D02*
X004403Y006256D01*
X004326Y006179D02*
X000394Y006179D01*
X000394Y006102D02*
X004249Y006102D01*
X004172Y006025D02*
X000394Y006025D01*
X000394Y005948D02*
X001786Y005948D01*
X001701Y005912D02*
X001568Y005779D01*
X001496Y005606D01*
X001496Y005418D01*
X001568Y005244D01*
X001701Y005111D01*
X001875Y005039D01*
X002062Y005039D01*
X002236Y005111D01*
X002369Y005244D01*
X002441Y005418D01*
X002441Y005606D01*
X002369Y005779D01*
X002236Y005912D01*
X002062Y005984D01*
X001875Y005984D01*
X001701Y005912D01*
X001659Y005870D02*
X000394Y005870D01*
X000394Y005793D02*
X001582Y005793D01*
X001542Y005716D02*
X000394Y005716D01*
X000394Y005639D02*
X001510Y005639D01*
X001496Y005561D02*
X000394Y005561D01*
X000394Y005484D02*
X001496Y005484D01*
X001501Y005407D02*
X000394Y005407D01*
X000394Y005330D02*
X001533Y005330D01*
X001565Y005252D02*
X000394Y005252D01*
X000394Y005175D02*
X001637Y005175D01*
X001733Y005098D02*
X000394Y005098D01*
X000394Y005021D02*
X004035Y005021D01*
X004035Y005098D02*
X002204Y005098D01*
X002300Y005175D02*
X004035Y005175D01*
X004035Y005252D02*
X002372Y005252D01*
X002404Y005330D02*
X004035Y005330D01*
X004035Y005407D02*
X002436Y005407D01*
X002441Y005484D02*
X004035Y005484D01*
X004035Y005561D02*
X002441Y005561D01*
X002427Y005639D02*
X004035Y005639D01*
X004035Y005716D02*
X002395Y005716D01*
X002355Y005793D02*
X004035Y005793D01*
X004035Y005870D02*
X002278Y005870D01*
X002151Y005948D02*
X004094Y005948D01*
X004035Y004943D02*
X000394Y004943D01*
X000394Y004866D02*
X004035Y004866D01*
X004035Y004789D02*
X000394Y004789D01*
X000394Y004712D02*
X004065Y004712D01*
X004142Y004634D02*
X000394Y004634D01*
X000394Y004557D02*
X005295Y004557D01*
X005295Y004480D02*
X000394Y004480D01*
X000394Y004403D02*
X005295Y004403D01*
X005295Y004325D02*
X000394Y004325D01*
X000394Y004248D02*
X005295Y004248D01*
X005295Y004171D02*
X000394Y004171D01*
X000394Y004094D02*
X005295Y004094D01*
X005295Y004017D02*
X000394Y004017D01*
X000394Y003939D02*
X005295Y003939D01*
X005295Y003862D02*
X000394Y003862D01*
X000394Y003785D02*
X005295Y003785D01*
X005295Y003708D02*
X000394Y003708D01*
X000394Y003630D02*
X005295Y003630D01*
X005295Y003553D02*
X000394Y003553D01*
X000394Y003476D02*
X005295Y003476D01*
X005295Y003399D02*
X000394Y003399D01*
X000394Y003321D02*
X005295Y003321D01*
X005295Y003244D02*
X000394Y003244D01*
X000394Y003167D02*
X005295Y003167D01*
X005295Y003090D02*
X000394Y003090D01*
X000394Y003012D02*
X005295Y003012D01*
X005295Y002935D02*
X000394Y002935D01*
X000394Y002858D02*
X005295Y002858D01*
X005295Y002781D02*
X004633Y002781D01*
X004783Y002703D02*
X005241Y002703D01*
X005163Y002626D02*
X004860Y002626D01*
X004903Y002549D02*
X005120Y002549D01*
X005088Y002472D02*
X004935Y002472D01*
X004945Y002394D02*
X005079Y002394D01*
X005079Y002317D02*
X004945Y002317D01*
X004930Y002240D02*
X005094Y002240D01*
X005126Y002163D02*
X004898Y002163D01*
X004848Y002085D02*
X005176Y002085D01*
X005253Y002008D02*
X004770Y002008D01*
X004253Y002008D02*
X002333Y002008D01*
X002289Y002085D02*
X004176Y002085D01*
X004126Y002163D02*
X002212Y002163D01*
X002135Y002240D02*
X004094Y002240D01*
X004079Y002317D02*
X002046Y002317D01*
X001859Y002394D02*
X004079Y002394D01*
X004088Y002472D02*
X000394Y002472D01*
X000394Y002549D02*
X004120Y002549D01*
X004163Y002626D02*
X000394Y002626D01*
X000394Y002703D02*
X004241Y002703D01*
X004390Y002781D02*
X000394Y002781D01*
X000394Y002394D02*
X001290Y002394D01*
X001104Y002317D02*
X000394Y002317D01*
X000394Y002240D02*
X001015Y002240D01*
X000938Y002163D02*
X000394Y002163D01*
X000394Y002085D02*
X000861Y002085D01*
X000817Y002008D02*
X000394Y002008D01*
X000394Y001931D02*
X000785Y001931D01*
X000753Y001854D02*
X000394Y001854D01*
X000394Y001777D02*
X000721Y001777D01*
X000709Y001699D02*
X000394Y001699D01*
X000394Y001622D02*
X000709Y001622D01*
X000709Y001545D02*
X000394Y001545D01*
X000394Y001468D02*
X000709Y001468D01*
X000714Y001390D02*
X000394Y001390D01*
X000394Y001313D02*
X000746Y001313D01*
X000778Y001236D02*
X000394Y001236D01*
X000394Y001159D02*
X000810Y001159D01*
X000843Y001081D02*
X000394Y001081D01*
X000394Y001004D02*
X000921Y001004D01*
X000998Y000927D02*
X000394Y000927D01*
X000394Y000850D02*
X001075Y000850D01*
X001249Y000772D02*
X000394Y000772D01*
X000394Y000695D02*
X031102Y000695D01*
X031102Y000618D02*
X000394Y000618D01*
X000394Y000541D02*
X031102Y000541D01*
X031102Y000463D02*
X000394Y000463D01*
X000394Y008265D02*
X006398Y008265D01*
X006398Y008342D02*
X000394Y008342D01*
X000394Y008419D02*
X006398Y008419D01*
X006398Y008496D02*
X000394Y008496D01*
X000394Y008574D02*
X006398Y008574D01*
X006398Y008651D02*
X000394Y008651D01*
X000394Y008728D02*
X006398Y008728D01*
X006398Y008805D02*
X000394Y008805D01*
X000394Y008883D02*
X004458Y008883D01*
X004388Y008960D02*
X000394Y008960D01*
X000394Y009037D02*
X004356Y009037D01*
X004350Y009114D02*
X000394Y009114D01*
X000394Y009192D02*
X004364Y009192D01*
X004382Y009269D02*
X000394Y009269D01*
X000394Y009346D02*
X004350Y009346D01*
X004350Y009423D02*
X000394Y009423D01*
X000394Y009501D02*
X004370Y009501D01*
X004414Y009578D02*
X000394Y009578D01*
X000394Y009810D02*
X004663Y009810D01*
X004588Y009887D02*
X000394Y009887D01*
X000394Y009964D02*
X004556Y009964D01*
X004547Y010041D02*
X000394Y010041D01*
X000394Y010118D02*
X004557Y010118D01*
X004589Y010196D02*
X000394Y010196D01*
X000394Y010273D02*
X004667Y010273D01*
X004768Y010315D02*
X004878Y010315D01*
X004979Y010273D01*
X005087Y010505D02*
X006181Y010505D01*
X006181Y010582D02*
X005159Y010582D01*
X005191Y010659D02*
X006181Y010659D01*
X006181Y010736D02*
X005197Y010736D01*
X005184Y010814D02*
X006181Y010814D01*
X006181Y010891D02*
X005165Y010891D01*
X005197Y010968D02*
X006181Y010968D01*
X006181Y011045D02*
X005197Y011045D01*
X005179Y011123D02*
X006181Y011123D01*
X006181Y011200D02*
X005135Y011200D01*
X005029Y011277D02*
X006181Y011277D01*
X006181Y011432D02*
X000394Y011432D01*
X000394Y011509D02*
X006181Y011509D01*
X006181Y011586D02*
X000394Y011586D01*
X000394Y011663D02*
X006181Y011663D01*
X006195Y010427D02*
X000394Y010427D01*
X000394Y010350D02*
X006273Y010350D01*
X006487Y009423D02*
X005197Y009423D01*
X005197Y009346D02*
X006410Y009346D01*
X006398Y009269D02*
X005165Y009269D01*
X005183Y009192D02*
X006398Y009192D01*
X006398Y009114D02*
X005197Y009114D01*
X005192Y009037D02*
X006398Y009037D01*
X006398Y008960D02*
X005160Y008960D01*
X005089Y008883D02*
X006398Y008883D01*
X006594Y008883D02*
X007087Y008883D01*
X007087Y008960D02*
X006594Y008960D01*
X006594Y009037D02*
X007087Y009037D01*
X007087Y009114D02*
X006594Y009114D01*
X006594Y009192D02*
X007087Y009192D01*
X007087Y008805D02*
X006594Y008805D01*
X006594Y008728D02*
X007087Y008728D01*
X007087Y008651D02*
X006594Y008651D01*
X006594Y008574D02*
X007087Y008574D01*
X010100Y010891D02*
X010242Y010891D01*
X006979Y014980D02*
X006979Y014980D01*
X000866Y016452D02*
X000575Y016452D01*
X000498Y016529D02*
X000866Y016529D01*
X000866Y016607D02*
X000421Y016607D01*
X000394Y016684D02*
X000866Y016684D01*
X000866Y016761D02*
X000394Y016761D01*
X000394Y016838D02*
X000866Y016838D01*
X000866Y016916D02*
X000394Y016916D01*
X000394Y016993D02*
X000866Y016993D01*
X000866Y017070D02*
X000394Y017070D01*
X000394Y017147D02*
X000866Y017147D01*
X000866Y017225D02*
X000394Y017225D01*
X000394Y017302D02*
X000866Y017302D01*
X000866Y017379D02*
X000394Y017379D01*
X000394Y017456D02*
X000866Y017456D01*
X000866Y017534D02*
X000394Y017534D01*
X000394Y017611D02*
X000866Y017611D01*
X000866Y017688D02*
X000394Y017688D01*
X000394Y017765D02*
X000866Y017765D01*
X000866Y017843D02*
X000394Y017843D01*
X000394Y017920D02*
X000866Y017920D01*
X000866Y017997D02*
X000394Y017997D01*
X000394Y018074D02*
X000866Y018074D01*
X000866Y018151D02*
X000394Y018151D01*
X000394Y018229D02*
X000866Y018229D01*
X000866Y018306D02*
X000394Y018306D01*
X000394Y018383D02*
X000866Y018383D01*
X000866Y018460D02*
X000394Y018460D01*
X000394Y018538D02*
X000866Y018538D01*
X000866Y018615D02*
X000394Y018615D01*
X000394Y018692D02*
X000866Y018692D01*
X000866Y018769D02*
X000394Y018769D01*
X000394Y018847D02*
X000866Y018847D01*
X000866Y018924D02*
X000394Y018924D01*
X000394Y019001D02*
X000866Y019001D01*
X000866Y019078D02*
X000394Y019078D01*
X000394Y019156D02*
X000866Y019156D01*
X000866Y019233D02*
X000394Y019233D01*
X000394Y019310D02*
X000866Y019310D01*
X000866Y019387D02*
X000394Y019387D01*
X000394Y019465D02*
X000866Y019465D01*
X000866Y019542D02*
X000394Y019542D01*
X000394Y019619D02*
X000866Y019619D01*
X000866Y019696D02*
X000394Y019696D01*
X000394Y019774D02*
X000866Y019774D01*
X000866Y019851D02*
X000394Y019851D01*
X000394Y019928D02*
X000866Y019928D01*
X000866Y020005D02*
X000394Y020005D01*
X000394Y020083D02*
X000866Y020083D01*
X000866Y020160D02*
X000394Y020160D01*
X000394Y020237D02*
X000866Y020237D01*
X000866Y020314D02*
X000394Y020314D01*
X000394Y020391D02*
X000866Y020391D01*
X000866Y020469D02*
X000394Y020469D01*
X000394Y020546D02*
X000866Y020546D01*
X000866Y020623D02*
X000394Y020623D01*
X000394Y020700D02*
X000866Y020700D01*
X000866Y020778D02*
X000394Y020778D01*
X000394Y020855D02*
X000866Y020855D01*
X000866Y020932D02*
X000394Y020932D01*
X000394Y021009D02*
X000866Y021009D01*
X000866Y021087D02*
X000394Y021087D01*
X000394Y021164D02*
X000866Y021164D01*
X000866Y021241D02*
X000394Y021241D01*
X000394Y021318D02*
X000866Y021318D01*
X000866Y021396D02*
X000394Y021396D01*
X000394Y021473D02*
X000866Y021473D01*
X000866Y021550D02*
X000394Y021550D01*
X000394Y021627D02*
X000866Y021627D01*
X000866Y021705D02*
X000394Y021705D01*
X000394Y021782D02*
X000866Y021782D01*
X000866Y021859D02*
X000394Y021859D01*
X000394Y021936D02*
X000866Y021936D01*
X000866Y022014D02*
X000394Y022014D01*
X000394Y022091D02*
X000866Y022091D01*
X000866Y022168D02*
X000394Y022168D01*
X000394Y022245D02*
X000866Y022245D01*
X000866Y022322D02*
X000394Y022322D01*
X000394Y022400D02*
X000866Y022400D01*
X000911Y022477D02*
X000394Y022477D01*
X000394Y022554D02*
X000988Y022554D01*
X001065Y022631D02*
X000394Y022631D01*
X000394Y022709D02*
X001143Y022709D01*
X001220Y022786D02*
X000394Y022786D01*
X000394Y022863D02*
X001297Y022863D01*
X001374Y022940D02*
X000394Y022940D01*
X000394Y023018D02*
X001452Y023018D01*
X001512Y023095D02*
X000394Y023095D01*
X000394Y023172D02*
X001496Y023172D01*
X001496Y023249D02*
X000394Y023249D01*
X000394Y023327D02*
X001498Y023327D01*
X001530Y023404D02*
X000394Y023404D01*
X000394Y023481D02*
X001562Y023481D01*
X001630Y023558D02*
X000394Y023558D01*
X000394Y023636D02*
X001717Y023636D01*
X001247Y029120D02*
X000394Y029120D01*
X000394Y029197D02*
X001074Y029197D01*
X000997Y029274D02*
X000394Y029274D01*
X000394Y029351D02*
X000920Y029351D01*
X000843Y029429D02*
X000394Y029429D01*
X000394Y029506D02*
X000809Y029506D01*
X000777Y029583D02*
X000394Y029583D01*
X000394Y029660D02*
X000745Y029660D01*
X000713Y029738D02*
X000394Y029738D01*
X000394Y029815D02*
X000709Y029815D01*
X000709Y029892D02*
X000394Y029892D01*
X000394Y029969D02*
X000709Y029969D01*
X000709Y030047D02*
X000394Y030047D01*
X000394Y030124D02*
X000721Y030124D01*
X000753Y030201D02*
X000394Y030201D01*
X000394Y030278D02*
X000785Y030278D01*
X000817Y030355D02*
X000394Y030355D01*
X000394Y030433D02*
X000861Y030433D01*
X000939Y030510D02*
X000394Y030510D01*
X000394Y030587D02*
X001016Y030587D01*
X001106Y030664D02*
X000394Y030664D01*
X000394Y030742D02*
X001292Y030742D01*
X000539Y031051D02*
X012503Y031051D01*
X012580Y030973D02*
X000462Y030973D01*
X011514Y029351D02*
X011782Y029351D01*
X012362Y029969D02*
X012648Y029969D01*
X012648Y029892D02*
X012439Y029892D01*
X012516Y029815D02*
X012648Y029815D01*
X012648Y029738D02*
X012593Y029738D01*
X012648Y030047D02*
X012284Y030047D01*
X012268Y030063D02*
X012268Y030063D01*
X012207Y030124D02*
X012648Y030124D01*
X012648Y030201D02*
X012102Y030201D01*
X030204Y030742D02*
X031102Y030742D01*
X031102Y030664D02*
X030390Y030664D01*
X030480Y030587D02*
X031102Y030587D01*
X031102Y030510D02*
X030557Y030510D01*
X030635Y030433D02*
X031102Y030433D01*
X031102Y030355D02*
X030679Y030355D01*
X030711Y030278D02*
X031102Y030278D01*
X031102Y030201D02*
X030743Y030201D01*
X030775Y030124D02*
X031102Y030124D01*
X031102Y030047D02*
X030787Y030047D01*
X030787Y029969D02*
X031102Y029969D01*
X031102Y029892D02*
X030787Y029892D01*
X030787Y029815D02*
X031102Y029815D01*
X031102Y029738D02*
X030783Y029738D01*
X030751Y029660D02*
X031102Y029660D01*
X031102Y029583D02*
X030719Y029583D01*
X030687Y029506D02*
X031102Y029506D01*
X031102Y029429D02*
X030654Y029429D01*
X030576Y029351D02*
X031102Y029351D01*
X031102Y029274D02*
X030499Y029274D01*
X030422Y029197D02*
X031102Y029197D01*
X031102Y029120D02*
X030249Y029120D01*
X030206Y002394D02*
X031102Y002394D01*
X031102Y002317D02*
X030392Y002317D01*
X030481Y002240D02*
X031102Y002240D01*
X031102Y002163D02*
X030558Y002163D01*
X030635Y002085D02*
X031102Y002085D01*
X031102Y002008D02*
X030679Y002008D01*
X030711Y001931D02*
X031102Y001931D01*
X031102Y001854D02*
X030743Y001854D01*
X030775Y001777D02*
X031102Y001777D01*
X031102Y001699D02*
X030787Y001699D01*
X030787Y001622D02*
X031102Y001622D01*
X031102Y001545D02*
X030787Y001545D01*
X030787Y001468D02*
X031102Y001468D01*
X031102Y001390D02*
X030782Y001390D01*
X030750Y001313D02*
X031102Y001313D01*
X031102Y001236D02*
X030718Y001236D01*
X030686Y001159D02*
X031102Y001159D01*
X031102Y001081D02*
X030653Y001081D01*
X030575Y001004D02*
X031102Y001004D01*
X031102Y000927D02*
X030498Y000927D01*
X030421Y000850D02*
X031102Y000850D01*
X031102Y000772D02*
X030247Y000772D01*
D14*
X012549Y012156D02*
X012303Y012402D01*
X007158Y012402D01*
X006890Y012669D01*
X006890Y014764D01*
X006004Y015650D01*
X002854Y015650D01*
X001969Y016535D01*
X001969Y018504D01*
X001083Y016240D02*
X001083Y022343D01*
X001969Y023228D01*
X001083Y016240D02*
X002362Y014961D01*
X005709Y014961D01*
X006398Y014272D01*
X006398Y010531D01*
X006890Y010039D01*
X010581Y010039D01*
X011909Y008711D01*
X010433Y011122D02*
X010433Y011270D01*
X010433Y011417D01*
X007776Y008071D02*
X007776Y007677D01*
X008957Y006496D01*
X008957Y003740D01*
X008661Y003445D01*
X008661Y001181D01*
X005512Y002362D02*
X005512Y005118D01*
X005413Y005217D01*
D15*
X010433Y011270D02*
X012500Y011270D01*
X013484Y012254D01*
X013484Y013878D01*
X013091Y014272D01*
X013091Y028642D01*
X011909Y029823D01*
X011417Y029823D01*
D16*
X022392Y018061D02*
X022392Y003150D01*
X021998Y002756D01*
X013780Y002756D01*
M02*
