G75*
G70*
%OFA0B0*%
%FSLAX24Y24*%
%IPPOS*%
%LPD*%
%AMOC8*
5,1,8,0,0,1.08239X$1,22.5*
%
%ADD10C,0.0100*%
%ADD11C,0.0079*%
%ADD12C,0.0080*%
%ADD13C,0.0070*%
D10*
X001469Y005512D02*
X001471Y005556D01*
X001477Y005600D01*
X001487Y005643D01*
X001500Y005685D01*
X001517Y005726D01*
X001538Y005765D01*
X001562Y005802D01*
X001589Y005837D01*
X001619Y005869D01*
X001652Y005899D01*
X001688Y005925D01*
X001725Y005949D01*
X001765Y005968D01*
X001806Y005985D01*
X001849Y005997D01*
X001892Y006006D01*
X001936Y006011D01*
X001980Y006012D01*
X002024Y006009D01*
X002068Y006002D01*
X002111Y005991D01*
X002153Y005977D01*
X002193Y005959D01*
X002232Y005937D01*
X002268Y005913D01*
X002302Y005885D01*
X002334Y005854D01*
X002363Y005820D01*
X002389Y005784D01*
X002411Y005746D01*
X002430Y005706D01*
X002445Y005664D01*
X002457Y005622D01*
X002465Y005578D01*
X002469Y005534D01*
X002469Y005490D01*
X002465Y005446D01*
X002457Y005402D01*
X002445Y005360D01*
X002430Y005318D01*
X002411Y005278D01*
X002389Y005240D01*
X002363Y005204D01*
X002334Y005170D01*
X002302Y005139D01*
X002268Y005111D01*
X002232Y005087D01*
X002193Y005065D01*
X002153Y005047D01*
X002111Y005033D01*
X002068Y005022D01*
X002024Y005015D01*
X001980Y005012D01*
X001936Y005013D01*
X001892Y005018D01*
X001849Y005027D01*
X001806Y005039D01*
X001765Y005056D01*
X001725Y005075D01*
X001688Y005099D01*
X001652Y005125D01*
X001619Y005155D01*
X001589Y005187D01*
X001562Y005222D01*
X001538Y005259D01*
X001517Y005298D01*
X001500Y005339D01*
X001487Y005381D01*
X001477Y005424D01*
X001471Y005468D01*
X001469Y005512D01*
X001469Y009843D02*
X001471Y009887D01*
X001477Y009931D01*
X001487Y009974D01*
X001500Y010016D01*
X001517Y010057D01*
X001538Y010096D01*
X001562Y010133D01*
X001589Y010168D01*
X001619Y010200D01*
X001652Y010230D01*
X001688Y010256D01*
X001725Y010280D01*
X001765Y010299D01*
X001806Y010316D01*
X001849Y010328D01*
X001892Y010337D01*
X001936Y010342D01*
X001980Y010343D01*
X002024Y010340D01*
X002068Y010333D01*
X002111Y010322D01*
X002153Y010308D01*
X002193Y010290D01*
X002232Y010268D01*
X002268Y010244D01*
X002302Y010216D01*
X002334Y010185D01*
X002363Y010151D01*
X002389Y010115D01*
X002411Y010077D01*
X002430Y010037D01*
X002445Y009995D01*
X002457Y009953D01*
X002465Y009909D01*
X002469Y009865D01*
X002469Y009821D01*
X002465Y009777D01*
X002457Y009733D01*
X002445Y009691D01*
X002430Y009649D01*
X002411Y009609D01*
X002389Y009571D01*
X002363Y009535D01*
X002334Y009501D01*
X002302Y009470D01*
X002268Y009442D01*
X002232Y009418D01*
X002193Y009396D01*
X002153Y009378D01*
X002111Y009364D01*
X002068Y009353D01*
X002024Y009346D01*
X001980Y009343D01*
X001936Y009344D01*
X001892Y009349D01*
X001849Y009358D01*
X001806Y009370D01*
X001765Y009387D01*
X001725Y009406D01*
X001688Y009430D01*
X001652Y009456D01*
X001619Y009486D01*
X001589Y009518D01*
X001562Y009553D01*
X001538Y009590D01*
X001517Y009629D01*
X001500Y009670D01*
X001487Y009712D01*
X001477Y009755D01*
X001471Y009799D01*
X001469Y009843D01*
X001469Y014173D02*
X001471Y014217D01*
X001477Y014261D01*
X001487Y014304D01*
X001500Y014346D01*
X001517Y014387D01*
X001538Y014426D01*
X001562Y014463D01*
X001589Y014498D01*
X001619Y014530D01*
X001652Y014560D01*
X001688Y014586D01*
X001725Y014610D01*
X001765Y014629D01*
X001806Y014646D01*
X001849Y014658D01*
X001892Y014667D01*
X001936Y014672D01*
X001980Y014673D01*
X002024Y014670D01*
X002068Y014663D01*
X002111Y014652D01*
X002153Y014638D01*
X002193Y014620D01*
X002232Y014598D01*
X002268Y014574D01*
X002302Y014546D01*
X002334Y014515D01*
X002363Y014481D01*
X002389Y014445D01*
X002411Y014407D01*
X002430Y014367D01*
X002445Y014325D01*
X002457Y014283D01*
X002465Y014239D01*
X002469Y014195D01*
X002469Y014151D01*
X002465Y014107D01*
X002457Y014063D01*
X002445Y014021D01*
X002430Y013979D01*
X002411Y013939D01*
X002389Y013901D01*
X002363Y013865D01*
X002334Y013831D01*
X002302Y013800D01*
X002268Y013772D01*
X002232Y013748D01*
X002193Y013726D01*
X002153Y013708D01*
X002111Y013694D01*
X002068Y013683D01*
X002024Y013676D01*
X001980Y013673D01*
X001936Y013674D01*
X001892Y013679D01*
X001849Y013688D01*
X001806Y013700D01*
X001765Y013717D01*
X001725Y013736D01*
X001688Y013760D01*
X001652Y013786D01*
X001619Y013816D01*
X001589Y013848D01*
X001562Y013883D01*
X001538Y013920D01*
X001517Y013959D01*
X001500Y014000D01*
X001487Y014042D01*
X001477Y014085D01*
X001471Y014129D01*
X001469Y014173D01*
X001469Y018504D02*
X001471Y018548D01*
X001477Y018592D01*
X001487Y018635D01*
X001500Y018677D01*
X001517Y018718D01*
X001538Y018757D01*
X001562Y018794D01*
X001589Y018829D01*
X001619Y018861D01*
X001652Y018891D01*
X001688Y018917D01*
X001725Y018941D01*
X001765Y018960D01*
X001806Y018977D01*
X001849Y018989D01*
X001892Y018998D01*
X001936Y019003D01*
X001980Y019004D01*
X002024Y019001D01*
X002068Y018994D01*
X002111Y018983D01*
X002153Y018969D01*
X002193Y018951D01*
X002232Y018929D01*
X002268Y018905D01*
X002302Y018877D01*
X002334Y018846D01*
X002363Y018812D01*
X002389Y018776D01*
X002411Y018738D01*
X002430Y018698D01*
X002445Y018656D01*
X002457Y018614D01*
X002465Y018570D01*
X002469Y018526D01*
X002469Y018482D01*
X002465Y018438D01*
X002457Y018394D01*
X002445Y018352D01*
X002430Y018310D01*
X002411Y018270D01*
X002389Y018232D01*
X002363Y018196D01*
X002334Y018162D01*
X002302Y018131D01*
X002268Y018103D01*
X002232Y018079D01*
X002193Y018057D01*
X002153Y018039D01*
X002111Y018025D01*
X002068Y018014D01*
X002024Y018007D01*
X001980Y018004D01*
X001936Y018005D01*
X001892Y018010D01*
X001849Y018019D01*
X001806Y018031D01*
X001765Y018048D01*
X001725Y018067D01*
X001688Y018091D01*
X001652Y018117D01*
X001619Y018147D01*
X001589Y018179D01*
X001562Y018214D01*
X001538Y018251D01*
X001517Y018290D01*
X001500Y018331D01*
X001487Y018373D01*
X001477Y018416D01*
X001471Y018460D01*
X001469Y018504D01*
X001469Y023228D02*
X001471Y023272D01*
X001477Y023316D01*
X001487Y023359D01*
X001500Y023401D01*
X001517Y023442D01*
X001538Y023481D01*
X001562Y023518D01*
X001589Y023553D01*
X001619Y023585D01*
X001652Y023615D01*
X001688Y023641D01*
X001725Y023665D01*
X001765Y023684D01*
X001806Y023701D01*
X001849Y023713D01*
X001892Y023722D01*
X001936Y023727D01*
X001980Y023728D01*
X002024Y023725D01*
X002068Y023718D01*
X002111Y023707D01*
X002153Y023693D01*
X002193Y023675D01*
X002232Y023653D01*
X002268Y023629D01*
X002302Y023601D01*
X002334Y023570D01*
X002363Y023536D01*
X002389Y023500D01*
X002411Y023462D01*
X002430Y023422D01*
X002445Y023380D01*
X002457Y023338D01*
X002465Y023294D01*
X002469Y023250D01*
X002469Y023206D01*
X002465Y023162D01*
X002457Y023118D01*
X002445Y023076D01*
X002430Y023034D01*
X002411Y022994D01*
X002389Y022956D01*
X002363Y022920D01*
X002334Y022886D01*
X002302Y022855D01*
X002268Y022827D01*
X002232Y022803D01*
X002193Y022781D01*
X002153Y022763D01*
X002111Y022749D01*
X002068Y022738D01*
X002024Y022731D01*
X001980Y022728D01*
X001936Y022729D01*
X001892Y022734D01*
X001849Y022743D01*
X001806Y022755D01*
X001765Y022772D01*
X001725Y022791D01*
X001688Y022815D01*
X001652Y022841D01*
X001619Y022871D01*
X001589Y022903D01*
X001562Y022938D01*
X001538Y022975D01*
X001517Y023014D01*
X001500Y023055D01*
X001487Y023097D01*
X001477Y023140D01*
X001471Y023184D01*
X001469Y023228D01*
X010917Y029823D02*
X010919Y029867D01*
X010925Y029911D01*
X010935Y029954D01*
X010948Y029996D01*
X010965Y030037D01*
X010986Y030076D01*
X011010Y030113D01*
X011037Y030148D01*
X011067Y030180D01*
X011100Y030210D01*
X011136Y030236D01*
X011173Y030260D01*
X011213Y030279D01*
X011254Y030296D01*
X011297Y030308D01*
X011340Y030317D01*
X011384Y030322D01*
X011428Y030323D01*
X011472Y030320D01*
X011516Y030313D01*
X011559Y030302D01*
X011601Y030288D01*
X011641Y030270D01*
X011680Y030248D01*
X011716Y030224D01*
X011750Y030196D01*
X011782Y030165D01*
X011811Y030131D01*
X011837Y030095D01*
X011859Y030057D01*
X011878Y030017D01*
X011893Y029975D01*
X011905Y029933D01*
X011913Y029889D01*
X011917Y029845D01*
X011917Y029801D01*
X011913Y029757D01*
X011905Y029713D01*
X011893Y029671D01*
X011878Y029629D01*
X011859Y029589D01*
X011837Y029551D01*
X011811Y029515D01*
X011782Y029481D01*
X011750Y029450D01*
X011716Y029422D01*
X011680Y029398D01*
X011641Y029376D01*
X011601Y029358D01*
X011559Y029344D01*
X011516Y029333D01*
X011472Y029326D01*
X011428Y029323D01*
X011384Y029324D01*
X011340Y029329D01*
X011297Y029338D01*
X011254Y029350D01*
X011213Y029367D01*
X011173Y029386D01*
X011136Y029410D01*
X011100Y029436D01*
X011067Y029466D01*
X011037Y029498D01*
X011010Y029533D01*
X010986Y029570D01*
X010965Y029609D01*
X010948Y029650D01*
X010935Y029692D01*
X010925Y029735D01*
X010919Y029779D01*
X010917Y029823D01*
X016232Y029823D02*
X016234Y029867D01*
X016240Y029911D01*
X016250Y029954D01*
X016263Y029996D01*
X016280Y030037D01*
X016301Y030076D01*
X016325Y030113D01*
X016352Y030148D01*
X016382Y030180D01*
X016415Y030210D01*
X016451Y030236D01*
X016488Y030260D01*
X016528Y030279D01*
X016569Y030296D01*
X016612Y030308D01*
X016655Y030317D01*
X016699Y030322D01*
X016743Y030323D01*
X016787Y030320D01*
X016831Y030313D01*
X016874Y030302D01*
X016916Y030288D01*
X016956Y030270D01*
X016995Y030248D01*
X017031Y030224D01*
X017065Y030196D01*
X017097Y030165D01*
X017126Y030131D01*
X017152Y030095D01*
X017174Y030057D01*
X017193Y030017D01*
X017208Y029975D01*
X017220Y029933D01*
X017228Y029889D01*
X017232Y029845D01*
X017232Y029801D01*
X017228Y029757D01*
X017220Y029713D01*
X017208Y029671D01*
X017193Y029629D01*
X017174Y029589D01*
X017152Y029551D01*
X017126Y029515D01*
X017097Y029481D01*
X017065Y029450D01*
X017031Y029422D01*
X016995Y029398D01*
X016956Y029376D01*
X016916Y029358D01*
X016874Y029344D01*
X016831Y029333D01*
X016787Y029326D01*
X016743Y029323D01*
X016699Y029324D01*
X016655Y029329D01*
X016612Y029338D01*
X016569Y029350D01*
X016528Y029367D01*
X016488Y029386D01*
X016451Y029410D01*
X016415Y029436D01*
X016382Y029466D01*
X016352Y029498D01*
X016325Y029533D01*
X016301Y029570D01*
X016280Y029609D01*
X016263Y029650D01*
X016250Y029692D01*
X016240Y029735D01*
X016234Y029779D01*
X016232Y029823D01*
X029421Y019193D02*
X029423Y019237D01*
X029429Y019281D01*
X029439Y019324D01*
X029452Y019366D01*
X029469Y019407D01*
X029490Y019446D01*
X029514Y019483D01*
X029541Y019518D01*
X029571Y019550D01*
X029604Y019580D01*
X029640Y019606D01*
X029677Y019630D01*
X029717Y019649D01*
X029758Y019666D01*
X029801Y019678D01*
X029844Y019687D01*
X029888Y019692D01*
X029932Y019693D01*
X029976Y019690D01*
X030020Y019683D01*
X030063Y019672D01*
X030105Y019658D01*
X030145Y019640D01*
X030184Y019618D01*
X030220Y019594D01*
X030254Y019566D01*
X030286Y019535D01*
X030315Y019501D01*
X030341Y019465D01*
X030363Y019427D01*
X030382Y019387D01*
X030397Y019345D01*
X030409Y019303D01*
X030417Y019259D01*
X030421Y019215D01*
X030421Y019171D01*
X030417Y019127D01*
X030409Y019083D01*
X030397Y019041D01*
X030382Y018999D01*
X030363Y018959D01*
X030341Y018921D01*
X030315Y018885D01*
X030286Y018851D01*
X030254Y018820D01*
X030220Y018792D01*
X030184Y018768D01*
X030145Y018746D01*
X030105Y018728D01*
X030063Y018714D01*
X030020Y018703D01*
X029976Y018696D01*
X029932Y018693D01*
X029888Y018694D01*
X029844Y018699D01*
X029801Y018708D01*
X029758Y018720D01*
X029717Y018737D01*
X029677Y018756D01*
X029640Y018780D01*
X029604Y018806D01*
X029571Y018836D01*
X029541Y018868D01*
X029514Y018903D01*
X029490Y018940D01*
X029469Y018979D01*
X029452Y019020D01*
X029439Y019062D01*
X029429Y019105D01*
X029423Y019149D01*
X029421Y019193D01*
X029421Y006988D02*
X029423Y007032D01*
X029429Y007076D01*
X029439Y007119D01*
X029452Y007161D01*
X029469Y007202D01*
X029490Y007241D01*
X029514Y007278D01*
X029541Y007313D01*
X029571Y007345D01*
X029604Y007375D01*
X029640Y007401D01*
X029677Y007425D01*
X029717Y007444D01*
X029758Y007461D01*
X029801Y007473D01*
X029844Y007482D01*
X029888Y007487D01*
X029932Y007488D01*
X029976Y007485D01*
X030020Y007478D01*
X030063Y007467D01*
X030105Y007453D01*
X030145Y007435D01*
X030184Y007413D01*
X030220Y007389D01*
X030254Y007361D01*
X030286Y007330D01*
X030315Y007296D01*
X030341Y007260D01*
X030363Y007222D01*
X030382Y007182D01*
X030397Y007140D01*
X030409Y007098D01*
X030417Y007054D01*
X030421Y007010D01*
X030421Y006966D01*
X030417Y006922D01*
X030409Y006878D01*
X030397Y006836D01*
X030382Y006794D01*
X030363Y006754D01*
X030341Y006716D01*
X030315Y006680D01*
X030286Y006646D01*
X030254Y006615D01*
X030220Y006587D01*
X030184Y006563D01*
X030145Y006541D01*
X030105Y006523D01*
X030063Y006509D01*
X030020Y006498D01*
X029976Y006491D01*
X029932Y006488D01*
X029888Y006489D01*
X029844Y006494D01*
X029801Y006503D01*
X029758Y006515D01*
X029717Y006532D01*
X029677Y006551D01*
X029640Y006575D01*
X029604Y006601D01*
X029571Y006631D01*
X029541Y006663D01*
X029514Y006698D01*
X029490Y006735D01*
X029469Y006774D01*
X029452Y006815D01*
X029439Y006857D01*
X029429Y006900D01*
X029423Y006944D01*
X029421Y006988D01*
X008161Y001181D02*
X008163Y001225D01*
X008169Y001269D01*
X008179Y001312D01*
X008192Y001354D01*
X008209Y001395D01*
X008230Y001434D01*
X008254Y001471D01*
X008281Y001506D01*
X008311Y001538D01*
X008344Y001568D01*
X008380Y001594D01*
X008417Y001618D01*
X008457Y001637D01*
X008498Y001654D01*
X008541Y001666D01*
X008584Y001675D01*
X008628Y001680D01*
X008672Y001681D01*
X008716Y001678D01*
X008760Y001671D01*
X008803Y001660D01*
X008845Y001646D01*
X008885Y001628D01*
X008924Y001606D01*
X008960Y001582D01*
X008994Y001554D01*
X009026Y001523D01*
X009055Y001489D01*
X009081Y001453D01*
X009103Y001415D01*
X009122Y001375D01*
X009137Y001333D01*
X009149Y001291D01*
X009157Y001247D01*
X009161Y001203D01*
X009161Y001159D01*
X009157Y001115D01*
X009149Y001071D01*
X009137Y001029D01*
X009122Y000987D01*
X009103Y000947D01*
X009081Y000909D01*
X009055Y000873D01*
X009026Y000839D01*
X008994Y000808D01*
X008960Y000780D01*
X008924Y000756D01*
X008885Y000734D01*
X008845Y000716D01*
X008803Y000702D01*
X008760Y000691D01*
X008716Y000684D01*
X008672Y000681D01*
X008628Y000682D01*
X008584Y000687D01*
X008541Y000696D01*
X008498Y000708D01*
X008457Y000725D01*
X008417Y000744D01*
X008380Y000768D01*
X008344Y000794D01*
X008311Y000824D01*
X008281Y000856D01*
X008254Y000891D01*
X008230Y000928D01*
X008209Y000967D01*
X008192Y001008D01*
X008179Y001050D01*
X008169Y001093D01*
X008163Y001137D01*
X008161Y001181D01*
D11*
X004665Y003543D02*
X004193Y003543D01*
X004193Y004724D01*
X004665Y004724D01*
X004665Y003543D01*
X005098Y010502D02*
X005728Y010502D01*
X005728Y011841D01*
X005098Y011841D01*
X005098Y010502D01*
X007874Y010591D02*
X007874Y011063D01*
X009055Y011063D01*
X009055Y010591D01*
X007874Y010591D01*
X007874Y011378D02*
X007874Y011850D01*
X009055Y011850D01*
X009055Y011378D01*
X007874Y011378D01*
X010630Y011358D02*
X011417Y011358D01*
X011417Y011319D01*
X010630Y011319D01*
X010630Y011358D01*
X010630Y011417D01*
X010630Y011496D01*
X010630Y013307D01*
X011417Y013307D01*
X011417Y011496D01*
X011417Y011417D01*
X011417Y011358D01*
X011417Y011417D02*
X010630Y011417D01*
X010630Y011496D02*
X011417Y011496D01*
X010610Y013681D02*
X010610Y014469D01*
X012421Y014469D01*
X012500Y014469D01*
X012559Y014469D01*
X012559Y013681D01*
X012500Y013681D01*
X012421Y013681D01*
X010610Y013681D01*
X012421Y013681D02*
X012421Y014469D01*
X012500Y014469D02*
X012500Y013681D01*
X012559Y013681D02*
X012598Y013681D01*
X012598Y014469D01*
X012559Y014469D01*
X014419Y014557D02*
X014419Y014085D01*
X015600Y014085D01*
X015600Y014557D01*
X014419Y014557D01*
X014587Y016388D02*
X012776Y016388D01*
X012697Y016388D01*
X012638Y016388D01*
X012638Y017175D01*
X012697Y017175D01*
X012776Y017175D01*
X014587Y017175D01*
X014587Y016388D01*
X014272Y017530D02*
X013091Y017530D01*
X013091Y018002D01*
X014272Y018002D01*
X014272Y017530D01*
X012923Y017648D02*
X012923Y018278D01*
X011585Y018278D01*
X011585Y017648D01*
X012923Y017648D01*
X012776Y017175D02*
X012776Y016388D01*
X012697Y016388D02*
X012697Y017175D01*
X012638Y017175D02*
X012598Y017175D01*
X012598Y016388D01*
X012638Y016388D01*
X012106Y008947D02*
X013287Y008947D01*
X013287Y008474D01*
X012106Y008474D01*
X012106Y008947D01*
D12*
X012072Y008326D02*
X012281Y008117D01*
X012229Y008169D02*
X012072Y008012D01*
X012281Y008012D02*
X012281Y008326D01*
X012434Y008012D02*
X012644Y008012D01*
X012644Y008326D01*
X012797Y008274D02*
X012849Y008326D01*
X012954Y008326D01*
X013006Y008274D01*
X013006Y008065D01*
X012954Y008012D01*
X012849Y008012D01*
X012797Y008065D01*
X013159Y008012D02*
X013264Y008117D01*
X013212Y008117D02*
X013369Y008117D01*
X013369Y008012D02*
X013369Y008326D01*
X013212Y008326D01*
X013159Y008274D01*
X013159Y008169D01*
X013212Y008117D01*
X007736Y010719D02*
X007736Y011033D01*
X007579Y011033D01*
X007526Y010981D01*
X007526Y010876D01*
X007579Y010824D01*
X007736Y010824D01*
X007631Y010824D02*
X007526Y010719D01*
X007373Y010719D02*
X007216Y010719D01*
X007164Y010771D01*
X007164Y010824D01*
X007216Y010876D01*
X007373Y010876D01*
X007373Y010719D02*
X007373Y011033D01*
X007216Y011033D01*
X007164Y010981D01*
X007164Y010928D01*
X007216Y010876D01*
X007011Y010928D02*
X006958Y010876D01*
X006854Y010876D01*
X006801Y010824D01*
X006801Y010771D01*
X006854Y010719D01*
X006958Y010719D01*
X007011Y010771D01*
X007011Y010928D02*
X007011Y010981D01*
X006958Y011033D01*
X006854Y011033D01*
X006801Y010981D01*
X006648Y011033D02*
X006439Y011033D01*
X006543Y011033D02*
X006543Y010719D01*
X006543Y011457D02*
X006543Y011771D01*
X006439Y011771D02*
X006648Y011771D01*
X006801Y011719D02*
X006854Y011771D01*
X006958Y011771D01*
X007011Y011719D01*
X007011Y011667D01*
X006958Y011614D01*
X006854Y011614D01*
X006801Y011562D01*
X006801Y011510D01*
X006854Y011457D01*
X006958Y011457D01*
X007011Y011510D01*
X007164Y011510D02*
X007216Y011457D01*
X007373Y011457D01*
X007373Y011771D01*
X007216Y011771D01*
X007164Y011719D01*
X007164Y011667D01*
X007216Y011614D01*
X007373Y011614D01*
X007216Y011614D02*
X007164Y011562D01*
X007164Y011510D01*
X007526Y011510D02*
X007579Y011457D01*
X007683Y011457D01*
X007736Y011510D01*
X007736Y011719D01*
X007683Y011771D01*
X007579Y011771D01*
X007526Y011719D01*
X005600Y010295D02*
X005495Y010295D01*
X005548Y010295D02*
X005548Y010033D01*
X005600Y009981D01*
X005652Y009981D01*
X005705Y010033D01*
X005342Y009981D02*
X005133Y009981D01*
X005238Y009981D02*
X005238Y010295D01*
X005342Y010190D01*
X005023Y004460D02*
X005023Y004247D01*
X005183Y004407D01*
X004863Y004407D01*
X004863Y004092D02*
X004970Y003985D01*
X004970Y004039D02*
X004970Y003879D01*
X004863Y003879D02*
X005183Y003879D01*
X005183Y004039D01*
X005130Y004092D01*
X005023Y004092D01*
X004970Y004039D01*
X014629Y014705D02*
X014577Y014758D01*
X014577Y014862D01*
X014681Y014862D01*
X014577Y014967D02*
X014629Y015019D01*
X014734Y015019D01*
X014786Y014967D01*
X014786Y014758D01*
X014734Y014705D01*
X014629Y014705D01*
X014939Y014705D02*
X015149Y014705D01*
X015149Y015019D01*
X015302Y014967D02*
X015302Y014862D01*
X015354Y014810D01*
X015511Y014810D01*
X015407Y014810D02*
X015302Y014705D01*
X015511Y014705D02*
X015511Y015019D01*
X015354Y015019D01*
X015302Y014967D01*
X014173Y018465D02*
X014173Y018779D01*
X014016Y018779D01*
X013963Y018727D01*
X013963Y018622D01*
X014016Y018570D01*
X014173Y018570D01*
X014068Y018570D02*
X013963Y018465D01*
X013810Y018465D02*
X013810Y018779D01*
X013810Y018622D02*
X013601Y018622D01*
X013601Y018779D02*
X013601Y018465D01*
X013448Y018518D02*
X013395Y018465D01*
X013291Y018465D01*
X013238Y018518D01*
X013238Y018622D01*
X013343Y018622D01*
X013448Y018518D02*
X013448Y018727D01*
X013395Y018779D01*
X013291Y018779D01*
X013238Y018727D01*
X011332Y018090D02*
X011227Y018090D01*
X011279Y018090D02*
X011279Y017829D01*
X011332Y017776D01*
X011384Y017776D01*
X011436Y017829D01*
X011074Y017776D02*
X010865Y017986D01*
X010865Y018038D01*
X010917Y018090D01*
X011022Y018090D01*
X011074Y018038D01*
X011074Y017776D02*
X010865Y017776D01*
D13*
X013328Y016196D02*
X013328Y015872D01*
X013436Y015872D02*
X013220Y015872D01*
X013436Y016088D02*
X013328Y016196D01*
X013569Y016196D02*
X013677Y016196D01*
X013623Y016196D02*
X013623Y015872D01*
X013677Y015872D02*
X013569Y015872D01*
X013824Y015926D02*
X013824Y016142D01*
X013878Y016196D01*
X014040Y016196D01*
X014040Y015872D01*
X013878Y015872D01*
X013824Y015926D01*
X010496Y014139D02*
X010496Y013815D01*
X010335Y013815D01*
X010281Y013869D01*
X010281Y014085D01*
X010335Y014139D01*
X010496Y014139D01*
X010134Y014139D02*
X010026Y014139D01*
X010080Y014139D02*
X010080Y013815D01*
X010134Y013815D02*
X010026Y013815D01*
X009892Y013869D02*
X009838Y013815D01*
X009730Y013815D01*
X009676Y013869D01*
X009676Y013923D01*
X009730Y013977D01*
X009784Y013977D01*
X009730Y013977D02*
X009676Y014031D01*
X009676Y014085D01*
X009730Y014139D01*
X009838Y014139D01*
X009892Y014085D01*
X010074Y013158D02*
X010074Y012942D01*
X010290Y013158D01*
X010344Y013158D01*
X010398Y013104D01*
X010398Y012996D01*
X010344Y012942D01*
X010398Y012809D02*
X010398Y012701D01*
X010398Y012755D02*
X010074Y012755D01*
X010074Y012701D02*
X010074Y012809D01*
X010128Y012554D02*
X010344Y012554D01*
X010398Y012500D01*
X010398Y012338D01*
X010074Y012338D01*
X010074Y012500D01*
X010128Y012554D01*
M02*
