G75*
G70*
%OFA0B0*%
%FSLAX24Y24*%
%IPPOS*%
%LPD*%
%AMOC8*
5,1,8,0,0,1.08239X$1,22.5*
%
%ADD10C,0.0080*%
%ADD11C,0.0140*%
%ADD12C,0.0079*%
%ADD13C,0.0100*%
%ADD14C,0.0083*%
%ADD15C,0.0070*%
%ADD16C,0.0090*%
D10*
X004303Y000827D02*
X004513Y000827D01*
X004303Y000827D02*
X004303Y001141D01*
X006469Y001141D02*
X006469Y000827D01*
X006469Y000984D02*
X006678Y000984D01*
X006678Y001141D02*
X006678Y000827D01*
X008209Y000400D02*
X008209Y000191D01*
X008262Y000138D01*
X008366Y000138D01*
X008419Y000191D01*
X008419Y000400D02*
X008366Y000452D01*
X008262Y000452D01*
X008209Y000400D01*
X008572Y000452D02*
X008781Y000452D01*
X008676Y000452D02*
X008676Y000138D01*
X008934Y000138D02*
X008934Y000452D01*
X008934Y000138D02*
X009144Y000138D01*
X009086Y002009D02*
X009086Y002322D01*
X008929Y002165D01*
X009139Y002165D01*
X009139Y002501D02*
X008929Y002501D01*
X009139Y002710D01*
X009139Y002762D01*
X009086Y002815D01*
X008982Y002815D01*
X008929Y002762D01*
X008776Y002762D02*
X008724Y002815D01*
X008567Y002815D01*
X008567Y002501D01*
X008724Y002501D01*
X008776Y002553D01*
X008776Y002762D01*
X008414Y002762D02*
X008414Y002658D01*
X008361Y002605D01*
X008204Y002605D01*
X008204Y002501D02*
X008204Y002815D01*
X008361Y002815D01*
X008414Y002762D01*
X008309Y002605D02*
X008414Y002501D01*
X008361Y002322D02*
X008204Y002322D01*
X008204Y002009D01*
X008204Y002113D02*
X008361Y002113D01*
X008414Y002165D01*
X008414Y002270D01*
X008361Y002322D01*
X008567Y002322D02*
X008724Y002322D01*
X008776Y002270D01*
X008776Y002061D01*
X008724Y002009D01*
X008567Y002009D01*
X008567Y002322D01*
X008309Y002113D02*
X008414Y002009D01*
X009582Y002009D02*
X009582Y002322D01*
X009739Y002322D01*
X009792Y002270D01*
X009792Y002165D01*
X009739Y002113D01*
X009582Y002113D01*
X009687Y002113D02*
X009792Y002009D01*
X009945Y002009D02*
X009945Y002322D01*
X010102Y002322D01*
X010154Y002270D01*
X010154Y002061D01*
X010102Y002009D01*
X009945Y002009D01*
X010307Y002061D02*
X010360Y002009D01*
X010464Y002009D01*
X010517Y002061D01*
X010517Y002113D01*
X010464Y002165D01*
X010412Y002165D01*
X010464Y002165D02*
X010517Y002218D01*
X010517Y002270D01*
X010464Y002322D01*
X010360Y002322D01*
X010307Y002270D01*
X010307Y002501D02*
X010517Y002501D01*
X010412Y002501D02*
X010412Y002815D01*
X010307Y002710D01*
X010154Y002762D02*
X010102Y002815D01*
X009945Y002815D01*
X009945Y002501D01*
X010102Y002501D01*
X010154Y002553D01*
X010154Y002762D01*
X009792Y002762D02*
X009792Y002658D01*
X009739Y002605D01*
X009582Y002605D01*
X009582Y002501D02*
X009582Y002815D01*
X009739Y002815D01*
X009792Y002762D01*
X009687Y002605D02*
X009792Y002501D01*
X010960Y002501D02*
X010960Y002815D01*
X011117Y002815D01*
X011170Y002762D01*
X011170Y002658D01*
X011117Y002605D01*
X010960Y002605D01*
X011065Y002605D02*
X011170Y002501D01*
X011323Y002553D02*
X011375Y002501D01*
X011480Y002501D01*
X011532Y002553D01*
X011532Y002815D01*
X011685Y002762D02*
X011738Y002815D01*
X011842Y002815D01*
X011895Y002762D01*
X011895Y002710D01*
X011685Y002501D01*
X011895Y002501D01*
X011593Y002322D02*
X011593Y002009D01*
X011489Y002009D02*
X011698Y002009D01*
X011489Y002218D02*
X011593Y002322D01*
X011335Y002270D02*
X011283Y002322D01*
X011178Y002322D01*
X011126Y002270D01*
X011126Y002061D01*
X011178Y002009D01*
X011283Y002009D01*
X011335Y002061D01*
X011323Y002553D02*
X011323Y002815D01*
X012338Y002815D02*
X012495Y002815D01*
X012548Y002762D01*
X012548Y002658D01*
X012495Y002605D01*
X012338Y002605D01*
X012338Y002501D02*
X012338Y002815D01*
X012443Y002605D02*
X012548Y002501D01*
X012701Y002553D02*
X012753Y002501D01*
X012858Y002501D01*
X012910Y002553D01*
X012910Y002815D01*
X013063Y002710D02*
X013168Y002815D01*
X013168Y002501D01*
X013063Y002501D02*
X013273Y002501D01*
X012971Y002322D02*
X012971Y002009D01*
X012866Y002009D02*
X013076Y002009D01*
X012866Y002218D02*
X012971Y002322D01*
X012713Y002270D02*
X012713Y002165D01*
X012661Y002113D01*
X012504Y002113D01*
X012504Y002009D02*
X012504Y002322D01*
X012661Y002322D01*
X012713Y002270D01*
X012609Y002113D02*
X012713Y002009D01*
X012701Y002553D02*
X012701Y002815D01*
X014213Y003485D02*
X014213Y003799D01*
X014370Y003799D01*
X014423Y003747D01*
X014423Y003642D01*
X014370Y003590D01*
X014213Y003590D01*
X014318Y003590D02*
X014423Y003485D01*
X014576Y003537D02*
X014785Y003747D01*
X014785Y003537D01*
X014733Y003485D01*
X014628Y003485D01*
X014576Y003537D01*
X014576Y003747D01*
X014628Y003799D01*
X014733Y003799D01*
X014785Y003747D01*
X012718Y004863D02*
X012509Y004863D01*
X012718Y005072D01*
X012718Y005124D01*
X012666Y005177D01*
X012561Y005177D01*
X012509Y005124D01*
X012356Y005124D02*
X012356Y005020D01*
X012303Y004967D01*
X012146Y004967D01*
X012146Y004863D02*
X012146Y005177D01*
X012303Y005177D01*
X012356Y005124D01*
X012251Y004967D02*
X012356Y004863D01*
X012085Y005847D02*
X012085Y006161D01*
X011981Y006161D02*
X012190Y006161D01*
X011827Y006109D02*
X011827Y006004D01*
X011775Y005952D01*
X011618Y005952D01*
X011723Y005952D02*
X011827Y005847D01*
X011618Y005847D02*
X011618Y006161D01*
X011775Y006161D01*
X011827Y006109D01*
X010651Y006010D02*
X010599Y006063D01*
X010494Y006063D01*
X010442Y006010D01*
X010289Y006010D02*
X010236Y006063D01*
X010132Y006063D01*
X010079Y006010D01*
X010079Y005801D01*
X010132Y005749D01*
X010236Y005749D01*
X010289Y005801D01*
X010442Y005749D02*
X010651Y005958D01*
X010651Y006010D01*
X010599Y006241D02*
X010494Y006241D01*
X010442Y006293D01*
X010547Y006398D02*
X010599Y006398D01*
X010651Y006345D01*
X010651Y006293D01*
X010599Y006241D01*
X010599Y006398D02*
X010651Y006450D01*
X010651Y006502D01*
X010599Y006555D01*
X010494Y006555D01*
X010442Y006502D01*
X010289Y006502D02*
X010236Y006555D01*
X010132Y006555D01*
X010079Y006502D01*
X010079Y006293D01*
X010132Y006241D01*
X010236Y006241D01*
X010289Y006293D01*
X009547Y006055D02*
X009547Y005950D01*
X009494Y005898D01*
X009390Y005950D02*
X009390Y006055D01*
X009442Y006107D01*
X009494Y006107D01*
X009547Y006055D01*
X009390Y005950D02*
X009337Y005898D01*
X009285Y005898D01*
X009233Y005950D01*
X009233Y006055D01*
X009285Y006107D01*
X008956Y006055D02*
X008956Y005950D01*
X008904Y005898D01*
X008799Y005898D02*
X008747Y006003D01*
X008747Y006055D01*
X008799Y006107D01*
X008904Y006107D01*
X008956Y006055D01*
X008799Y005898D02*
X008642Y005898D01*
X008642Y006107D01*
X008694Y005745D02*
X008642Y005692D01*
X008642Y005588D01*
X008694Y005535D01*
X008904Y005535D01*
X008956Y005588D01*
X008956Y005692D01*
X008904Y005745D01*
X008799Y005745D01*
X008799Y005640D01*
X008642Y005382D02*
X008642Y005173D01*
X008956Y005173D01*
X008956Y005382D01*
X008799Y005278D02*
X008799Y005173D01*
X008799Y005020D02*
X008694Y005020D01*
X008642Y004967D01*
X008642Y004810D01*
X008956Y004810D01*
X008851Y004810D02*
X008851Y004967D01*
X008799Y005020D01*
X008851Y004915D02*
X008956Y005020D01*
X009233Y005225D02*
X009285Y005173D01*
X009494Y005173D01*
X009547Y005225D01*
X009547Y005330D01*
X009494Y005382D01*
X009494Y005535D02*
X009547Y005588D01*
X009547Y005692D01*
X009494Y005745D01*
X009442Y005745D01*
X009390Y005692D01*
X009390Y005588D01*
X009337Y005535D01*
X009285Y005535D01*
X009233Y005588D01*
X009233Y005692D01*
X009285Y005745D01*
X009285Y005382D02*
X009233Y005330D01*
X009233Y005225D01*
X008904Y004657D02*
X008956Y004605D01*
X008956Y004500D01*
X008904Y004448D01*
X008694Y004448D01*
X008642Y004500D01*
X008642Y004605D01*
X008694Y004657D01*
X008031Y005319D02*
X007717Y005319D01*
X007717Y005476D01*
X007769Y005528D01*
X007874Y005528D01*
X007926Y005476D01*
X007926Y005319D01*
X007926Y005424D02*
X008031Y005528D01*
X007979Y005681D02*
X008031Y005734D01*
X008031Y005838D01*
X007979Y005891D01*
X007926Y005891D01*
X007874Y005838D01*
X007874Y005786D01*
X007874Y005838D02*
X007822Y005891D01*
X007769Y005891D01*
X007717Y005838D01*
X007717Y005734D01*
X007769Y005681D01*
X007486Y004746D02*
X007539Y004693D01*
X007539Y004589D01*
X007486Y004536D01*
X007434Y004536D01*
X007382Y004589D01*
X007382Y004693D01*
X007434Y004746D01*
X007486Y004746D01*
X007382Y004693D02*
X007329Y004746D01*
X007277Y004746D01*
X007225Y004693D01*
X007225Y004589D01*
X007277Y004536D01*
X007329Y004536D01*
X007382Y004589D01*
X007382Y004383D02*
X007434Y004331D01*
X007434Y004174D01*
X007434Y004279D02*
X007539Y004383D01*
X007382Y004383D02*
X007277Y004383D01*
X007225Y004331D01*
X007225Y004174D01*
X007539Y004174D01*
X006259Y004134D02*
X006207Y004186D01*
X006259Y004134D02*
X006259Y004029D01*
X006207Y003977D01*
X005998Y003977D01*
X005945Y004029D01*
X005945Y004134D01*
X005998Y004186D01*
X005998Y004340D02*
X006207Y004340D01*
X006259Y004392D01*
X006259Y004497D01*
X006207Y004549D01*
X005998Y004549D02*
X005945Y004497D01*
X005945Y004392D01*
X005998Y004340D01*
X005945Y004702D02*
X005945Y004911D01*
X005945Y004807D02*
X006259Y004807D01*
X006259Y005065D02*
X006259Y005274D01*
X006259Y005065D02*
X005945Y005065D01*
X005570Y004890D02*
X005518Y004943D01*
X005309Y004943D01*
X005256Y004890D01*
X005256Y004786D01*
X005309Y004733D01*
X005361Y004733D01*
X005413Y004786D01*
X005413Y004943D01*
X005570Y004890D02*
X005570Y004786D01*
X005518Y004733D01*
X005570Y004580D02*
X005466Y004475D01*
X005466Y004528D02*
X005466Y004371D01*
X005570Y004371D02*
X005256Y004371D01*
X005256Y004528D01*
X005309Y004580D01*
X005413Y004580D01*
X005466Y004528D01*
X005422Y003799D02*
X005422Y003485D01*
X005527Y003590D01*
X005632Y003485D01*
X005632Y003799D01*
X005785Y003694D02*
X005889Y003799D01*
X005889Y003485D01*
X005785Y003485D02*
X005994Y003485D01*
X005269Y003537D02*
X005217Y003485D01*
X005112Y003485D01*
X005060Y003537D01*
X005112Y003642D02*
X005217Y003642D01*
X005269Y003590D01*
X005269Y003537D01*
X005112Y003642D02*
X005060Y003694D01*
X005060Y003747D01*
X005112Y003799D01*
X005217Y003799D01*
X005269Y003747D01*
X002616Y006293D02*
X002564Y006241D01*
X002459Y006241D01*
X002407Y006293D01*
X002407Y006398D02*
X002512Y006450D01*
X002564Y006450D01*
X002616Y006398D01*
X002616Y006293D01*
X002407Y006398D02*
X002407Y006555D01*
X002616Y006555D01*
X002254Y006502D02*
X002202Y006555D01*
X002097Y006555D01*
X002045Y006502D01*
X002045Y006293D01*
X002097Y006241D01*
X002202Y006241D01*
X002254Y006293D01*
X002254Y006398D01*
X002149Y006398D01*
X001891Y006555D02*
X001682Y006555D01*
X001682Y006241D01*
X001891Y006241D01*
X001787Y006398D02*
X001682Y006398D01*
X001529Y006398D02*
X001477Y006345D01*
X001320Y006345D01*
X001424Y006345D02*
X001529Y006241D01*
X001529Y006398D02*
X001529Y006502D01*
X001477Y006555D01*
X001320Y006555D01*
X001320Y006241D01*
X003170Y008308D02*
X003274Y008308D01*
X003327Y008360D01*
X003480Y008412D02*
X003585Y008308D01*
X003689Y008412D01*
X003689Y008622D01*
X003843Y008569D02*
X003843Y008360D01*
X003895Y008308D01*
X004000Y008308D01*
X004052Y008360D01*
X004205Y008360D02*
X004257Y008308D01*
X004362Y008308D01*
X004414Y008360D01*
X004205Y008360D02*
X004205Y008569D01*
X004257Y008622D01*
X004362Y008622D01*
X004414Y008569D01*
X004052Y008569D02*
X004000Y008622D01*
X003895Y008622D01*
X003843Y008569D01*
X003480Y008622D02*
X003480Y008412D01*
X003327Y008569D02*
X003274Y008622D01*
X003170Y008622D01*
X003118Y008569D01*
X003118Y008360D01*
X003170Y008308D01*
X003248Y008957D02*
X003143Y009062D01*
X003196Y009062D02*
X003039Y009062D01*
X003039Y008957D02*
X003039Y009271D01*
X003196Y009271D01*
X003248Y009219D01*
X003248Y009114D01*
X003196Y009062D01*
X003401Y009062D02*
X003401Y009271D01*
X003401Y009062D02*
X003506Y008957D01*
X003611Y009062D01*
X003611Y009271D01*
X003764Y009219D02*
X003764Y009010D01*
X003816Y008957D01*
X003921Y008957D01*
X003973Y009010D01*
X004126Y009010D02*
X004126Y009219D01*
X004179Y009271D01*
X004283Y009271D01*
X004336Y009219D01*
X004336Y009010D02*
X004283Y008957D01*
X004179Y008957D01*
X004126Y009010D01*
X003973Y009219D02*
X003921Y009271D01*
X003816Y009271D01*
X003764Y009219D01*
X003729Y009883D02*
X003834Y009883D01*
X003886Y009935D01*
X004039Y009883D02*
X004039Y010196D01*
X003886Y010144D02*
X003834Y010196D01*
X003729Y010196D01*
X003677Y010144D01*
X003677Y009935D01*
X003729Y009883D01*
X003524Y009883D02*
X003419Y009987D01*
X003471Y009987D02*
X003314Y009987D01*
X003314Y009883D02*
X003314Y010196D01*
X003471Y010196D01*
X003524Y010144D01*
X003524Y010040D01*
X003471Y009987D01*
X003524Y010670D02*
X003419Y010775D01*
X003471Y010775D02*
X003314Y010775D01*
X003314Y010670D02*
X003314Y010984D01*
X003471Y010984D01*
X003524Y010932D01*
X003524Y010827D01*
X003471Y010775D01*
X003677Y010722D02*
X003729Y010670D01*
X003834Y010670D01*
X003886Y010722D01*
X004039Y010670D02*
X004249Y010670D01*
X004402Y010670D02*
X004611Y010670D01*
X004402Y010670D02*
X004402Y010984D01*
X004039Y010984D02*
X004039Y010670D01*
X003886Y010932D02*
X003834Y010984D01*
X003729Y010984D01*
X003677Y010932D01*
X003677Y010722D01*
X004402Y010196D02*
X004402Y009883D01*
X004249Y009883D02*
X004039Y009883D01*
X004402Y010040D02*
X004611Y010040D01*
X004611Y010196D02*
X004611Y009883D01*
X002451Y010624D02*
X002451Y010833D01*
X002398Y010885D01*
X002241Y010885D01*
X002241Y010571D01*
X002398Y010571D01*
X002451Y010624D01*
X002088Y010571D02*
X002088Y010885D01*
X001879Y010885D02*
X001879Y010571D01*
X001726Y010624D02*
X001726Y010728D01*
X001621Y010728D01*
X001516Y010624D02*
X001516Y010833D01*
X001569Y010885D01*
X001673Y010885D01*
X001726Y010833D01*
X001879Y010885D02*
X002088Y010571D01*
X001726Y010624D02*
X001673Y010571D01*
X001569Y010571D01*
X001516Y010624D01*
X004335Y007145D02*
X004492Y007145D01*
X004544Y007093D01*
X004544Y006988D01*
X004492Y006936D01*
X004335Y006936D01*
X004439Y006936D02*
X004544Y006831D01*
X004697Y006884D02*
X004749Y006831D01*
X004854Y006831D01*
X004906Y006884D01*
X004906Y006988D01*
X004854Y007041D01*
X004802Y007041D01*
X004697Y006988D01*
X004697Y007145D01*
X004906Y007145D01*
X004335Y007145D02*
X004335Y006831D01*
X007376Y010276D02*
X007480Y010276D01*
X007533Y010329D01*
X007686Y010329D02*
X007738Y010276D01*
X007843Y010276D01*
X007895Y010329D01*
X008048Y010276D02*
X008258Y010276D01*
X008048Y010276D02*
X008048Y010590D01*
X007895Y010538D02*
X007843Y010590D01*
X007738Y010590D01*
X007686Y010538D01*
X007686Y010329D01*
X007533Y010538D02*
X007480Y010590D01*
X007376Y010590D01*
X007323Y010538D01*
X007323Y010329D01*
X007376Y010276D01*
X008272Y008720D02*
X008272Y008458D01*
X008324Y008406D01*
X008429Y008406D01*
X008481Y008458D01*
X008481Y008720D01*
X008634Y008615D02*
X008739Y008720D01*
X008739Y008406D01*
X008843Y008406D02*
X008634Y008406D01*
X010571Y007933D02*
X010571Y007619D01*
X010571Y007723D02*
X010728Y007723D01*
X010781Y007776D01*
X010781Y007880D01*
X010728Y007933D01*
X010571Y007933D01*
X010676Y007723D02*
X010781Y007619D01*
X010934Y007671D02*
X010986Y007619D01*
X011091Y007619D01*
X011143Y007671D01*
X011297Y007619D02*
X011506Y007619D01*
X011297Y007619D02*
X011297Y007933D01*
X011143Y007880D02*
X011091Y007933D01*
X010986Y007933D01*
X010934Y007880D01*
X010934Y007671D01*
X012166Y007671D02*
X012218Y007619D01*
X012323Y007619D01*
X012375Y007671D01*
X012528Y007619D02*
X012528Y007933D01*
X012685Y007933D01*
X012738Y007880D01*
X012738Y007776D01*
X012685Y007723D01*
X012528Y007723D01*
X012633Y007723D02*
X012738Y007619D01*
X012996Y007619D02*
X012996Y007933D01*
X013100Y007933D02*
X012891Y007933D01*
X013254Y007880D02*
X013254Y007828D01*
X013306Y007776D01*
X013411Y007776D01*
X013463Y007723D01*
X013463Y007671D01*
X013411Y007619D01*
X013306Y007619D01*
X013254Y007671D01*
X013254Y007880D02*
X013306Y007933D01*
X013411Y007933D01*
X013463Y007880D01*
X013616Y007880D02*
X013616Y007828D01*
X013668Y007776D01*
X013773Y007776D01*
X013825Y007723D01*
X013825Y007671D01*
X013773Y007619D01*
X013668Y007619D01*
X013616Y007671D01*
X013616Y007880D02*
X013668Y007933D01*
X013773Y007933D01*
X013825Y007880D01*
X012375Y007880D02*
X012323Y007933D01*
X012218Y007933D01*
X012166Y007880D01*
X012166Y007671D01*
X010651Y005749D02*
X010442Y005749D01*
X013724Y010867D02*
X013829Y010867D01*
X013881Y010919D01*
X014034Y010919D02*
X014087Y010867D01*
X014191Y010867D01*
X014244Y010919D01*
X014244Y010971D01*
X014191Y011024D01*
X014087Y011024D01*
X014034Y011076D01*
X014034Y011128D01*
X014087Y011181D01*
X014191Y011181D01*
X014244Y011128D01*
X014397Y011128D02*
X014502Y011024D01*
X014502Y010867D01*
X014502Y011024D02*
X014606Y011128D01*
X014606Y011181D01*
X014759Y011181D02*
X014969Y010867D01*
X014969Y011181D01*
X015122Y011128D02*
X015122Y010919D01*
X015174Y010867D01*
X015279Y010867D01*
X015331Y010919D01*
X015331Y011128D02*
X015279Y011181D01*
X015174Y011181D01*
X015122Y011128D01*
X014759Y011181D02*
X014759Y010867D01*
X014397Y011128D02*
X014397Y011181D01*
X014502Y011556D02*
X014502Y011713D01*
X014606Y011817D01*
X014606Y011870D01*
X014759Y011870D02*
X014969Y011556D01*
X014969Y011870D01*
X015122Y011817D02*
X015122Y011608D01*
X015174Y011556D01*
X015279Y011556D01*
X015331Y011608D01*
X015331Y011817D02*
X015279Y011870D01*
X015174Y011870D01*
X015122Y011817D01*
X014759Y011870D02*
X014759Y011556D01*
X014502Y011713D02*
X014397Y011817D01*
X014397Y011870D01*
X014244Y011817D02*
X014191Y011870D01*
X014087Y011870D01*
X014034Y011817D01*
X014034Y011765D01*
X014087Y011713D01*
X014191Y011713D01*
X014244Y011660D01*
X014244Y011608D01*
X014191Y011556D01*
X014087Y011556D01*
X014034Y011608D01*
X013881Y011556D02*
X013777Y011660D01*
X013829Y011660D02*
X013672Y011660D01*
X013672Y011556D02*
X013672Y011870D01*
X013829Y011870D01*
X013881Y011817D01*
X013881Y011713D01*
X013829Y011660D01*
X013829Y011181D02*
X013724Y011181D01*
X013672Y011128D01*
X013672Y010919D01*
X013724Y010867D01*
X013881Y011128D02*
X013829Y011181D01*
X012003Y011707D02*
X011950Y011654D01*
X011846Y011654D01*
X011794Y011707D01*
X012003Y011916D01*
X012003Y011707D01*
X012003Y011916D02*
X011950Y011968D01*
X011846Y011968D01*
X011794Y011916D01*
X011794Y011707D01*
X011640Y011654D02*
X011431Y011654D01*
X011536Y011654D02*
X011536Y011968D01*
X011431Y011863D01*
X011278Y011811D02*
X011173Y011811D01*
X011278Y011811D02*
X011278Y011707D01*
X011225Y011654D01*
X011121Y011654D01*
X011068Y011707D01*
X011068Y011916D01*
X011121Y011968D01*
X011225Y011968D01*
X011278Y011916D01*
X010915Y011968D02*
X010706Y011968D01*
X010706Y011654D01*
X010915Y011654D01*
X010811Y011811D02*
X010706Y011811D01*
X010553Y011811D02*
X010500Y011759D01*
X010343Y011759D01*
X010343Y011654D02*
X010343Y011968D01*
X010500Y011968D01*
X010553Y011916D01*
X010553Y011811D01*
X010448Y011759D02*
X010553Y011654D01*
X010190Y011707D02*
X010138Y011654D01*
X010033Y011654D01*
X009981Y011707D01*
X009981Y011916D01*
X010033Y011968D01*
X010138Y011968D01*
X010190Y011916D01*
X008728Y015985D02*
X008728Y016299D01*
X008518Y016299D02*
X008728Y015985D01*
X008518Y015985D02*
X008518Y016299D01*
X008381Y016299D02*
X008277Y016299D01*
X008329Y016299D02*
X008329Y015985D01*
X008277Y015985D02*
X008381Y015985D01*
X008123Y016037D02*
X008071Y015985D01*
X007966Y015985D01*
X007914Y016037D01*
X007914Y016247D01*
X007966Y016299D01*
X008071Y016299D01*
X008123Y016247D01*
X002616Y019285D02*
X002564Y019233D01*
X002459Y019233D01*
X002407Y019285D01*
X002407Y019495D01*
X002459Y019547D01*
X002564Y019547D01*
X002616Y019495D01*
X002254Y019547D02*
X002254Y019233D01*
X002045Y019547D01*
X002045Y019233D01*
X001787Y019233D02*
X001787Y019390D01*
X001891Y019495D01*
X001891Y019547D01*
X001787Y019390D02*
X001682Y019495D01*
X001682Y019547D01*
X001529Y019495D02*
X001477Y019547D01*
X001372Y019547D01*
X001320Y019495D01*
X001320Y019442D01*
X001372Y019390D01*
X001477Y019390D01*
X001529Y019338D01*
X001529Y019285D01*
X001477Y019233D01*
X001372Y019233D01*
X001320Y019285D01*
X001516Y015216D02*
X001516Y015007D01*
X001621Y014902D01*
X001726Y015007D01*
X001726Y015216D01*
X001879Y015216D02*
X001984Y015216D01*
X001931Y015216D02*
X001931Y014902D01*
X001879Y014902D02*
X001984Y014902D01*
X002121Y014902D02*
X002121Y015216D01*
X002330Y014902D01*
X002330Y015216D01*
X002367Y023859D02*
X002420Y023911D01*
X002420Y024121D01*
X002367Y024173D01*
X002263Y024173D01*
X002210Y024121D01*
X002210Y023911D01*
X002263Y023859D01*
X002367Y023859D01*
X002573Y023911D02*
X002573Y024173D01*
X002782Y024173D02*
X002782Y023911D01*
X002730Y023859D01*
X002625Y023859D01*
X002573Y023911D01*
X002935Y024173D02*
X003145Y024173D01*
X003040Y024173D02*
X003040Y023859D01*
X002057Y023859D02*
X001900Y024016D01*
X001848Y023964D02*
X002057Y024173D01*
X001848Y024173D02*
X001848Y023859D01*
X001695Y023859D02*
X001485Y023859D01*
X001485Y024173D01*
X001332Y024121D02*
X001280Y024173D01*
X001175Y024173D01*
X001123Y024121D01*
X001123Y023911D01*
X001175Y023859D01*
X001280Y023859D01*
X001332Y023911D01*
X010571Y030552D02*
X010571Y030866D01*
X010728Y030866D01*
X010781Y030813D01*
X010781Y030709D01*
X010728Y030656D01*
X010571Y030656D01*
X010676Y030656D02*
X010781Y030552D01*
X010934Y030552D02*
X011143Y030552D01*
X011297Y030604D02*
X011349Y030552D01*
X011454Y030552D01*
X011506Y030604D01*
X011506Y030709D01*
X011401Y030709D01*
X011297Y030813D02*
X011297Y030604D01*
X011297Y030813D02*
X011349Y030866D01*
X011454Y030866D01*
X011506Y030813D01*
X011659Y030761D02*
X011764Y030866D01*
X011764Y030552D01*
X011868Y030552D02*
X011659Y030552D01*
X012022Y030604D02*
X012231Y030813D01*
X012231Y030604D01*
X012179Y030552D01*
X012074Y030552D01*
X012022Y030604D01*
X012022Y030813D01*
X012074Y030866D01*
X012179Y030866D01*
X012231Y030813D01*
X011143Y030866D02*
X010934Y030866D01*
X010934Y030552D01*
X010934Y030709D02*
X011039Y030709D01*
X016477Y030866D02*
X016477Y030552D01*
X016686Y030552D01*
X016840Y030552D02*
X017049Y030866D01*
X016840Y030866D02*
X017049Y030552D01*
X022875Y026437D02*
X022875Y026123D01*
X023084Y026123D01*
X023237Y026123D02*
X023446Y026123D01*
X023342Y026123D02*
X023342Y026437D01*
X023237Y026332D01*
X029371Y020236D02*
X029371Y020027D01*
X029475Y019922D01*
X029580Y020027D01*
X029580Y020236D01*
X029733Y020184D02*
X029733Y019974D01*
X029786Y019922D01*
X029890Y019922D01*
X029943Y019974D01*
X029943Y020184D01*
X029890Y020236D01*
X029786Y020236D01*
X029733Y020184D01*
X030096Y020236D02*
X030096Y019974D01*
X030148Y019922D01*
X030253Y019922D01*
X030305Y019974D01*
X030305Y020236D01*
X030458Y020236D02*
X030668Y020236D01*
X030563Y020236D02*
X030563Y019922D01*
X025315Y018267D02*
X025315Y017953D01*
X025211Y017953D02*
X025420Y017953D01*
X025211Y018163D02*
X025315Y018267D01*
X025057Y018267D02*
X024848Y018267D01*
X024953Y018267D02*
X024953Y017953D01*
X024695Y018006D02*
X024695Y018267D01*
X024485Y018267D02*
X024485Y018006D01*
X024538Y017953D01*
X024642Y017953D01*
X024695Y018006D01*
X024332Y018006D02*
X024332Y018215D01*
X024280Y018267D01*
X024175Y018267D01*
X024123Y018215D01*
X024123Y018006D01*
X024175Y017953D01*
X024280Y017953D01*
X024332Y018006D01*
X023970Y018006D02*
X023917Y017953D01*
X023813Y017953D01*
X023760Y018006D01*
X023760Y018215D01*
X023813Y018267D01*
X023917Y018267D01*
X023970Y018215D01*
X018297Y018938D02*
X018088Y018938D01*
X018193Y018938D02*
X018193Y019252D01*
X018088Y019147D01*
X017935Y019199D02*
X017935Y019095D01*
X017882Y019042D01*
X017725Y019042D01*
X017725Y018938D02*
X017725Y019252D01*
X017882Y019252D01*
X017935Y019199D01*
X017830Y019042D02*
X017935Y018938D01*
X017467Y018938D02*
X017467Y019252D01*
X017363Y019252D02*
X017572Y019252D01*
X014785Y017428D02*
X014733Y017480D01*
X014628Y017480D01*
X014576Y017428D01*
X014576Y017375D01*
X014628Y017323D01*
X014733Y017323D01*
X014785Y017271D01*
X014785Y017218D01*
X014733Y017166D01*
X014628Y017166D01*
X014576Y017218D01*
X014423Y017166D02*
X014318Y017271D01*
X014370Y017271D02*
X014213Y017271D01*
X014213Y017166D02*
X014213Y017480D01*
X014370Y017480D01*
X014423Y017428D01*
X014423Y017323D01*
X014370Y017271D01*
X012785Y021497D02*
X012576Y021497D01*
X012785Y021706D01*
X012785Y021758D01*
X012733Y021811D01*
X012628Y021811D01*
X012576Y021758D01*
X012423Y021758D02*
X012423Y021654D01*
X012371Y021601D01*
X012214Y021601D01*
X012318Y021601D02*
X012423Y021497D01*
X012214Y021497D02*
X012214Y021811D01*
X012371Y021811D01*
X012423Y021758D01*
X012060Y021811D02*
X011851Y021811D01*
X011956Y021811D02*
X011956Y021497D01*
X029272Y008031D02*
X029429Y008031D01*
X029482Y007979D01*
X029482Y007874D01*
X029429Y007822D01*
X029272Y007822D01*
X029272Y007717D02*
X029272Y008031D01*
X029635Y007979D02*
X029635Y007769D01*
X029687Y007717D01*
X029792Y007717D01*
X029844Y007769D01*
X029844Y007874D01*
X029739Y007874D01*
X029635Y007979D02*
X029687Y008031D01*
X029792Y008031D01*
X029844Y007979D01*
X029997Y008031D02*
X030207Y007717D01*
X030207Y008031D01*
X030360Y008031D02*
X030517Y008031D01*
X030569Y007979D01*
X030569Y007769D01*
X030517Y007717D01*
X030360Y007717D01*
X030360Y008031D01*
X029997Y008031D02*
X029997Y007717D01*
D11*
X008553Y026832D02*
X008366Y026645D01*
X008179Y026832D01*
X008179Y027205D01*
X007908Y027205D02*
X007908Y026738D01*
X007815Y026645D01*
X007628Y026645D01*
X007535Y026738D01*
X007535Y027205D01*
X007264Y027205D02*
X007264Y026645D01*
X006890Y026645D02*
X006890Y027205D01*
X007077Y027018D01*
X007264Y027205D01*
X006619Y027205D02*
X006246Y026645D01*
X005975Y026645D02*
X005601Y026645D01*
X005788Y026645D02*
X005788Y027205D01*
X005601Y027018D01*
X005330Y026832D02*
X005237Y026925D01*
X004956Y026925D01*
X004956Y026738D01*
X005050Y026645D01*
X005237Y026645D01*
X005330Y026738D01*
X005330Y026832D01*
X005143Y027112D02*
X004956Y026925D01*
X005143Y027112D02*
X005330Y027205D01*
X004686Y027112D02*
X004686Y026738D01*
X004592Y026645D01*
X004405Y026645D01*
X004312Y026738D01*
X004405Y026925D02*
X004686Y026925D01*
X004686Y027112D02*
X004592Y027205D01*
X004405Y027205D01*
X004312Y027112D01*
X004312Y027018D01*
X004405Y026925D01*
X004041Y026738D02*
X004041Y027112D01*
X003948Y027205D01*
X003667Y027205D01*
X003667Y026645D01*
X003948Y026645D01*
X004041Y026738D01*
X003396Y026738D02*
X003303Y026645D01*
X003023Y026645D01*
X003023Y027205D01*
X003303Y027205D01*
X003396Y027112D01*
X003396Y027018D01*
X003303Y026925D01*
X003023Y026925D01*
X003303Y026925D02*
X003396Y026832D01*
X003396Y026738D01*
X006246Y027205D02*
X006619Y026645D01*
X008553Y026832D02*
X008553Y027205D01*
D12*
X003543Y003346D02*
X003543Y001378D01*
X007480Y001378D01*
X007480Y003346D01*
X003543Y003346D01*
X005177Y005413D02*
X005650Y005413D01*
X005650Y006594D01*
X005177Y006594D01*
X005177Y005413D01*
X005866Y005413D02*
X006339Y005413D01*
X006339Y006594D01*
X005866Y006594D01*
X005866Y005413D01*
X006555Y005413D02*
X007028Y005413D01*
X007028Y006594D01*
X006555Y006594D01*
X006555Y005413D01*
X006555Y005217D02*
X007028Y005217D01*
X007028Y004035D01*
X006555Y004035D01*
X006555Y005217D01*
X007638Y006299D02*
X008110Y006299D01*
X008110Y007480D01*
X007638Y007480D01*
X007638Y006299D01*
X008327Y006299D02*
X008799Y006299D01*
X008799Y007480D01*
X008327Y007480D01*
X008327Y006299D01*
X009016Y006299D02*
X009488Y006299D01*
X009488Y007480D01*
X009016Y007480D01*
X009016Y006299D01*
X010138Y005551D02*
X010138Y005079D01*
X011319Y005079D01*
X011319Y005551D01*
X010138Y005551D01*
X010138Y004862D02*
X010138Y004390D01*
X011319Y004390D01*
X011319Y004862D01*
X010138Y004862D01*
X010630Y004173D02*
X009449Y004173D01*
X009449Y003701D01*
X010630Y003701D01*
X010630Y004173D01*
X010827Y004173D02*
X010827Y003701D01*
X012008Y003701D01*
X012008Y004173D01*
X010827Y004173D01*
X011476Y004380D02*
X011949Y004380D01*
X011949Y005561D01*
X011476Y005561D01*
X011476Y004380D01*
X012205Y004173D02*
X012205Y003701D01*
X013386Y003701D01*
X013386Y004173D01*
X012205Y004173D01*
X012205Y003484D02*
X012205Y003012D01*
X013386Y003012D01*
X013386Y003484D01*
X012205Y003484D01*
X012008Y003484D02*
X010827Y003484D01*
X010827Y003012D01*
X012008Y003012D01*
X012008Y003484D01*
X010630Y003484D02*
X010630Y003012D01*
X009449Y003012D01*
X009449Y003484D01*
X010630Y003484D01*
X009252Y003484D02*
X009252Y003012D01*
X008071Y003012D01*
X008071Y003484D01*
X009252Y003484D01*
X009252Y003701D02*
X009252Y004173D01*
X008071Y004173D01*
X008071Y003701D01*
X009252Y003701D01*
X010886Y006299D02*
X011358Y006299D01*
X011358Y007480D01*
X010886Y007480D01*
X010886Y006299D01*
X011575Y006299D02*
X012047Y006299D01*
X012047Y007480D01*
X011575Y007480D01*
X011575Y006299D01*
X012264Y006299D02*
X012736Y006299D01*
X012736Y007480D01*
X012264Y007480D01*
X012264Y006299D01*
X013543Y004183D02*
X014016Y004183D01*
X014016Y003002D01*
X013543Y003002D01*
X013543Y004183D01*
X009272Y008346D02*
X009075Y008268D01*
X009075Y008425D01*
X009272Y008346D01*
X009260Y008342D02*
X009075Y008342D01*
X009075Y008419D02*
X009090Y008419D01*
X009055Y008563D02*
X009252Y008563D01*
X009055Y008563D02*
X009055Y008760D01*
X009055Y009941D02*
X009055Y010138D01*
X009252Y010138D01*
X010433Y010138D02*
X010630Y010138D01*
X010630Y009941D01*
X010630Y011033D02*
X011811Y011033D01*
X011811Y011506D01*
X010630Y011506D01*
X010630Y011033D01*
X012254Y011260D02*
X012254Y010787D01*
X013435Y010787D01*
X013435Y011260D01*
X012254Y011260D01*
X012254Y011476D02*
X012254Y011949D01*
X013435Y011949D01*
X013435Y011476D01*
X012254Y011476D01*
X013957Y013701D02*
X013957Y015827D01*
X007894Y015827D01*
X007894Y013701D01*
X013957Y013701D01*
X014276Y015197D02*
X014276Y015512D01*
X014433Y015354D02*
X014118Y015354D01*
X013976Y016457D02*
X012362Y016457D01*
X012362Y017795D01*
X013976Y017795D01*
X013976Y016457D01*
X012874Y018057D02*
X012874Y018904D01*
X012874Y018057D02*
X009449Y018057D01*
X009449Y018254D01*
X009449Y021156D02*
X009449Y021313D01*
X012874Y021313D01*
X012874Y020467D01*
X015695Y018898D02*
X015892Y018898D01*
X015695Y018898D02*
X015695Y015472D01*
X016541Y015472D01*
X018104Y015472D02*
X018951Y015472D01*
X018951Y018898D01*
X018793Y018898D01*
X019409Y018622D02*
X026654Y018622D01*
X026654Y025866D01*
X019409Y025866D01*
X019409Y018622D01*
X019409Y017795D02*
X025472Y017795D01*
X025472Y015669D01*
X019409Y015669D01*
X019409Y017795D01*
X025634Y017323D02*
X025949Y017323D01*
X025791Y017480D02*
X025791Y017165D01*
X026909Y017579D02*
X027697Y018366D01*
X028228Y018366D01*
X028858Y018366D02*
X029390Y018366D01*
X030177Y017579D01*
X030177Y015098D01*
X028858Y015098D01*
X028228Y015098D02*
X026909Y015098D01*
X026909Y017579D01*
X028346Y019193D02*
X028740Y019193D01*
X028543Y018996D02*
X028543Y019390D01*
X010630Y008760D02*
X010630Y008563D01*
X010433Y008563D01*
X007126Y009843D02*
X007126Y011024D01*
X006654Y011024D01*
X006654Y009843D01*
X007126Y009843D01*
X006299Y009803D02*
X006299Y010276D01*
X005118Y010276D01*
X005118Y009803D01*
X006299Y009803D01*
X006299Y009488D02*
X005118Y009488D01*
X005118Y009016D01*
X006299Y009016D01*
X006299Y009488D01*
X006378Y008780D02*
X006378Y008150D01*
X005039Y008150D01*
X005039Y008780D01*
X006378Y008780D01*
X006299Y007913D02*
X005118Y007913D01*
X005118Y007441D01*
X006299Y007441D01*
X006299Y007913D01*
X006299Y007224D02*
X005118Y007224D01*
X005118Y006752D01*
X006299Y006752D01*
X006299Y007224D01*
X006299Y010591D02*
X005118Y010591D01*
X005118Y011063D01*
X006299Y011063D01*
X006299Y010591D01*
D13*
X001469Y009843D02*
X001471Y009887D01*
X001477Y009931D01*
X001487Y009974D01*
X001500Y010016D01*
X001517Y010057D01*
X001538Y010096D01*
X001562Y010133D01*
X001589Y010168D01*
X001619Y010200D01*
X001652Y010230D01*
X001688Y010256D01*
X001725Y010280D01*
X001765Y010299D01*
X001806Y010316D01*
X001849Y010328D01*
X001892Y010337D01*
X001936Y010342D01*
X001980Y010343D01*
X002024Y010340D01*
X002068Y010333D01*
X002111Y010322D01*
X002153Y010308D01*
X002193Y010290D01*
X002232Y010268D01*
X002268Y010244D01*
X002302Y010216D01*
X002334Y010185D01*
X002363Y010151D01*
X002389Y010115D01*
X002411Y010077D01*
X002430Y010037D01*
X002445Y009995D01*
X002457Y009953D01*
X002465Y009909D01*
X002469Y009865D01*
X002469Y009821D01*
X002465Y009777D01*
X002457Y009733D01*
X002445Y009691D01*
X002430Y009649D01*
X002411Y009609D01*
X002389Y009571D01*
X002363Y009535D01*
X002334Y009501D01*
X002302Y009470D01*
X002268Y009442D01*
X002232Y009418D01*
X002193Y009396D01*
X002153Y009378D01*
X002111Y009364D01*
X002068Y009353D01*
X002024Y009346D01*
X001980Y009343D01*
X001936Y009344D01*
X001892Y009349D01*
X001849Y009358D01*
X001806Y009370D01*
X001765Y009387D01*
X001725Y009406D01*
X001688Y009430D01*
X001652Y009456D01*
X001619Y009486D01*
X001589Y009518D01*
X001562Y009553D01*
X001538Y009590D01*
X001517Y009629D01*
X001500Y009670D01*
X001487Y009712D01*
X001477Y009755D01*
X001471Y009799D01*
X001469Y009843D01*
X001469Y005512D02*
X001471Y005556D01*
X001477Y005600D01*
X001487Y005643D01*
X001500Y005685D01*
X001517Y005726D01*
X001538Y005765D01*
X001562Y005802D01*
X001589Y005837D01*
X001619Y005869D01*
X001652Y005899D01*
X001688Y005925D01*
X001725Y005949D01*
X001765Y005968D01*
X001806Y005985D01*
X001849Y005997D01*
X001892Y006006D01*
X001936Y006011D01*
X001980Y006012D01*
X002024Y006009D01*
X002068Y006002D01*
X002111Y005991D01*
X002153Y005977D01*
X002193Y005959D01*
X002232Y005937D01*
X002268Y005913D01*
X002302Y005885D01*
X002334Y005854D01*
X002363Y005820D01*
X002389Y005784D01*
X002411Y005746D01*
X002430Y005706D01*
X002445Y005664D01*
X002457Y005622D01*
X002465Y005578D01*
X002469Y005534D01*
X002469Y005490D01*
X002465Y005446D01*
X002457Y005402D01*
X002445Y005360D01*
X002430Y005318D01*
X002411Y005278D01*
X002389Y005240D01*
X002363Y005204D01*
X002334Y005170D01*
X002302Y005139D01*
X002268Y005111D01*
X002232Y005087D01*
X002193Y005065D01*
X002153Y005047D01*
X002111Y005033D01*
X002068Y005022D01*
X002024Y005015D01*
X001980Y005012D01*
X001936Y005013D01*
X001892Y005018D01*
X001849Y005027D01*
X001806Y005039D01*
X001765Y005056D01*
X001725Y005075D01*
X001688Y005099D01*
X001652Y005125D01*
X001619Y005155D01*
X001589Y005187D01*
X001562Y005222D01*
X001538Y005259D01*
X001517Y005298D01*
X001500Y005339D01*
X001487Y005381D01*
X001477Y005424D01*
X001471Y005468D01*
X001469Y005512D01*
X008161Y001181D02*
X008163Y001225D01*
X008169Y001269D01*
X008179Y001312D01*
X008192Y001354D01*
X008209Y001395D01*
X008230Y001434D01*
X008254Y001471D01*
X008281Y001506D01*
X008311Y001538D01*
X008344Y001568D01*
X008380Y001594D01*
X008417Y001618D01*
X008457Y001637D01*
X008498Y001654D01*
X008541Y001666D01*
X008584Y001675D01*
X008628Y001680D01*
X008672Y001681D01*
X008716Y001678D01*
X008760Y001671D01*
X008803Y001660D01*
X008845Y001646D01*
X008885Y001628D01*
X008924Y001606D01*
X008960Y001582D01*
X008994Y001554D01*
X009026Y001523D01*
X009055Y001489D01*
X009081Y001453D01*
X009103Y001415D01*
X009122Y001375D01*
X009137Y001333D01*
X009149Y001291D01*
X009157Y001247D01*
X009161Y001203D01*
X009161Y001159D01*
X009157Y001115D01*
X009149Y001071D01*
X009137Y001029D01*
X009122Y000987D01*
X009103Y000947D01*
X009081Y000909D01*
X009055Y000873D01*
X009026Y000839D01*
X008994Y000808D01*
X008960Y000780D01*
X008924Y000756D01*
X008885Y000734D01*
X008845Y000716D01*
X008803Y000702D01*
X008760Y000691D01*
X008716Y000684D01*
X008672Y000681D01*
X008628Y000682D01*
X008584Y000687D01*
X008541Y000696D01*
X008498Y000708D01*
X008457Y000725D01*
X008417Y000744D01*
X008380Y000768D01*
X008344Y000794D01*
X008311Y000824D01*
X008281Y000856D01*
X008254Y000891D01*
X008230Y000928D01*
X008209Y000967D01*
X008192Y001008D01*
X008179Y001050D01*
X008169Y001093D01*
X008163Y001137D01*
X008161Y001181D01*
X001469Y014173D02*
X001471Y014217D01*
X001477Y014261D01*
X001487Y014304D01*
X001500Y014346D01*
X001517Y014387D01*
X001538Y014426D01*
X001562Y014463D01*
X001589Y014498D01*
X001619Y014530D01*
X001652Y014560D01*
X001688Y014586D01*
X001725Y014610D01*
X001765Y014629D01*
X001806Y014646D01*
X001849Y014658D01*
X001892Y014667D01*
X001936Y014672D01*
X001980Y014673D01*
X002024Y014670D01*
X002068Y014663D01*
X002111Y014652D01*
X002153Y014638D01*
X002193Y014620D01*
X002232Y014598D01*
X002268Y014574D01*
X002302Y014546D01*
X002334Y014515D01*
X002363Y014481D01*
X002389Y014445D01*
X002411Y014407D01*
X002430Y014367D01*
X002445Y014325D01*
X002457Y014283D01*
X002465Y014239D01*
X002469Y014195D01*
X002469Y014151D01*
X002465Y014107D01*
X002457Y014063D01*
X002445Y014021D01*
X002430Y013979D01*
X002411Y013939D01*
X002389Y013901D01*
X002363Y013865D01*
X002334Y013831D01*
X002302Y013800D01*
X002268Y013772D01*
X002232Y013748D01*
X002193Y013726D01*
X002153Y013708D01*
X002111Y013694D01*
X002068Y013683D01*
X002024Y013676D01*
X001980Y013673D01*
X001936Y013674D01*
X001892Y013679D01*
X001849Y013688D01*
X001806Y013700D01*
X001765Y013717D01*
X001725Y013736D01*
X001688Y013760D01*
X001652Y013786D01*
X001619Y013816D01*
X001589Y013848D01*
X001562Y013883D01*
X001538Y013920D01*
X001517Y013959D01*
X001500Y014000D01*
X001487Y014042D01*
X001477Y014085D01*
X001471Y014129D01*
X001469Y014173D01*
X001469Y018504D02*
X001471Y018548D01*
X001477Y018592D01*
X001487Y018635D01*
X001500Y018677D01*
X001517Y018718D01*
X001538Y018757D01*
X001562Y018794D01*
X001589Y018829D01*
X001619Y018861D01*
X001652Y018891D01*
X001688Y018917D01*
X001725Y018941D01*
X001765Y018960D01*
X001806Y018977D01*
X001849Y018989D01*
X001892Y018998D01*
X001936Y019003D01*
X001980Y019004D01*
X002024Y019001D01*
X002068Y018994D01*
X002111Y018983D01*
X002153Y018969D01*
X002193Y018951D01*
X002232Y018929D01*
X002268Y018905D01*
X002302Y018877D01*
X002334Y018846D01*
X002363Y018812D01*
X002389Y018776D01*
X002411Y018738D01*
X002430Y018698D01*
X002445Y018656D01*
X002457Y018614D01*
X002465Y018570D01*
X002469Y018526D01*
X002469Y018482D01*
X002465Y018438D01*
X002457Y018394D01*
X002445Y018352D01*
X002430Y018310D01*
X002411Y018270D01*
X002389Y018232D01*
X002363Y018196D01*
X002334Y018162D01*
X002302Y018131D01*
X002268Y018103D01*
X002232Y018079D01*
X002193Y018057D01*
X002153Y018039D01*
X002111Y018025D01*
X002068Y018014D01*
X002024Y018007D01*
X001980Y018004D01*
X001936Y018005D01*
X001892Y018010D01*
X001849Y018019D01*
X001806Y018031D01*
X001765Y018048D01*
X001725Y018067D01*
X001688Y018091D01*
X001652Y018117D01*
X001619Y018147D01*
X001589Y018179D01*
X001562Y018214D01*
X001538Y018251D01*
X001517Y018290D01*
X001500Y018331D01*
X001487Y018373D01*
X001477Y018416D01*
X001471Y018460D01*
X001469Y018504D01*
X001469Y023228D02*
X001471Y023272D01*
X001477Y023316D01*
X001487Y023359D01*
X001500Y023401D01*
X001517Y023442D01*
X001538Y023481D01*
X001562Y023518D01*
X001589Y023553D01*
X001619Y023585D01*
X001652Y023615D01*
X001688Y023641D01*
X001725Y023665D01*
X001765Y023684D01*
X001806Y023701D01*
X001849Y023713D01*
X001892Y023722D01*
X001936Y023727D01*
X001980Y023728D01*
X002024Y023725D01*
X002068Y023718D01*
X002111Y023707D01*
X002153Y023693D01*
X002193Y023675D01*
X002232Y023653D01*
X002268Y023629D01*
X002302Y023601D01*
X002334Y023570D01*
X002363Y023536D01*
X002389Y023500D01*
X002411Y023462D01*
X002430Y023422D01*
X002445Y023380D01*
X002457Y023338D01*
X002465Y023294D01*
X002469Y023250D01*
X002469Y023206D01*
X002465Y023162D01*
X002457Y023118D01*
X002445Y023076D01*
X002430Y023034D01*
X002411Y022994D01*
X002389Y022956D01*
X002363Y022920D01*
X002334Y022886D01*
X002302Y022855D01*
X002268Y022827D01*
X002232Y022803D01*
X002193Y022781D01*
X002153Y022763D01*
X002111Y022749D01*
X002068Y022738D01*
X002024Y022731D01*
X001980Y022728D01*
X001936Y022729D01*
X001892Y022734D01*
X001849Y022743D01*
X001806Y022755D01*
X001765Y022772D01*
X001725Y022791D01*
X001688Y022815D01*
X001652Y022841D01*
X001619Y022871D01*
X001589Y022903D01*
X001562Y022938D01*
X001538Y022975D01*
X001517Y023014D01*
X001500Y023055D01*
X001487Y023097D01*
X001477Y023140D01*
X001471Y023184D01*
X001469Y023228D01*
X010917Y029823D02*
X010919Y029867D01*
X010925Y029911D01*
X010935Y029954D01*
X010948Y029996D01*
X010965Y030037D01*
X010986Y030076D01*
X011010Y030113D01*
X011037Y030148D01*
X011067Y030180D01*
X011100Y030210D01*
X011136Y030236D01*
X011173Y030260D01*
X011213Y030279D01*
X011254Y030296D01*
X011297Y030308D01*
X011340Y030317D01*
X011384Y030322D01*
X011428Y030323D01*
X011472Y030320D01*
X011516Y030313D01*
X011559Y030302D01*
X011601Y030288D01*
X011641Y030270D01*
X011680Y030248D01*
X011716Y030224D01*
X011750Y030196D01*
X011782Y030165D01*
X011811Y030131D01*
X011837Y030095D01*
X011859Y030057D01*
X011878Y030017D01*
X011893Y029975D01*
X011905Y029933D01*
X011913Y029889D01*
X011917Y029845D01*
X011917Y029801D01*
X011913Y029757D01*
X011905Y029713D01*
X011893Y029671D01*
X011878Y029629D01*
X011859Y029589D01*
X011837Y029551D01*
X011811Y029515D01*
X011782Y029481D01*
X011750Y029450D01*
X011716Y029422D01*
X011680Y029398D01*
X011641Y029376D01*
X011601Y029358D01*
X011559Y029344D01*
X011516Y029333D01*
X011472Y029326D01*
X011428Y029323D01*
X011384Y029324D01*
X011340Y029329D01*
X011297Y029338D01*
X011254Y029350D01*
X011213Y029367D01*
X011173Y029386D01*
X011136Y029410D01*
X011100Y029436D01*
X011067Y029466D01*
X011037Y029498D01*
X011010Y029533D01*
X010986Y029570D01*
X010965Y029609D01*
X010948Y029650D01*
X010935Y029692D01*
X010925Y029735D01*
X010919Y029779D01*
X010917Y029823D01*
X016232Y029823D02*
X016234Y029867D01*
X016240Y029911D01*
X016250Y029954D01*
X016263Y029996D01*
X016280Y030037D01*
X016301Y030076D01*
X016325Y030113D01*
X016352Y030148D01*
X016382Y030180D01*
X016415Y030210D01*
X016451Y030236D01*
X016488Y030260D01*
X016528Y030279D01*
X016569Y030296D01*
X016612Y030308D01*
X016655Y030317D01*
X016699Y030322D01*
X016743Y030323D01*
X016787Y030320D01*
X016831Y030313D01*
X016874Y030302D01*
X016916Y030288D01*
X016956Y030270D01*
X016995Y030248D01*
X017031Y030224D01*
X017065Y030196D01*
X017097Y030165D01*
X017126Y030131D01*
X017152Y030095D01*
X017174Y030057D01*
X017193Y030017D01*
X017208Y029975D01*
X017220Y029933D01*
X017228Y029889D01*
X017232Y029845D01*
X017232Y029801D01*
X017228Y029757D01*
X017220Y029713D01*
X017208Y029671D01*
X017193Y029629D01*
X017174Y029589D01*
X017152Y029551D01*
X017126Y029515D01*
X017097Y029481D01*
X017065Y029450D01*
X017031Y029422D01*
X016995Y029398D01*
X016956Y029376D01*
X016916Y029358D01*
X016874Y029344D01*
X016831Y029333D01*
X016787Y029326D01*
X016743Y029323D01*
X016699Y029324D01*
X016655Y029329D01*
X016612Y029338D01*
X016569Y029350D01*
X016528Y029367D01*
X016488Y029386D01*
X016451Y029410D01*
X016415Y029436D01*
X016382Y029466D01*
X016352Y029498D01*
X016325Y029533D01*
X016301Y029570D01*
X016280Y029609D01*
X016263Y029650D01*
X016250Y029692D01*
X016240Y029735D01*
X016234Y029779D01*
X016232Y029823D01*
X029421Y019193D02*
X029423Y019237D01*
X029429Y019281D01*
X029439Y019324D01*
X029452Y019366D01*
X029469Y019407D01*
X029490Y019446D01*
X029514Y019483D01*
X029541Y019518D01*
X029571Y019550D01*
X029604Y019580D01*
X029640Y019606D01*
X029677Y019630D01*
X029717Y019649D01*
X029758Y019666D01*
X029801Y019678D01*
X029844Y019687D01*
X029888Y019692D01*
X029932Y019693D01*
X029976Y019690D01*
X030020Y019683D01*
X030063Y019672D01*
X030105Y019658D01*
X030145Y019640D01*
X030184Y019618D01*
X030220Y019594D01*
X030254Y019566D01*
X030286Y019535D01*
X030315Y019501D01*
X030341Y019465D01*
X030363Y019427D01*
X030382Y019387D01*
X030397Y019345D01*
X030409Y019303D01*
X030417Y019259D01*
X030421Y019215D01*
X030421Y019171D01*
X030417Y019127D01*
X030409Y019083D01*
X030397Y019041D01*
X030382Y018999D01*
X030363Y018959D01*
X030341Y018921D01*
X030315Y018885D01*
X030286Y018851D01*
X030254Y018820D01*
X030220Y018792D01*
X030184Y018768D01*
X030145Y018746D01*
X030105Y018728D01*
X030063Y018714D01*
X030020Y018703D01*
X029976Y018696D01*
X029932Y018693D01*
X029888Y018694D01*
X029844Y018699D01*
X029801Y018708D01*
X029758Y018720D01*
X029717Y018737D01*
X029677Y018756D01*
X029640Y018780D01*
X029604Y018806D01*
X029571Y018836D01*
X029541Y018868D01*
X029514Y018903D01*
X029490Y018940D01*
X029469Y018979D01*
X029452Y019020D01*
X029439Y019062D01*
X029429Y019105D01*
X029423Y019149D01*
X029421Y019193D01*
X029421Y006988D02*
X029423Y007032D01*
X029429Y007076D01*
X029439Y007119D01*
X029452Y007161D01*
X029469Y007202D01*
X029490Y007241D01*
X029514Y007278D01*
X029541Y007313D01*
X029571Y007345D01*
X029604Y007375D01*
X029640Y007401D01*
X029677Y007425D01*
X029717Y007444D01*
X029758Y007461D01*
X029801Y007473D01*
X029844Y007482D01*
X029888Y007487D01*
X029932Y007488D01*
X029976Y007485D01*
X030020Y007478D01*
X030063Y007467D01*
X030105Y007453D01*
X030145Y007435D01*
X030184Y007413D01*
X030220Y007389D01*
X030254Y007361D01*
X030286Y007330D01*
X030315Y007296D01*
X030341Y007260D01*
X030363Y007222D01*
X030382Y007182D01*
X030397Y007140D01*
X030409Y007098D01*
X030417Y007054D01*
X030421Y007010D01*
X030421Y006966D01*
X030417Y006922D01*
X030409Y006878D01*
X030397Y006836D01*
X030382Y006794D01*
X030363Y006754D01*
X030341Y006716D01*
X030315Y006680D01*
X030286Y006646D01*
X030254Y006615D01*
X030220Y006587D01*
X030184Y006563D01*
X030145Y006541D01*
X030105Y006523D01*
X030063Y006509D01*
X030020Y006498D01*
X029976Y006491D01*
X029932Y006488D01*
X029888Y006489D01*
X029844Y006494D01*
X029801Y006503D01*
X029758Y006515D01*
X029717Y006532D01*
X029677Y006551D01*
X029640Y006575D01*
X029604Y006601D01*
X029571Y006631D01*
X029541Y006663D01*
X029514Y006698D01*
X029490Y006735D01*
X029469Y006774D01*
X029452Y006815D01*
X029439Y006857D01*
X029429Y006900D01*
X029423Y006944D01*
X029421Y006988D01*
D14*
X010573Y027600D02*
X010429Y027793D01*
X010215Y027793D01*
X010215Y027986D01*
X010477Y027986D01*
X010496Y027984D01*
X010514Y027979D01*
X010530Y027970D01*
X010545Y027958D01*
X010557Y027943D01*
X010566Y027927D01*
X010571Y027909D01*
X010573Y027890D01*
X010572Y027873D01*
X010567Y027857D01*
X010560Y027842D01*
X010550Y027828D01*
X010538Y027816D01*
X010525Y027806D01*
X010509Y027799D01*
X010493Y027794D01*
X010476Y027793D01*
X010429Y027793D01*
X010215Y027793D02*
X010215Y027600D01*
X009967Y027750D02*
X009967Y027835D01*
X009965Y027859D01*
X009960Y027882D01*
X009950Y027904D01*
X009938Y027924D01*
X009922Y027942D01*
X009904Y027958D01*
X009884Y027970D01*
X009862Y027980D01*
X009839Y027985D01*
X009815Y027987D01*
X009815Y027986D02*
X009731Y027986D01*
X009708Y027984D01*
X009685Y027979D01*
X009663Y027970D01*
X009643Y027957D01*
X009625Y027942D01*
X009610Y027924D01*
X009597Y027904D01*
X009588Y027882D01*
X009583Y027859D01*
X009581Y027836D01*
X009581Y027751D01*
X009580Y027751D02*
X009582Y027727D01*
X009587Y027704D01*
X009596Y027682D01*
X009609Y027662D01*
X009624Y027644D01*
X009642Y027629D01*
X009662Y027616D01*
X009684Y027607D01*
X009707Y027602D01*
X009731Y027600D01*
X009817Y027600D01*
X009817Y027601D02*
X009840Y027603D01*
X009863Y027608D01*
X009885Y027617D01*
X009905Y027629D01*
X009922Y027645D01*
X009938Y027662D01*
X009950Y027682D01*
X009959Y027704D01*
X009964Y027727D01*
X009966Y027750D01*
X009333Y027986D02*
X009167Y027986D01*
X009167Y027600D01*
X008781Y027600D02*
X008576Y027600D01*
X008576Y027601D02*
X008556Y027603D01*
X008537Y027607D01*
X008519Y027615D01*
X008503Y027625D01*
X008488Y027638D01*
X008475Y027653D01*
X008465Y027669D01*
X008457Y027687D01*
X008453Y027706D01*
X008451Y027726D01*
X008451Y027861D01*
X008450Y027861D02*
X008452Y027883D01*
X008458Y027904D01*
X008467Y027924D01*
X008479Y027942D01*
X008495Y027958D01*
X008513Y027970D01*
X008533Y027979D01*
X008554Y027985D01*
X008576Y027987D01*
X008576Y027986D02*
X008781Y027986D01*
X009002Y027986D02*
X009167Y027986D01*
X009112Y028510D02*
X009112Y029768D01*
X009115Y029792D01*
X008754Y029792D01*
X008754Y029711D02*
X009112Y029711D01*
X009115Y029792D02*
X009125Y029814D01*
X009139Y029833D01*
X009158Y029848D01*
X009180Y029857D01*
X009204Y029860D01*
X009376Y029860D01*
X009401Y029857D01*
X009423Y029848D01*
X009443Y029833D01*
X009458Y029813D01*
X009467Y029790D01*
X009470Y029766D01*
X009470Y028510D01*
X009856Y028510D01*
X009856Y029766D01*
X009860Y029790D01*
X009869Y029813D01*
X009884Y029833D01*
X009904Y029848D01*
X009926Y029857D01*
X009951Y029860D01*
X010022Y029860D01*
X010087Y029853D01*
X010150Y029833D01*
X010171Y029818D01*
X010189Y029799D01*
X010203Y029777D01*
X010212Y029752D01*
X010215Y029726D01*
X010215Y028510D01*
X010573Y028510D01*
X010573Y029709D01*
X010568Y029762D01*
X010552Y029813D01*
X010525Y029859D01*
X010489Y029898D01*
X010445Y029929D01*
X010374Y029972D01*
X010298Y030005D01*
X010219Y030026D01*
X010086Y030045D01*
X009953Y030053D01*
X009443Y030053D01*
X009097Y030040D01*
X008754Y029998D01*
X008754Y028510D01*
X009112Y028510D01*
X009112Y028574D02*
X008754Y028574D01*
X008754Y028656D02*
X009112Y028656D01*
X009112Y028737D02*
X008754Y028737D01*
X008754Y028818D02*
X009112Y028818D01*
X009112Y028899D02*
X008754Y028899D01*
X008754Y028980D02*
X009112Y028980D01*
X009112Y029062D02*
X008754Y029062D01*
X008754Y029143D02*
X009112Y029143D01*
X009112Y029224D02*
X008754Y029224D01*
X008754Y029305D02*
X009112Y029305D01*
X009112Y029386D02*
X008754Y029386D01*
X008754Y029467D02*
X009112Y029467D01*
X009112Y029549D02*
X008754Y029549D01*
X008754Y029630D02*
X009112Y029630D01*
X009470Y029630D02*
X009856Y029630D01*
X009856Y029711D02*
X009470Y029711D01*
X009467Y029792D02*
X009860Y029792D01*
X009856Y029549D02*
X009470Y029549D01*
X009470Y029467D02*
X009856Y029467D01*
X009856Y029386D02*
X009470Y029386D01*
X009470Y029305D02*
X009856Y029305D01*
X009856Y029224D02*
X009470Y029224D01*
X009470Y029143D02*
X009856Y029143D01*
X009856Y029062D02*
X009470Y029062D01*
X009470Y028980D02*
X009856Y028980D01*
X009856Y028899D02*
X009470Y028899D01*
X009470Y028818D02*
X009856Y028818D01*
X009856Y028737D02*
X009470Y028737D01*
X009470Y028656D02*
X009856Y028656D01*
X009856Y028574D02*
X009470Y028574D01*
X010215Y028574D02*
X010573Y028574D01*
X010573Y028656D02*
X010215Y028656D01*
X010215Y028737D02*
X010573Y028737D01*
X010573Y028818D02*
X010215Y028818D01*
X010215Y028899D02*
X010573Y028899D01*
X010573Y028980D02*
X010215Y028980D01*
X010215Y029062D02*
X010573Y029062D01*
X010573Y029143D02*
X010215Y029143D01*
X010215Y029224D02*
X010573Y029224D01*
X010573Y029305D02*
X010215Y029305D01*
X010215Y029386D02*
X010573Y029386D01*
X010573Y029467D02*
X010215Y029467D01*
X010215Y029549D02*
X010573Y029549D01*
X010573Y029630D02*
X010215Y029630D01*
X010215Y029711D02*
X010573Y029711D01*
X010558Y029792D02*
X010194Y029792D01*
X010150Y030036D02*
X009064Y030036D01*
X008754Y029954D02*
X010403Y029954D01*
X010512Y029873D02*
X008754Y029873D01*
X008341Y029873D02*
X007955Y029873D01*
X007955Y029792D02*
X008341Y029792D01*
X008341Y029711D02*
X007955Y029711D01*
X007955Y029630D02*
X008341Y029630D01*
X008341Y029549D02*
X007955Y029549D01*
X007955Y029488D02*
X007951Y029463D01*
X007942Y029440D01*
X007926Y029420D01*
X007906Y029405D01*
X007883Y029395D01*
X007858Y029392D01*
X007225Y029392D01*
X007200Y029395D01*
X007176Y029405D01*
X007156Y029420D01*
X007141Y029440D01*
X007131Y029464D01*
X007128Y029489D01*
X007128Y029998D01*
X006742Y029998D01*
X006742Y028510D01*
X007128Y028510D01*
X007128Y029104D01*
X007131Y029128D01*
X007141Y029151D01*
X007156Y029171D01*
X007175Y029186D01*
X007198Y029196D01*
X007223Y029199D01*
X007862Y029199D01*
X007886Y029196D01*
X007908Y029186D01*
X007928Y029172D01*
X007942Y029153D01*
X007952Y029130D01*
X007955Y029106D01*
X007955Y028510D01*
X008341Y028510D01*
X008341Y029998D01*
X007955Y029998D01*
X007955Y029488D01*
X007952Y029467D02*
X008341Y029467D01*
X008341Y029386D02*
X006742Y029386D01*
X006742Y029305D02*
X008341Y029305D01*
X008341Y029224D02*
X006742Y029224D01*
X006742Y029143D02*
X007137Y029143D01*
X007128Y029062D02*
X006742Y029062D01*
X006742Y028980D02*
X007128Y028980D01*
X007128Y028899D02*
X006742Y028899D01*
X006742Y028818D02*
X007128Y028818D01*
X007128Y028737D02*
X006742Y028737D01*
X006742Y028656D02*
X007128Y028656D01*
X007128Y028574D02*
X006742Y028574D01*
X006337Y028800D02*
X006352Y028854D01*
X006356Y028909D01*
X006356Y029626D01*
X006352Y029685D01*
X006336Y029743D01*
X006311Y029796D01*
X006276Y029844D01*
X006227Y029897D01*
X006170Y029939D01*
X006106Y029970D01*
X005998Y030016D01*
X005885Y030044D01*
X005768Y030053D01*
X005415Y030053D01*
X005314Y030048D01*
X005214Y030029D01*
X005118Y029998D01*
X005022Y029942D01*
X004937Y029870D01*
X004903Y029836D01*
X004875Y029795D01*
X004855Y029751D01*
X004844Y029704D01*
X004841Y029656D01*
X004841Y029291D01*
X004841Y028882D01*
X004845Y028832D01*
X004858Y028784D01*
X004879Y028739D01*
X004909Y028698D01*
X004945Y028663D01*
X004998Y028618D01*
X005060Y028584D01*
X005126Y028561D01*
X005215Y028532D01*
X005306Y028515D01*
X005400Y028510D01*
X005762Y028510D01*
X005868Y028515D01*
X005973Y028533D01*
X006075Y028563D01*
X006159Y028611D01*
X006234Y028671D01*
X006277Y028707D01*
X006312Y028751D01*
X006337Y028800D01*
X006342Y028818D02*
X005962Y028818D01*
X005960Y028813D02*
X005931Y028768D01*
X005885Y028728D01*
X005831Y028699D01*
X005773Y028681D01*
X005713Y028675D01*
X005490Y028675D01*
X005428Y028683D01*
X005368Y028702D01*
X005313Y028732D01*
X005264Y028772D01*
X005236Y028816D01*
X005215Y028864D01*
X005203Y028914D01*
X005199Y028967D01*
X005199Y029291D01*
X004841Y029291D01*
X005199Y029291D01*
X005199Y029626D01*
X005203Y029671D01*
X005215Y029715D01*
X005234Y029756D01*
X005261Y029793D01*
X005293Y029825D01*
X005340Y029853D01*
X005390Y029873D01*
X005442Y029884D01*
X005496Y029888D01*
X005689Y029888D01*
X005763Y029881D01*
X005834Y029862D01*
X005902Y029831D01*
X005935Y029798D01*
X005962Y029761D01*
X005982Y029719D01*
X005994Y029674D01*
X005998Y029628D01*
X005998Y028967D01*
X005994Y028913D01*
X005981Y028862D01*
X005960Y028813D01*
X005990Y028899D02*
X006356Y028899D01*
X006356Y028980D02*
X005998Y028980D01*
X005998Y029062D02*
X006356Y029062D01*
X006356Y029143D02*
X005998Y029143D01*
X005998Y029224D02*
X006356Y029224D01*
X006356Y029305D02*
X005998Y029305D01*
X005998Y029386D02*
X006356Y029386D01*
X006356Y029467D02*
X005998Y029467D01*
X005998Y029549D02*
X006356Y029549D01*
X006356Y029630D02*
X005998Y029630D01*
X005984Y029711D02*
X006345Y029711D01*
X006313Y029792D02*
X005939Y029792D01*
X005793Y029873D02*
X006249Y029873D01*
X006139Y029954D02*
X005044Y029954D01*
X004941Y029873D02*
X005393Y029873D01*
X005260Y029792D02*
X004874Y029792D01*
X004845Y029711D02*
X005214Y029711D01*
X005199Y029630D02*
X004841Y029630D01*
X004841Y029549D02*
X005199Y029549D01*
X005199Y029467D02*
X004841Y029467D01*
X004841Y029386D02*
X005199Y029386D01*
X005199Y029305D02*
X004841Y029305D01*
X004841Y029224D02*
X005199Y029224D01*
X005199Y029143D02*
X004841Y029143D01*
X004841Y029062D02*
X005199Y029062D01*
X005199Y028980D02*
X004841Y028980D01*
X004841Y028899D02*
X005206Y028899D01*
X005235Y028818D02*
X004849Y028818D01*
X004881Y028737D02*
X005306Y028737D01*
X005086Y028574D02*
X006095Y028574D01*
X006215Y028656D02*
X004954Y028656D01*
X004561Y028510D02*
X004069Y029057D01*
X004069Y029146D01*
X004148Y029145D01*
X004226Y029159D01*
X004300Y029186D01*
X004368Y029226D01*
X004407Y029264D01*
X004438Y029308D01*
X004462Y029357D01*
X004477Y029409D01*
X004482Y029463D01*
X004482Y029683D01*
X004479Y029738D01*
X004467Y029791D01*
X004446Y029841D01*
X004418Y029888D01*
X004382Y029929D01*
X004313Y029974D01*
X004238Y030007D01*
X004157Y030026D01*
X004023Y030046D01*
X003888Y030053D01*
X003518Y030053D01*
X003254Y030041D01*
X002994Y029998D01*
X002994Y028510D01*
X003380Y028510D01*
X003380Y029791D01*
X003383Y029816D01*
X003393Y029840D01*
X003408Y029860D01*
X003428Y029875D01*
X003451Y029885D01*
X003476Y029888D01*
X003789Y029888D01*
X003874Y029884D01*
X003956Y029865D01*
X004033Y029831D01*
X004064Y029805D01*
X004090Y029774D01*
X004109Y029738D01*
X004120Y029700D01*
X004124Y029659D01*
X004124Y029516D01*
X004117Y029468D01*
X004101Y029422D01*
X004077Y029380D01*
X004045Y029343D01*
X003977Y029308D01*
X003903Y029288D01*
X003827Y029281D01*
X003628Y029281D01*
X003628Y029116D01*
X004150Y028510D01*
X004561Y028510D01*
X004503Y028574D02*
X004094Y028574D01*
X004024Y028656D02*
X004430Y028656D01*
X004357Y028737D02*
X003954Y028737D01*
X003884Y028818D02*
X004284Y028818D01*
X004211Y028899D02*
X003815Y028899D01*
X003745Y028980D02*
X004138Y028980D01*
X004069Y029062D02*
X003675Y029062D01*
X003628Y029143D02*
X004069Y029143D01*
X003966Y029305D02*
X004436Y029305D01*
X004470Y029386D02*
X004081Y029386D01*
X004117Y029467D02*
X004482Y029467D01*
X004482Y029549D02*
X004124Y029549D01*
X004124Y029630D02*
X004482Y029630D01*
X004481Y029711D02*
X004117Y029711D01*
X004075Y029792D02*
X004466Y029792D01*
X004426Y029873D02*
X003920Y029873D01*
X004091Y030036D02*
X003224Y030036D01*
X002994Y029954D02*
X004343Y029954D01*
X004364Y029224D02*
X003628Y029224D01*
X003380Y029224D02*
X002994Y029224D01*
X002994Y029305D02*
X003380Y029305D01*
X003380Y029386D02*
X002994Y029386D01*
X002994Y029467D02*
X003380Y029467D01*
X003380Y029549D02*
X002994Y029549D01*
X002994Y029630D02*
X003380Y029630D01*
X003380Y029711D02*
X002994Y029711D01*
X002994Y029792D02*
X003380Y029792D01*
X003426Y029873D02*
X002994Y029873D01*
X002994Y029143D02*
X003380Y029143D01*
X003380Y029062D02*
X002994Y029062D01*
X002994Y028980D02*
X003380Y028980D01*
X003380Y028899D02*
X002994Y028899D01*
X002994Y028818D02*
X003380Y028818D01*
X003380Y028737D02*
X002994Y028737D01*
X002994Y028656D02*
X003380Y028656D01*
X003380Y028574D02*
X002994Y028574D01*
X003085Y027986D02*
X003380Y027986D01*
X003284Y027793D02*
X003096Y027793D01*
X003078Y027795D01*
X003061Y027799D01*
X003045Y027807D01*
X003030Y027817D01*
X003018Y027829D01*
X003008Y027844D01*
X003000Y027860D01*
X002996Y027877D01*
X002994Y027895D01*
X002996Y027913D01*
X003001Y027930D01*
X003009Y027946D01*
X003021Y027959D01*
X003034Y027971D01*
X003050Y027979D01*
X003067Y027984D01*
X003085Y027986D01*
X003380Y027697D02*
X003379Y027680D01*
X003374Y027664D01*
X003367Y027649D01*
X003357Y027635D01*
X003345Y027623D01*
X003332Y027613D01*
X003316Y027606D01*
X003300Y027601D01*
X003283Y027600D01*
X002994Y027600D01*
X003284Y027793D02*
X003303Y027791D01*
X003321Y027786D01*
X003337Y027777D01*
X003352Y027765D01*
X003364Y027750D01*
X003373Y027734D01*
X003378Y027716D01*
X003380Y027697D01*
X003628Y027722D02*
X003628Y027793D01*
X003959Y027793D01*
X003959Y027600D02*
X003749Y027600D01*
X003749Y027601D02*
X003728Y027603D01*
X003708Y027608D01*
X003689Y027617D01*
X003671Y027629D01*
X003656Y027644D01*
X003644Y027662D01*
X003635Y027681D01*
X003630Y027701D01*
X003628Y027722D01*
X003628Y027793D02*
X003628Y027865D01*
X003630Y027886D01*
X003635Y027906D01*
X003644Y027926D01*
X003656Y027943D01*
X003671Y027958D01*
X003689Y027970D01*
X003708Y027979D01*
X003728Y027984D01*
X003749Y027986D01*
X003959Y027986D01*
X004234Y027986D02*
X004234Y027600D01*
X004476Y027600D02*
X004293Y027986D01*
X004234Y027986D01*
X004648Y027986D02*
X004476Y027600D01*
X004703Y027600D02*
X004703Y027986D01*
X004648Y027986D01*
X005006Y027986D02*
X005006Y027600D01*
X005309Y027726D02*
X005309Y027859D01*
X005311Y027879D01*
X005315Y027898D01*
X005323Y027917D01*
X005333Y027934D01*
X005346Y027949D01*
X005361Y027962D01*
X005378Y027972D01*
X005397Y027980D01*
X005416Y027984D01*
X005436Y027986D01*
X005640Y027986D01*
X005888Y027835D02*
X005888Y027751D01*
X005890Y027728D01*
X005895Y027705D01*
X005904Y027683D01*
X005917Y027663D01*
X005932Y027645D01*
X005950Y027630D01*
X005970Y027617D01*
X005992Y027608D01*
X006015Y027603D01*
X006038Y027601D01*
X006038Y027600D02*
X006124Y027600D01*
X006124Y027601D02*
X006147Y027603D01*
X006170Y027608D01*
X006192Y027617D01*
X006212Y027629D01*
X006229Y027645D01*
X006245Y027662D01*
X006257Y027682D01*
X006266Y027704D01*
X006271Y027727D01*
X006273Y027750D01*
X006274Y027750D02*
X006274Y027836D01*
X006272Y027859D01*
X006267Y027882D01*
X006258Y027904D01*
X006245Y027924D01*
X006230Y027942D01*
X006212Y027957D01*
X006192Y027970D01*
X006170Y027979D01*
X006147Y027984D01*
X006124Y027986D01*
X006039Y027986D01*
X006039Y027987D02*
X006015Y027985D01*
X005992Y027980D01*
X005970Y027970D01*
X005950Y027958D01*
X005932Y027942D01*
X005916Y027924D01*
X005904Y027904D01*
X005894Y027882D01*
X005889Y027859D01*
X005887Y027835D01*
X005640Y027600D02*
X005435Y027600D01*
X005415Y027602D01*
X005396Y027606D01*
X005378Y027614D01*
X005361Y027624D01*
X005346Y027637D01*
X005333Y027652D01*
X005323Y027669D01*
X005315Y027687D01*
X005311Y027706D01*
X005309Y027726D01*
X005895Y028737D02*
X006301Y028737D01*
X006549Y027986D02*
X006610Y027986D01*
X006866Y027600D01*
X006935Y027600D01*
X006935Y027986D01*
X007211Y027986D02*
X007211Y027600D01*
X007419Y027600D01*
X007419Y027601D02*
X007442Y027603D01*
X007465Y027608D01*
X007487Y027617D01*
X007507Y027630D01*
X007525Y027645D01*
X007540Y027663D01*
X007553Y027683D01*
X007562Y027705D01*
X007567Y027728D01*
X007569Y027751D01*
X007569Y027839D01*
X007567Y027862D01*
X007562Y027885D01*
X007553Y027906D01*
X007541Y027926D01*
X007526Y027944D01*
X007508Y027959D01*
X007488Y027971D01*
X007467Y027980D01*
X007444Y027985D01*
X007421Y027987D01*
X007421Y027986D02*
X007211Y027986D01*
X007844Y027986D02*
X007844Y027751D01*
X007845Y027751D02*
X007847Y027728D01*
X007852Y027705D01*
X007861Y027683D01*
X007874Y027663D01*
X007889Y027645D01*
X007907Y027630D01*
X007927Y027617D01*
X007949Y027608D01*
X007972Y027603D01*
X007995Y027601D01*
X007995Y027600D02*
X008052Y027600D01*
X008076Y027602D01*
X008099Y027607D01*
X008121Y027616D01*
X008141Y027629D01*
X008159Y027644D01*
X008174Y027662D01*
X008187Y027682D01*
X008196Y027704D01*
X008201Y027727D01*
X008203Y027751D01*
X008203Y027986D01*
X008341Y028574D02*
X007955Y028574D01*
X007955Y028656D02*
X008341Y028656D01*
X008341Y028737D02*
X007955Y028737D01*
X007955Y028818D02*
X008341Y028818D01*
X008341Y028899D02*
X007955Y028899D01*
X007955Y028980D02*
X008341Y028980D01*
X008341Y029062D02*
X007955Y029062D01*
X007946Y029143D02*
X008341Y029143D01*
X008341Y029954D02*
X007955Y029954D01*
X007128Y029954D02*
X006742Y029954D01*
X006742Y029873D02*
X007128Y029873D01*
X007128Y029792D02*
X006742Y029792D01*
X006742Y029711D02*
X007128Y029711D01*
X007128Y029630D02*
X006742Y029630D01*
X006742Y029549D02*
X007128Y029549D01*
X007131Y029467D02*
X006742Y029467D01*
X005918Y030036D02*
X005248Y030036D01*
X006549Y027986D02*
X006549Y027600D01*
D15*
X004908Y007839D02*
X004800Y007785D01*
X004692Y007677D01*
X004854Y007677D01*
X004908Y007623D01*
X004908Y007569D01*
X004854Y007515D01*
X004746Y007515D01*
X004692Y007569D01*
X004692Y007677D01*
X004546Y007677D02*
X004492Y007623D01*
X004330Y007623D01*
X004438Y007623D02*
X004546Y007515D01*
X004546Y007677D02*
X004546Y007785D01*
X004492Y007839D01*
X004330Y007839D01*
X004330Y007515D01*
X006629Y007405D02*
X006629Y007189D01*
X006683Y007042D02*
X006791Y007042D01*
X006845Y006988D01*
X006845Y006826D01*
X006953Y006826D02*
X006629Y006826D01*
X006629Y006988D01*
X006683Y007042D01*
X006845Y006934D02*
X006953Y007042D01*
X006953Y007189D02*
X006899Y007189D01*
X006683Y007405D01*
X006629Y007405D01*
D16*
X030360Y016103D02*
X030423Y016039D01*
X030679Y016039D01*
X030742Y016103D01*
X030742Y016231D01*
X030679Y016294D01*
X030679Y016474D02*
X030742Y016538D01*
X030742Y016666D01*
X030679Y016729D01*
X030423Y016729D01*
X030360Y016666D01*
X030360Y016538D01*
X030423Y016474D01*
X030679Y016474D01*
X030423Y016294D02*
X030360Y016231D01*
X030360Y016103D01*
X030360Y016909D02*
X030679Y016909D01*
X030742Y016973D01*
X030742Y017101D01*
X030679Y017164D01*
X030360Y017164D01*
X030360Y017344D02*
X030360Y017599D01*
X030360Y017472D02*
X030742Y017472D01*
X030742Y017779D02*
X030487Y018034D01*
X030423Y018034D01*
X030360Y017971D01*
X030360Y017843D01*
X030423Y017779D01*
X030742Y017779D02*
X030742Y018034D01*
M02*
