%
M48
T01C0.011811
T02C0.031496
T03C0.125984
%
T01
X3150Y787
X4724Y787
X6299Y787
X7874Y787
X9449Y787
X10236Y1575
X11024Y787
X11811Y1575
X12598Y2362
X13386Y1575
X14173Y2362
X13780Y2756
X14961Y3150
X15748Y3937
X16535Y3150
X15748Y2362
X14961Y1575
X15748Y787
X16535Y1575
X17323Y2362
X18110Y1575
X17323Y787
X18898Y787
X19685Y1575
X18898Y2362
X19685Y3150
X18898Y3937
X18110Y3150
X17323Y3937
X18110Y4724
X17323Y5512
X16535Y4724
X15748Y5512
X14961Y4724
X14173Y5512
X13386Y4724
X12943Y5463
X12943Y5758
X12943Y6053
X12648Y6053
X12648Y5758
X12648Y5463
X12352Y5463
X12352Y5758
X12352Y6053
X11417Y5807
X11122Y5807
X10728Y6890
X9350Y7677
X9055Y7677
X8760Y7677
X8760Y7972
X9055Y7972
X9350Y7972
X9547Y9055
X10138Y9055
X10138Y9646
X9547Y9646
X9252Y10728
X9252Y11024
X9941Y11122
X9941Y11417
X10433Y11417
X10433Y11122
X11073Y10728
X11368Y10728
X12254Y10138
X12549Y9843
X12844Y10138
X13140Y9843
X12844Y9547
X12549Y9252
X12254Y9547
X11909Y8711
X13140Y9252
X13780Y8563
X14567Y9350
X15354Y8563
X14567Y7776
X15354Y6988
X16142Y7776
X16929Y8563
X16142Y9350
X16929Y10138
X16142Y10925
X16929Y11713
X17717Y10925
X18504Y10138
X19291Y10925
X18504Y11713
X18553Y12697
X18258Y12992
X17963Y12697
X17667Y12992
X17372Y12697
X17077Y12992
X16781Y12697
X16486Y12992
X16191Y12697
X15896Y12992
X15600Y12697
X15305Y12992
X15010Y12697
X14715Y12992
X14419Y12697
X14124Y12992
X12844Y12894
X12549Y12894
X12549Y13189
X12254Y13189
X12254Y12894
X12844Y13189
X12549Y12156
X12943Y10630
X13238Y10630
X13780Y10138
X15354Y10138
X17717Y9350
X18504Y8563
X19291Y9350
X20079Y8563
X20866Y9350
X21654Y8563
X20866Y7776
X20079Y6988
X19291Y7776
X18504Y6988
X17717Y7776
X16929Y6988
X18898Y5512
X19685Y4724
X20472Y5512
X21260Y4724
X20472Y3937
X21260Y3150
X22047Y2362
X21260Y1575
X20472Y2362
X20472Y787
X22047Y787
X22835Y1575
X23622Y2362
X24409Y1575
X23622Y787
X25197Y787
X25984Y1575
X25197Y2362
X25984Y3150
X25197Y3937
X24409Y3150
X23622Y3937
X22835Y3150
X22835Y4724
X23622Y5512
X24409Y4724
X25197Y5512
X25984Y4724
X26772Y5512
X27559Y4724
X28346Y5512
X29134Y4724
X29921Y5512
X30709Y4724
X29921Y3937
X29134Y3150
X28346Y3937
X27559Y3150
X26772Y3937
X26772Y2362
X27559Y1575
X28346Y2362
X28346Y787
X26772Y787
X30709Y3150
X27953Y6988
X28740Y7776
X27953Y8563
X28740Y9350
X29528Y8563
X30315Y9350
X29528Y10138
X30315Y10925
X29528Y11713
X30315Y12500
X29528Y13287
X28740Y12500
X27953Y11713
X27165Y12500
X26378Y11713
X25591Y12500
X26378Y13287
X27165Y14075
X26378Y14862
X25591Y14075
X24803Y14862
X24016Y14075
X23228Y14862
X21506Y14911
X21211Y14616
X21506Y14321
X21211Y14026
X20915Y14321
X20620Y14616
X20325Y14321
X20620Y14026
X20325Y13730
X20030Y14026
X20030Y14616
X20325Y14911
X20620Y15207
X20915Y14911
X21211Y15207
X20030Y15207
X18898Y14469
X18898Y14173
X18848Y12992
X19144Y12697
X19439Y12992
X19734Y12697
X20030Y12992
X20325Y12697
X20620Y12992
X20915Y12697
X21211Y12992
X21506Y12697
X21654Y11713
X20866Y10925
X20079Y10138
X21654Y10138
X23228Y10138
X24016Y10925
X24803Y10138
X25591Y10925
X26378Y10138
X27165Y10925
X27953Y10138
X28740Y10925
X27165Y9350
X26378Y8563
X27165Y7776
X26378Y6988
X25591Y7776
X24803Y8563
X24016Y9350
X23228Y8563
X24016Y7776
X24803Y6988
X23228Y6988
X21654Y6988
X25591Y9350
X24803Y11713
X24016Y12500
X24803Y13287
X23228Y13287
X23228Y11713
X21506Y13730
X20915Y13730
X20079Y11713
X15846Y14173
X15846Y14469
X15896Y15945
X16289Y16339
X15896Y16732
X16289Y17126
X15896Y17520
X16289Y17913
X16683Y17520
X17077Y17913
X17470Y17520
X17077Y17126
X17470Y16732
X17077Y16339
X16683Y16732
X16683Y15945
X17470Y15945
X17864Y16339
X18258Y16732
X18652Y16339
X18258Y15945
X18652Y17126
X18258Y17520
X18652Y17913
X18258Y18307
X18652Y18701
X18504Y19193
X17864Y18701
X17470Y18307
X17077Y18701
X16929Y19193
X16289Y18701
X15896Y18307
X16683Y18307
X17864Y17913
X17864Y17126
X15354Y17618
X14173Y18258
X13878Y18258
X15354Y19193
X16142Y19980
X16929Y20768
X16142Y21555
X16929Y22343
X16142Y23130
X16929Y23917
X17717Y23130
X18504Y23917
X19291Y23130
X18504Y22343
X17717Y21555
X18504Y20768
X17717Y19980
X15354Y20768
X14173Y21211
X13878Y21211
X13780Y22343
X14567Y23130
X15354Y23917
X14567Y24705
X15354Y25492
X14567Y26280
X15354Y27067
X16142Y26280
X16929Y25492
X16142Y24705
X17717Y24705
X18504Y25492
X19291Y24705
X19291Y26280
X18504Y27067
X17717Y26280
X17717Y27854
X18504Y28642
X19291Y29429
X18504Y30217
X17717Y29429
X16929Y28642
X16142Y29429
X15354Y28642
X14567Y29429
X13780Y28642
X14567Y27854
X13780Y27067
X13780Y25492
X13780Y23917
X12205Y23917
X11417Y23130
X10630Y23917
X9843Y23130
X10630Y22343
X11417Y21555
X11220Y21063
X10827Y20669
X11220Y20276
X10827Y19882
X11220Y19488
X10827Y19094
X11220Y18701
X10827Y18307
X10433Y18701
X10039Y19094
X9646Y18701
X10039Y18307
X9055Y17618
X8268Y16831
X7480Y17618
X6693Y16831
X5906Y17618
X6693Y18406
X7480Y19193
X6693Y19980
X5906Y19193
X5118Y19980
X4331Y19193
X5118Y18406
X4331Y17618
X5118Y16831
X3543Y16831
X2756Y17618
X3543Y18406
X2756Y19193
X3543Y19980
X2756Y20768
X3543Y21555
X2756Y22343
X3543Y23130
X2756Y23917
X3543Y24705
X2756Y25492
X3543Y26280
X2756Y27067
X4331Y25492
X5118Y24705
X5906Y25492
X6693Y24705
X7480Y25492
X6693Y26280
X8268Y26280
X9055Y25492
X8268Y24705
X9055Y23917
X8268Y23130
X9055Y22343
X8268Y21555
X9055Y20768
X9646Y21063
X10039Y20669
X9646Y20276
X10039Y19882
X9646Y19488
X9055Y19193
X8268Y19980
X7480Y20768
X6693Y21555
X5906Y20768
X5118Y21555
X4331Y20768
X4331Y22343
X5118Y23130
X4331Y23917
X5906Y23917
X6693Y23130
X7480Y23917
X7480Y22343
X5906Y22343
X9843Y21555
X10433Y21063
X10433Y20276
X10433Y19488
X11614Y19094
X12008Y18701
X12402Y19094
X12008Y19488
X12402Y19882
X12008Y20276
X12402Y20669
X12008Y21063
X11614Y20669
X11614Y19882
X11929Y17421
X11929Y16791
X9843Y16831
X8268Y18406
X7677Y14469
X7382Y14469
X7382Y14173
X7382Y13878
X7677Y13878
X7677Y14173
X7677Y13583
X7382Y13583
X7382Y13287
X7382Y12992
X7382Y12697
X7677Y12697
X7677Y12992
X7677Y13287
X7972Y13287
X7972Y12992
X7972Y12697
X8268Y12697
X8563Y12697
X8563Y12992
X8268Y12992
X8268Y13287
X8563Y13287
X9843Y12106
X10138Y12106
X6988Y9154
X6693Y9154
X6693Y8858
X6988Y8858
X7776Y8071
X7579Y7185
X7874Y6102
X7874Y4724
X7874Y4429
X7874Y4134
X7874Y3839
X7874Y3543
X7874Y3248
X7874Y2953
X8169Y4429
X8169Y4724
X8465Y4724
X8465Y4429
X9449Y4429
X9744Y4429
X9744Y4724
X9449Y4724
X9449Y5020
X9744Y5020
X12943Y7283
X13238Y7283
X14173Y3937
X14173Y787
X12598Y787
X5413Y5217
X4429Y5315
X4429Y5020
X2362Y7087
X3150Y7874
X2362Y8661
X3150Y9449
X4626Y9400
X4921Y9400
X4921Y9104
X4626Y9104
X4626Y8563
X4921Y8563
X4921Y8268
X4626Y8268
X4823Y10039
X4921Y10728
X4921Y11024
X5413Y12008
X3150Y12598
X2362Y11811
X3150Y11024
X2362Y13386
X12205Y22343
X11417Y24705
X10630Y25492
X9843Y24705
X9843Y26280
X10630Y27067
X11417Y26280
X12205Y27067
X11417Y27854
X12205Y28642
X12205Y30217
X13780Y30217
X15354Y30217
X16142Y27854
X19291Y27854
X20079Y28642
X20866Y29429
X20079Y30217
X21654Y30217
X22441Y29429
X23228Y28642
X22441Y27854
X21654Y28642
X20866Y27854
X20079Y27067
X20866Y26280
X21654Y27067
X22441Y26280
X23228Y27067
X24016Y26280
X24803Y27067
X25591Y26280
X26378Y27067
X27165Y26280
X27953Y27067
X28740Y26280
X29528Y27067
X30315Y26280
X29528Y25492
X30315Y24705
X29528Y23917
X30315Y23130
X28740Y23130
X27953Y23917
X27165Y23130
X27165Y24705
X27953Y25492
X28740Y24705
X28740Y27854
X27953Y28642
X27165Y29429
X26378Y28642
X25591Y29429
X26378Y30217
X27953Y30217
X27165Y27854
X25591Y27854
X24803Y28642
X24016Y29429
X24803Y30217
X23228Y30217
X24016Y27854
X30315Y27854
X22539Y18504
X22244Y18504
X22244Y18209
X22539Y18209
X22539Y17913
X22244Y17913
X26378Y16437
X27953Y14862
X28740Y14075
X29528Y14862
X30315Y14075
X30315Y15650
X27953Y13287
X15354Y16043
X15354Y22343
X12205Y25492
X10630Y30217
X9055Y30217
X7480Y30217
X5906Y30217
X4331Y30217
X5118Y26280
T02
X1969Y23228
X1969Y18504
X1969Y14173
X1969Y9843
X1969Y5512
X4512Y2362
X5512Y2362
X6512Y2362
X8661Y1181
X29921Y6988
X29921Y19193
X16732Y29823
X11417Y29823
T03
X1575Y1575
X29921Y1575
X29921Y29921
X1575Y29921
M30
